<mxfile host="Electron" agent="Mozilla/5.0 (Macintosh; Intel Mac OS X 10_15_7) AppleWebKit/537.36 (KHTML, like Gecko) draw.io/26.0.9 Chrome/128.0.6613.186 Electron/32.2.5 Safari/537.36" version="26.0.9">
  <diagram name="Page-1" id="b5pTK4Lh4GHSR0bbkkEY">
    <mxGraphModel dx="823" dy="433" grid="1" gridSize="10" guides="1" tooltips="1" connect="1" arrows="1" fold="1" page="1" pageScale="1" pageWidth="827" pageHeight="1169" math="0" shadow="0">
      <root>
        <mxCell id="0" />
        <mxCell id="1" parent="0" />
        <mxCell id="BGHJ9ARHNfo6qZJL71BD-1" value="Démarrer serveur" style="rounded=0;whiteSpace=wrap;html=1;" vertex="1" parent="1">
          <mxGeometry x="60" y="120" width="120" height="60" as="geometry" />
        </mxCell>
        <mxCell id="BGHJ9ARHNfo6qZJL71BD-2" value="Déplacer robot" style="rounded=0;whiteSpace=wrap;html=1;" vertex="1" parent="1">
          <mxGeometry x="60" y="210" width="120" height="60" as="geometry" />
        </mxCell>
        <mxCell id="BGHJ9ARHNfo6qZJL71BD-3" value="Traiter message du moniteur" style="rounded=0;whiteSpace=wrap;html=1;" vertex="1" parent="1">
          <mxGeometry x="60" y="280" width="120" height="60" as="geometry" />
        </mxCell>
        <mxCell id="BGHJ9ARHNfo6qZJL71BD-4" value="Démarrer robot" style="rounded=0;whiteSpace=wrap;html=1;" vertex="1" parent="1">
          <mxGeometry x="60" y="360" width="120" height="60" as="geometry" />
        </mxCell>
        <mxCell id="BGHJ9ARHNfo6qZJL71BD-5" value="Connexion avec le moniteur" style="rounded=0;whiteSpace=wrap;html=1;" vertex="1" parent="1">
          <mxGeometry x="60" y="440" width="120" height="60" as="geometry" />
        </mxCell>
        <mxCell id="BGHJ9ARHNfo6qZJL71BD-6" value="Envoi message moniteur" style="rounded=0;whiteSpace=wrap;html=1;" vertex="1" parent="1">
          <mxGeometry x="50" y="520" width="120" height="60" as="geometry" />
        </mxCell>
        <mxCell id="BGHJ9ARHNfo6qZJL71BD-7" value="Etablir connexion avec robot" style="rounded=0;whiteSpace=wrap;html=1;" vertex="1" parent="1">
          <mxGeometry x="60" y="610" width="120" height="60" as="geometry" />
        </mxCell>
        <mxCell id="BGHJ9ARHNfo6qZJL71BD-8" value="" style="shape=image;verticalLabelPosition=bottom;labelBackgroundColor=default;verticalAlign=top;aspect=fixed;imageAspect=0;image=data:image/png,iVBORw0KGgoAAAANSUhEUgAABGQAAABmCAYAAACN80fdAAAKqmlDQ1BJQ0MgUHJvZmlsZQAASImVlwdUU+kSgP97bzoJLSECUkJvgnQCSAmhBRCQDjZCEiAQQgwEBbuyuIIriogIKoKuCii4KkXWiii2RcEC1gVZVJR1sWBD5V3gENx957133uTMmS9z55+Z/z/3P2cuABRlrkQigpUBSBNnSsP8vBgxsXEM/CCAAAH9IQDH5WVIWKGhQQCVKft3eX8XjUblluV4rn9//l9FhS/I4AEAhaKcwM/gpaF8AtUXPIk0EwBkL+o3WJopGec2lGlStEGUe8Y5aZKHxjlhgjFgIiYijI0yDQACmcuVJgFAZqB+RhYvCc1D9kTZWswXilGWoOyelpbOR/koyqZoDOojj+dnJnyXJ+lvORPkObncJDlP7mVCCN7CDImIm/1/Hsf/ljSRbKqGMarkZKl/GGpV0TPrSU0PlLM4IThkioX8ifgJTpb5R04xL4MdN8V8rnegfK0oOGiKE4W+HHmeTE7EFAsyfMKnWJoeJq+VKGWzppgrna4rS42U+5MFHHn+nOSI6CnOEkYFT3FGanjgdAxb7pfKwuT9C8R+XtN1feV7T8v4br9CjnxtZnKEv3zv3On+BWLWdM6MGHlvfIG3z3RMpDxekuklryURhcrjBSI/uT8jK1y+NhN9IafXhsrPMIUbEDrFgA3SgQhVKWCAIPSfNwCZgmWZ4xthp0uypcKk5EwGC71hAgZHzLOaxbC1tnUAYPy+Tr4Ob+kT9xCiX532rdcDwC17bGzs1LQv8CYAx08DQLo/7TMZAEDxKgCXd/Bk0qxJ38RdwgISUAI0oAF0gAEwBZbAFjgCV+AJfEAACAERIBYsAjyQDNLQzpeCFWAtyAMFYAvYDspABdgHDoEj4BhoAqfAeXAJXAM3wR3wAPSCAfASDIP3YBSCIDxEgaiQBqQLGUEWkC3EhNwhHygICoNioXgoCRJDMmgFtB4qgIqgMqgSqoZ+gU5C56ErUCd0D+qDBqE30GcYgckwDdaGjeHZMBNmwYFwBLwQToKXwDlwLrwZLoWr4MNwI3wevgbfgXvhl/AIAhAFhI7oIZYIE2EjIUgckohIkVVIPlKCVCF1SAvSjtxCepEh5BMGh6FiGBhLjCvGHxOJ4WGWYFZhNmHKMIcwjZg2zC1MH2YY8w1LwWphLbAuWA42BpuEXYrNw5ZgD2AbsBexd7AD2Pc4HI6OM8E54fxxsbgU3HLcJtxuXD3uHK4T148bwePxGngLvBs+BM/FZ+Lz8Dvxh/Fn8V34AfxHggJBl2BL8CXEEcSEdYQSQg3hDKGL8IwwSlQmGhFdiCFEPjGbWEjcT2wh3iAOEEdJKiQTkhspgpRCWksqJdWRLpIekt4qKCjoKzgrzFMQKqxRKFU4qnBZoU/hE1mVbE5mkxeQZeTN5IPkc+R75LcUCsWY4kmJo2RSNlOqKRcojykfFamKVoocRb7iasVyxUbFLsVXSkQlIyWW0iKlHKUSpeNKN5SGlInKxspsZa7yKuVy5ZPK3cojKlQVG5UQlTSVTSo1KldUnqviVY1VfVT5qrmq+1QvqPZTEaoBlU3lUddT91MvUgdoOJoJjUNLoRXQjtA6aMNqqmr2alFqy9TK1U6r9dIRujGdQxfRC+nH6Hfpn2doz2DNEMzYOKNuRteMD+oz1T3VBer56vXqd9Q/azA0fDRSNbZqNGk80sRommvO01yquUfzoubQTNpM15m8mfkzj828rwVrmWuFaS3X2qd1XWtEW0fbT1uivVP7gvaQDl3HUydFp1jnjM6gLlXXXVeoW6x7VvcFQ43BYogYpYw2xrCelp6/nkyvUq9Db1TfRD9Sf51+vf4jA5IB0yDRoNig1WDYUNdwruEKw1rD+0ZEI6ZRstEOo3ajD8YmxtHGG4ybjJ+bqJtwTHJMak0emlJMPUyXmFaZ3jbDmTHNUs12m900h80dzJPNy81vWMAWjhZCi90WnbOws5xniWdVzeq2JFuyLLMsay37rOhWQVbrrJqsXs02nB03e+vs9tnfrB2sRdb7rR/YqNoE2KyzabF5Y2tuy7Mtt71tR7HztVtt12z32t7CXmC/x77Hgeow12GDQ6vDV0cnR6ljneOgk6FTvNMup24mjRnK3MS87Ix19nJe7XzK+ZOLo0umyzGXv1wtXVNda1yfzzGZI5izf06/m74b163Srded4R7vvte910PPg+tR5fHE08CT73nA8xnLjJXCOsx65WXtJfVq8PrAdmGvZJ/zRrz9vPO9O3xUfSJ9ynwe++r7JvnW+g77Ofgt9zvnj/UP9N/q383R5vA41ZzhAKeAlQFtgeTA8MCywCdB5kHSoJa58NyAudvmPgw2ChYHN4WAEE7ItpBHoSahS0J/nYebFzqvfN7TMJuwFWHt4dTwxeE14e8jvCIKIx5EmkbKIlujlKIWRFVHfYj2ji6K7o2ZHbMy5lqsZqwwtjkOHxcVdyBuZL7P/O3zBxY4LMhbcHehycJlC68s0lwkWnR6sdJi7uLj8dj46Pia+C/cEG4VdySBk7ArYZjH5u3gveR78ov5gwI3QZHgWaJbYlHi8yS3pG1Jg8keySXJQ0K2sEz4OsU/pSLlQ2pI6sHUMVG0qD6NkBafdlKsKk4Vt6XrpC9L75RYSPIkvUtclmxfMiwNlB7IgDIWZjRn0tDB6LrMVPaDrC/LPas86+PSqKXHl6ksEy+7nm2evTH7WY5vzs/LMct5y1tX6K1Yu6JvJWtl5SpoVcKq1tUGq3NXD6zxW3NoLWlt6trf1lmvK1r3bn30+pZc7dw1uf0/+P1Qm6eYJ83r3uC6oeJHzI/CHzs22m3cufFbPj//aoF1QUnBl028TVd/svmp9KexzYmbOwodC/dswW0Rb7m71WProSKVopyi/m1ztzUWM4rzi99tX7z9Sol9ScUO0g7Zjt7SoNLmnYY7t+z8UpZcdqfcq7x+l9aujbs+7Obv7trjuaeuQruioOLzXuHenkq/ysYq46qSfbh9Wfue7o/a3/4z8+fqA5oHCg58PSg+2Hso7FBbtVN1dY1WTWEtXCurHTy84PDNI95Hmuss6yrr6fUFR8FR2dEXv8T/cvdY4LHW48zjdSeMTuxqoDbkN0KN2Y3DTclNvc2xzZ0nA062tri2NPxq9evBU3qnyk+rnS48QzqTe2bsbM7ZkXOSc0Pnk873ty5ufXAh5sLttnltHRcDL16+5HvpQjur/exlt8unrrhcOXmVebXpmuO1xusO1xt+c/itocOxo/GG043mm843WzrndJ7p8ug6f8v71qXbnNvX7gTf6bwbebene0F3bw+/5/k90b3X97Pujz5Y8xD7MP+R8qOSx1qPq343+72+17H3dJ933/Un4U8e9PP6X/6R8ceXgdynlKclz3SfVT+3fX5q0Hfw5ov5LwZeSl6ODuX9qfLnrlemr0785fnX9eGY4YHX0tdjbza91Xh78J39u9aR0JHH79Pej37I/6jx8dAn5qf2z9Gfn40u/YL/UvrV7GvLt8BvD8fSxsYkXCl3YhRAUIUTEwF4cxAASiwAVHSGIM2fnKcnBJr8Bpgg8J94cuaeEEcA6lAzPhaxzwFwFFXjNWhu1I6PRBGeALazk+vU7Dsxp48LDv1i2Tvh76KLKsE/ZHKG/67vf1owntUe/NP+C8vGB7vj6QsfAAAAimVYSWZNTQAqAAAACAAEARoABQAAAAEAAAA+ARsABQAAAAEAAABGASgAAwAAAAEAAgAAh2kABAAAAAEAAABOAAAAAAAAAJAAAAABAAAAkAAAAAEAA5KGAAcAAAASAAAAeKACAAQAAAABAAAEZKADAAQAAAABAAAAZgAAAABBU0NJSQAAAFNjcmVlbnNob3T8LSuuAAAACXBIWXMAABYlAAAWJQFJUiTwAAAB12lUWHRYTUw6Y29tLmFkb2JlLnhtcAAAAAAAPHg6eG1wbWV0YSB4bWxuczp4PSJhZG9iZTpuczptZXRhLyIgeDp4bXB0az0iWE1QIENvcmUgNi4wLjAiPgogICA8cmRmOlJERiB4bWxuczpyZGY9Imh0dHA6Ly93d3cudzMub3JnLzE5OTkvMDIvMjItcmRmLXN5bnRheC1ucyMiPgogICAgICA8cmRmOkRlc2NyaXB0aW9uIHJkZjphYm91dD0iIgogICAgICAgICAgICB4bWxuczpleGlmPSJodHRwOi8vbnMuYWRvYmUuY29tL2V4aWYvMS4wLyI+CiAgICAgICAgIDxleGlmOlBpeGVsWURpbWVuc2lvbj4xMDI8L2V4aWY6UGl4ZWxZRGltZW5zaW9uPgogICAgICAgICA8ZXhpZjpQaXhlbFhEaW1lbnNpb24+MTEyNDwvZXhpZjpQaXhlbFhEaW1lbnNpb24+CiAgICAgICAgIDxleGlmOlVzZXJDb21tZW50PlNjcmVlbnNob3Q8L2V4aWY6VXNlckNvbW1lbnQ+CiAgICAgIDwvcmRmOkRlc2NyaXB0aW9uPgogICA8L3JkZjpSREY+CjwveDp4bXBtZXRhPgr1KruFAAAAHGlET1QAAAACAAAAAAAAADMAAAAoAAAAMwAAADMAADJ0GkCYAwAAMkBJREFUeAHsnQe8LDX1x/Povffem3SeFAF5giBN+IgKqHQQVEREBATBigVRQFDUJyggUkRBBEQUkaII0kUevddH7x3mf76BM//c2ZndZHb37u7dk89n7uydySQnv5ycnJwkJ+MyCc6CIWAIGAKGgCFgCBgChoAhYAgYAoaAIWAIGAKGwKghMM4MMqOGdc8zuuWWW9x73vOentNhBPQ3AnfccYd74403usYrb7/9tnv44Yfdwgsv3N9A9IC61157zV111VVu/PjxbsYZZ+wBBXFZIktefPFFt9Zaa8V9UBKr23xWkmXUo8cff9yNGzfOzT333FHxBzHSK6+84vlsrrnm8u18iimmGMRitE3zSy+95P7xj3+4D3zgA33d3touaI0EBkUW1Shaxz4ZRP4ZDblrvNMeiw0bfjfddJPXOdF7Oh06oavE0kTbevbZZ92SSy7p5pxzztjPehqvF7z24IMPugUXXNANq95RWeEYZCx0DoFPf/rT2WyzzZbNPvvs2eWXX965hNtI6bHHHsu22WabbI899mgjldH99O677/Y4guUWW2wxupkPcW7SoWQyGGXVXHbZZZd1BYkXXnghW2655bKf/exnXUl/kBP91Kc+5bGXAWLfFUM67uy3v/1ttt5663kaP/KRj9SmcTT4rA5xp512Wrboootmt912W53P+/6bBx54INt00029bKWNc6266qrZPffc0/e0d5LA//3vf9nnP//5bJZZZvEY0N9YGIlAP8uikZSO/n+Dyj+jJXeNd9rjyWHATyYFspNOOimTSR0vg3fcccf2QAu+7qSuEiRb+fOYY47JllpqqWzaaaf1ZeH+ve99rzJ+P73oBa+B14QJE7L777+/n6DoOS2u5xSMIQLefPPNTKyivkEefvjhfVEymf3L5phjjmyXXXbJoG9QwtFHH+1xlFUU2SOPPDIoZA88nTKb4HFnoPbXv/61a+URC3kmq7W8se3JJ5/sWj6DlvDHP/5xj//73ve+viP9kksuybbffvtshhlm8DS2Y5AZLT6LBRHZCPbI76uvvjr2s4GKJzN32Yorrujb3Ouvv579/e9/z6abbjpfl9ttt91AlaVdYnfaaafsve99by7rzCDTiGg/y6JGakf3yaDyz2jJXeOd9vhxGPA777zzMowB00wzjZfDnTTIdFJXaVWTJ5xwQiYrPbIrrrgiwxC05ZZb+vLwjPbW76FXvPajH/3IL1w444wz+h2iUaPPDDIdhJoVBQxkd9555w6mWj+pe++91w8w9t5770y2idRPKPHLK6+8MvvmN7+Z+NXI6KwQmHnmmTNZyjjyRZ//x8BGtjz0OZVZ1qyO/v3vf2cXX3xx18vw1FNPZfPPP3/20Y9+tOt5dSKDZph1In3SYNBMBzV58uSGJEcj/4ZMSx587GMf83KuHYMMyY4Wn5UUoeHR/vvv72XlpEmTGt6NlQf77ruvr7dzzjknL9Lvf/97L2e/9rWv5c+G5QeGN10lNJYNMnX7pEGQRb3k1UHln07K3SreasY7vayzQcm7V/j1QsfYbLPNvBzupEFG67lTuoqmV7yj60811VTZKquskr96+eWXM8YvCyywQCZb8/Pnvf5RVbe94jXwYBUR+F1//fW9hqcv8jeDTAer4ctf/rJfhsXsY6+D7G32QmL66af3g7zRpOfDH/5wttdee9XO8plnnvEzt3/+859rp9GLD6+77jrfsTz66KO9yD4pz3brKCmzJpHPPPNMj9kf/vCHJrH641WvMet1/loLbH1kINuuQUbT6/X91FNP9eU5+OCDe01KV/NfZ511fDn/+c9/djWfQUn8zjvv9HjAy2PVINOtPqlfZFEveW0Y+KcZvt3irWZ52rvuItCLdq1bZrphkOm2rnLRRRf5PuSDH/xgdyumA6n3om5bkS2+KrOVV145W2211TJ+D3swg0wHOQDF/umnn+5givWT+ta3vuUFBUtrRzP8/Oc/9/m2Y5BhX+G55547mmS3nRdWZvyioNz3u0GmE3XUNmBBAssvv7xfKYMhrl9DrzHrdf5hvXzmM5/xfD4WDDL4M8KPCH6TxuqgnLp76623MnES7ettrG7JCnk05jd+c8byCplu9Un9JIti6rlbccY6/zTDrVu81SxPe9ddBHrVrtlRgBzuhkGm27rK97//fU87q3z6OfSqbmMw0UlZsBz2MA4ApDFYeBcB8WfhTj75ZLfIIos42VvnxH+JkyXe/kQRcUJUeaqIdFBOtnk4WXrlUxKLn5MBi5PlWA3YXnvttU6Wjbq77rrLLbHEEu5DH/qQk8F8Qzzx4eFkX6LjVJqVVlrJyV5LJ3v+3eabb94QN3zACTmLLbaYp53vxQln+Dr/HUNzLB6wkThpdV/84he9t3TZR+n2228/n9faa6/txO+Eky0q7pRTTvGnl3zyk590sgLG4yCCeET5Y/Eh8Zi4lEGcdTrZwuVxEYusP1lDjFY5Fq1+NMuHdCnDv/71L5/MWWed5cRvj5t33nlbnlSUQpsMHp3sjXUyoHKy1ceJDwS35pprNngqr8J5hx128OVuVkcUAN6UrQy+/hZaaKER0MTwDB+klEu2i7ijjjrK7b777k72447Ir9k/zepEv+MEFdmr7KhrWS3mZFuho12JEchtvfXWTpxGa9TSewxfi/NuLyNk24fj9Jpf/epXDtzgiSmnnNLJYNj98Y9/dOII0onRybfldddddwTPa+bPPfec+81vfuOmnnpqJ0ZNDOYt2xXf1pUV8Io46nXIq/XXX9/JrKcTY6g/cQa5JA5flbT8/tnPftZJB+/l29lnn50/1x8x9ULcKj5LrbMUXlMa9f7Tn/7UiXNXt9FGG3n5rc/Dewq2smfcyayZox6RM8he5ACBukQei7+aPPkNN9zQ/+bUsdtvvz1/jvymbwhDCh36HTLjmmuu8f0X/E6g7pZeemn/m9OFOFFKQzP6NQ73Vjwvy6OdrHpzsurIcZLTBRdc4Mu++OKLO3Ewn59gJcZrjxf50ibo2+jniiFW7hS/C/8XQ79v//TRKj+pd4IY4xrwbifPOu0KOmJlPHGb8X07fRJpE+rKone+bv5XnEt7/UdjwRdcBFnB5WSVsb7yJ2Apj1LmOvpZrEzKMy35kco/sXnGtmtxNO6xue+++5xs53Ybb7yxW3311UdQWtX3hzpWldylb7z00kvd17/+dX9SDP3mf//7XyfbMZxsK/b9J5nF8FaRd0YQKf/E8nnd+i7mx//N2ktdftR8YuqGuOgH6HCcKsRvTuORbV85tppeFX518WhGX6yO0Y481HLRrukb0JVJDx32/PPP9zoPPMr4IAzt5tlMV2H8Rb9E3cukjGOcQh8000wzhSSU/qa/QB6gP6ADyepTJ35Dfdxi391tXm+3bqt4LSx4rF6QqruRBzoxJ1qi8958881OnCOHWQ/Xb2mMFgQBvOaLkSD3ks1SN04UYX+bcIS/mEVliVoxcJoSzmdF8cy22mqr/OSGNdZYI3vooYfy6OwtxGJLOu9///sz6Ux9uji1+vGPf5zH44cIkkwEQ7brrrt6x1f8hg7pLEfEK/vn9NNP93GFycte+2etaE7Fgy0nMoDIZ2Hx/8L/eB6XRpqJMSB3IEmZuBRXVkgQUvCJjSuCxNcLdYGfCPZ6ar4+0xZ/YvKhLmUAnqeLXxTK/pWvfKVp6im0HXfccZkILM83e+65p+c3yoFlXjotnw/pNcMZGqvqiL2uEydO9MsHFZ/ivs5WPKOFTSkX3+iyT9qalkXTKrvH1IkYeLJll102rxMR9BmOcrVs3MUA4VcOlOWhz5rxNX6S4F1N88ILL8z5n2dY/qWzy1ZYYQXvuI6luZxwg7M33v/617/WbDJRDrLddtstd5iLHCE0y1/3J9eRFTJY8LyipwIcccQRXv5pWbiLMalBLkFT1axTTL3wfRWf1amzVF4jfw341dJVbaJY6eMR91hsn3jiCe8wlz4A2cbJcGCI3KYOCfDCAQcckMlxjznPsHKFgM+mTTbZJH9elB2xdPjEgj/wFX3TPPPMk6fNb2QBl26vjaGfZDkdoRnPc8qgTB7keYninbGcO+SrWWed1fvZwn+N9mv6nnIWQ6zcKX4X/i+Kvm+DOPJlazEOxTVP7sXVUXXzbKddxch4LVMrvq/bJ5F+O7JI6Wt1ZwUsK+y0Dg477LD8E+QL/hf03auvvlpbP4uVSXnmFT9S+Cclz5h2zVL+Qw891OuiYlTN8NvCVnT0SJlc8RS36vtps2Vyl5NuOEBB2zTtUQw2I05hox44iU37m2a8VcU7IawxfJ6qf4bpl/1u1V5S+VHziKkbjYs/RHQBGbD7E09xsA62yGHoI1ThVxePGPpidIy68lDLzl2MSZkYPPw4AL5n9T46rbZzMciE0f0ptTHjqhEfFf6p0lU44RN9k/ogDjo7dDA+oJ9uFejjqTfaIN/hHJ//ucKVHt3k9XbrFp8yZTpnWPZYvaCO7hbmo9up6ZuHOdiWpXdrn/2wLOtCWaSBcadxoYD+5Cc/yWT2xj9HgQ+DzFb4xviJT3wio3MjIFz1OE08bmtACCEEUNo06B5HBmn/+c9//GN1Fhcem0ZnyAkgMQYZBnOUAYNPWYihuS4e6rE73LIkM7QeW057gi6WzmMgwXgAHhtssIEnMxYfIsfGlRlXr1xo3fAtgx3oiAmx+VDnpMkVu2UpljZZceMH8aGzaBWU5EfHzsAqFueyOgILWdnhcdVyhAaZGJ5RPGPLpfFlxi3HDiNGqxBTJ7Rl+EvLwiAUgyuKtazEyZ/Hengvw4xOXZfbkg9HtOM4VWa9vDHjb3/7W4bxjHfQrOE73/mOf8ZpRXryGfwDzToQUYOMflOWP+/qygpOOEBxwOgCfRgSMODiABycVNHgPcpgGKqUnJh6IZ0qPqtTZ6m8FpYD/lb++NOf/hS+8r9jscVfl8yuebkWYkV5SB8sMe5rkBn+PF81yOg7NdaEBplYOjSNsjvbAbWsyPYwpNDfiucxeivPkx/9KIo3Jzodcsgh+YQH8p93GAJlhnSEMerGG2/MyUuRO/lHhR8YPqEFXkGJJcisZTZ+/Pgck9Ag006eddtVrIzXosXwfZ0+ifTryiKlLeWuelVokOH7X/7yl3ndYJCpq4/EyqRmNKfyT2yese36S1/6kscCTDR89atfzfGhbcX0/WVyl8Enp52gg6l8oA/CiMrgiL5Mn3PCnoYq3mrFO7F8Xre+lb7iPaa98E0sP2r6MXVDXCZmmaTEEKyTTshkNUgzOUSowq8uHrH0kXeVjtGOPCRdAvo3Yyf6wtCHGfqX8ldokOlEnuRbpqtg9MKgiW6jJ7i++OKL/sQfaAnHXaTRLKijfPyzFEO3eb3duq3iNS1Hil5QR3fTfLirHo1heJhD3Kh0iBBCcNMosZzqjADFx4rMcwwIOojiObMVPIe5w4DlkedcHPGLoo4AQOiFQZbL5fEYKBKOP/54/wwrbBhQWmIMMtBOvmVCgvRiaSZuKh5VQp20dEaMTkgVYKzm4JmCT0pc2S7gcdf8oANlHIHcKqTkQ/1rfccaZGJogwdZxUBHVrTcM4jUPDEcamiGM3Ga1RGdlaYZGmRSeCamXEordwS/5olBoFlIqRMMnJpuiA/p6yz+N77xjWbZ5e+qMGPWS/P43Oc+5+MzyMZgRmDgyXvatAYUEv0G/g+DGpFiDTLtyopFF13U04LxGTmlAbyURk4qCEOZkpNSL6RVxWepdZbKa2E5fve73+VlLBopiBeL7T777OPTQUEqBq1/DC3wOYHVMIpt0SAjW2j8u9AgE0tHMe/w/2YGmVT6W/G8LKHOy1dc+alHgjK5AM9oABtdORYaSVPkjqYV3pH1yiO33npr+CqTbaw5nWH/0G6eZJLSrurIeC1TSHexX6vTJ4UApcqi8NvY37Klz9dB0SDDEbLaRjDIaEjRR1JlkuYR3lP5JyXPmHaNcRK9EaeX4UmZ8LIazZFjGlr1/VVyV41OYB4OSJEbaqTgHStNCa14q4x36vB5Sn0rBmX3mPbCdyn8mFI3etqPbF0eQR4TueCKzh6GMvx4n4JHCn2kXaXjdEIeHnnkkb6crBIuhmWWWca/Cw0ynciTfMp0FYzmYM4kXRh0JadsYQ4fN/1dZZDpNq93qm4pXBWvpeoFqbpbCCwrh6kTLtWdw/fD8tsMMoWaVqHEypUwyF7anGF0GxIdJLPcMBGeosOLGWdlMNkj7GcC+Z/VIWE8HRjyji0VBLb46LcosDpQwnjDctJWAWMD34erVPSbFJr5JgWPMH5Z3tr5lDkaZqY0Fp+UuDrzw+oFZqZVqQmVGMWmeE/Jp5WCUkyb/2No0xNgUPCLgbJoZ8aSYg3NcCaO1mlZHT322GM576lBJpVnYsqltOpd2xEKZbNQt060zWra4sfCl7PYzvV98V6Fmfj9yPHCyWMxMHvJQF07GWbH1OE2/E7HHQZVIGINMu3KCl02/cMf/jAkw68kYHsbNLLEOgxKY1hXKfVCWmV8xvOwHcXUWR1eIx+C0kwZy4yosdiyLZM0GNQUAytjeMelyngzg4wqhaFBJpaOYt7h/80MMqn0t+J56k3LTH2GgQkF3sF3xaD8xow9IVXuFNPjfzUssn2xGMLBqRo2OpEn+aS0qzoyPobvw7ZUxt9FPIr/azuPlUXF72P+rxoAh0br0CCjcrgot8v0M23fMTpXFa2p/JOSZ0y71pUwujUppJNTntAtwwnCVn1/ldxl+yDtksmyYjjxxBPz9nzSSSf51614q4x36vB5Sn0X6Q7/j2kvxE/hx9i6gX8xqoGvro5R2ljZLH5MMnT7MJThx/sUPGLp03w17VAv7IQ8ZNJBV8fjTqEY1CCgBplO5Kl5KI6hrsKWQk5UZAWLhquuuirfxsq229hQZZDpNq93om61jIpRUc6n6gWhTIjR3TR/7j/4wQ9yGcOEz7AGM8gUap5lmQjOYocfKm8spyOo4snsJzMWVRcCgPRIl9mHqngqlOlgxelizqD4mGEZeHHwViDd/xt2uOJktCFKCs18nIIH8cuEOs8JerxdceUP71LwSYkbbg8Af2YiYrbFpNIUCqNY5TeGNi0rCkVZ2HbbbT2fYITT2fZmOJNGszrCcABOXGqQSeWZmHIVy8KgnzzZS9osKB4x7SicqS92EKoE7LLLLs2yy99VYRYefcrpYFWBAQOr5lB4db8+5S22aVYI8bzYOVbl346sgFY1CBcNMrxTZYOVC+GgSDvwUMlJqRfSLuMznqfWWR1eIx+CloOZZm0777x5528Mtto2qDMGWMUwadKkvD3pzHOqQSaGjmK+xf+rDDJ16G/F88g/8OBCLoZBB7hlBhmMynzDoJagtMX0r2Ee4W+UfNIUB9XhY/873CqpBplO5EniKe1K206KjI/h+6o+afLkyRm+SJAxxQufPxpSZZF+l3JPGQCTboo+orjG9BVVNKfyT0qeMe0aGQv/ss01JrTq+6vkrq4ALzPIhLKDgSChireUxjLeUWxS+DylvjXvsntMe+G7FH6MrRtdUYi/lNhQhh/fpuARS5/SVKZjdEIeIlvhYa6yCWXdrqIGmU7kqWXSPj7UVfQdOg1bbfAbM9988+V+kzphkOk2r3eibhWHMl7TOqDOYvWaVN1N8+eOoVd5pMxPaxh3LP82g0yhdlMEnu4BxqETVt1mAeerMJwq5c3i8o6OUzzb50zKt/ilKRNoYVrsiVTGLnOQlEIz6abgQfwyoc5zQjNlIQWflLjki1Uegau4cGcmCYWoWUjJp5WCUpVPK9pwQgm9KPhlgTrmPUa71157zUdphjMRmtVRmcKWyjPk0apcxAmDbrOrUtY0bkqdtNNBaH56r8Ks1eAUuXDQQQf55eXQzuoCDLLKi+0aZKCvrqzg22YDR5w9Qieze8pbfFOm5KTUC2mU8RnP69RZKq+RDyH0dcIe8rLQCltmN7Uu1XlvmA7p6nvdbppqkCG9VnSEeZb9DgdV4fasOvS34vlOGWTqyJ1i2VV+ymlSxVdZmUGmE3mSUUq7UhpTZDx5tOL7qj7pjjvuyHlSeVPv4axxmaJOvlWykHepIWUATNop+kiqTCqjXesmln9S82zVrtdaay1fV6EPsjI69Vmrvr9K7jYzyJC2+lbUrWVVvKV0lPGOYpnC5yn1rXlX3Vu1F75L4cfYusHZv7YvjKExoQw/vkvBI5Y+paesXXdCHoZ9jJzkpdnl96JBphN5auJlugrvmChhRSYGSHwzsVJJt0l1wiDTbV7vRN0qRmW8FtZZrF5TR3dTGsLt42UGII031u9mkCnUcIrAYzClglaOcC6k9M6/7IXGQkwjJy4NqSwwcJPjbv0rfuuMLUt3w9Nh2HoTOqgtpoXTQt2Lj6ArhhSa+TYFD+KXCXWeE5opCyn4pMRVowt7wRkQsXxZ6yz0hv4OhSP/puTTSkEZmfI7/8XQpltrUIg0fpgWChLlCVeWNMOZb5vVUZnClsozSmcK5rqktdWKlZQ6aaeDCDFuhlmrwSnb86gf6NY23UmDTDuygnI1GzjizBzaWa0XhjIlJ6VeSKuMz3ieWmd1eI18CKwgVFnA4LwYYrANt0qwT74YkMfq60FnflINMjF0FPMt/l9lkKlDfyue75RBJlXuFMvM/wykqWP8YBRDaJBhBSyhE3mSTkq7qiPjY/i+qk9i28QvfvGL0ivcdlmmqFO2Zv0H71NCygCYdFP0kVSZVEZ3Kv+k5BnTrnUFLDKY+MVAH4ujbQ2t+v4qudvKIKNb8NU5eRVvKR1lvFOHz1PqW/Muu8e0F75L4cfYuglXSaqOX6QRY5G6JuBdGX48T8Ejlj7SJZS1607IQ4ww2s+yUqkY1CDDqmVCJ/LUPMp0FQ5VmX322f0Ed+jHrJMGmW7zeifqVjEq47U6ekGq7qb5cz/22GNzHtEdKOH7YfltBplCTacIPD7FwoqwwS8MW5PCgNUVxQzmVqdWxGV/YTEgkGnEBE6CYU+dBjricPBwySWX6KvSux7hxmxNWYilmW9T8VChjmJSDM2UhRR8UuJy0lQ4u4/irdtjOL6xWUjJJ1RQ6FBiQgxtob+RMqOfKoAHHnhgnmUznInUrI6qFLYUnokpV06s/GDpqHbYHCXdLKTUSTsdRJGGKsyaDU5RsLRcyAANoUGGpaFhKOsceV+Vf7uyQgeOZcZJeAr6VS4pnWVKTkq9kE4Vn6XWWSqvaRm4MyjV+mFWrhhisMU4rv6P1lxzzWISuXLJKqPnn3/ev9cZQPIuOupWHzLh6sYYOhoyLjyoMsjUob8Zz5NtpwwypJUid4hfDKws0DoOt+MQLzTIsHJNQ7t5kk5Ku6oj42P4vk6fpBhwT5VF4bexv3VFyX777Tfik9CHTLh6LUUfSZVJIwh4959U/knJM6Zdq68IeLjM7x0TMqFj+lZ9f5XcVYMMq72LIXS6r/1YK94q4506fJ5S30W6w/9j2gvxU/gxtm7Qb3SSlO0xjAvCQJ1wvLM6feddGX48T8Ejlj7SJVTpGO3KQ1YFqQzeeOON38ks+KsGGVata2g3T02nTFfR7URFvUYNMryPDbqtu3iASrd5vVN1SznLeK2OXpCqu4UY68m3xUNzwjjD8NsMMoVa3mKLLbzwKPo5CR0ZMqDSwMkqKmzwhM/xgwhclD/2Z3PMHQH/EupsF+WcffII4scffzybOHGiVzx1uTD/s4UjNCSQpq4iuPzyyzX70rt2ypzwURZiaebbVDxUuK677ro+a/DQTlwFXlEQEjEFn5S4HOFYNIDhL4M623DDDT2NVX9S8gmVe447ZjWEOsCrSj+GNvhDO6dNNtlkxCwZsz4Yl+ArvK5raIYzcZrVUXjq15VXXqlJZik8E1OuPGH5waystiFOPmkWUuok9PrOd2FQ54dgFROqMAuNK8rnmh4zMVounRnCuKqOH3nH9oFzzjlHP/F+ZnhOXYehKv92ZYUOHENHfuQLb+HUjdUd4BgGVjFBY2jwTakX0qris9Q6S+W1sByhYYGTF4ohFlu2pGk9M5AMwwknnODfcZS4hnAG8NJLL9XHI/ZR429IQywdGr/sHrax4rLxVPqb8Tx5h7Iw3B7FO5W9ZcdbKi+GRtkUuUP6xRCuRuJocjWKES/ktXArcLt5kraWJaZd1ZHxMXwf1kNsnwTtGvSkyFhZxHcs/+e0yGK9a5rFu04oTJgwIX/FAA7jprYp9a1HhBR9JFUm5QQEP1L5JyXPmHaN3onvEbDA8IucQrdAPrOllHcMhDS06vur5K4aZMgHg2oY1L8D2GtoxVtlvFOHz1PqW2kru8e0F75L4ceUutGVsuCL/yY9XZG6Y3tL2D9ARxl+PE/BI4U+0q7SMTohD3XlEeXXcQ55ErRMoZ+vTuRJ2mW6ip70x5YlDfSPHMsNfdTFU089lbUaZ/Gt1mtxS2O3eb1TdUsZqngtVS8I+9NUfVtx5JCSYQ5mkAlqH6MHx7/SKBEg4RJRTsjgOVe4p46Gy5F6+o67WsMxvISK3uGHHz4iHnF1OXvY2dFR8w4nV2o1Z9sT1kNmUFsFPdmD7U26VDP8JpbmOnh8+9vf9rRDK2ViUMcABCVCnTYyGxAqxkpbLD7Ej41LR8x2H7aOaUBhBN/wmb4r3mPzAWf8uJAuZWb1TbhqpZgu/8fSxqBOeYoTe+AJ8FTfJJyQoCEG56o6Io1wvzPKtYZYniF+bLk0bV3SSj2Fs6H6vniPrROWclMfXJxGoYF2zYwZz5mxCtu5xineqzA7++yz8zxwWBoG0tUjQ1GmMfKifIX+jKADGjQwaIQuDG20Pw1V+bcrK3TgSHsNFRBmXaGDtlIMOlhCoQlpjK0X0qvis9Q6S+W1YlnUeXqZU+NYbFl9orKNvkCNoyxVX2SRRfw21XD1JG1U+5m5557bz1BxnCl8gQNbcMdfGIZ1DDyxdBTLFv7PUnnS5QoNHsRJpb8Zz5OeHitKXrrFgecElb0sGQ/7ALZecBQ234RG0hS5804OjX/1yFnSht/ZiodRlNUAPOOiXapTyU7kmdquUmQ8JYzh+zp9UoheqizipBLFE92HAwZaBeVtvkO3+cIXvpCxwnf8+PF5WhhrOIK1jj6SIpOqaE3ln9g8teyt9Dz1E6fYIht06zXbsDXE9P1Vcjc0yOAwVOUVhhed9GHyQEMr3qrinRQ+r1PfSl/xHtNe+EbrJIYfiR9bN6yEVT88pI3ej7zXe9EIVoZfHTxi6aMsVTpGJ+QhB0SoYRFdlvb8azmVkJUlyte8py0w1upEnpSpTFdRAyP5ImfQy2hT2v8wbkKHD8d5pFUMrHxiwp102NKnRjaN121e70TdQmsZr/E8VS9I1d3IQ4NuDYUHhzmYQebd2se6x7n0Khy4o6zj3Ij9erq6hed0hqGvC7YmhBZg4pBWOAhUJjv++ONHpEVc9k6ikGrQTgFhTTqkjbBiBQ6zuq0CnakONIrLtPXbVjTXxYOOhbyhncEIs//4TtBtVJSXC+GHwCqGGHz0m5i4DHighQulmwHytNNO6w06mk6re0w+pIGSjyJKXaHUILCbhRTazj333Iz4YMdAgk6DbXKh0SQW57I6gk5mJeiYtI7IhyWyGlrxjMZLKRffoISTZ9nRnppm8d6qTrC4U+daFlYZsWKN7X5qJNF38GtoOC3mxf9lmDHTokoGaaFo0EbxG6KBZeaaH+9ZDovRSWdj4ElmhNnLHJ6+RHoowrqCoix/8mhXVujAkfYIXhwPDB3Qesghh4ww6DKbV6SRNn7GGWdocbNW9ULEKj6rU2epvJYT+u4PZBBYly2lTsEW+U2bp/2THnKbNspqwDJHjqxY0JVvxKceGPDoliWcW4MrSngKHcXy4S9k/fXX98Z88tELRZJl1Rpi6W/F82zxCMuFIZIVFvRbyvNKAxhxxDUyTJVhfccpTMwyEmLljpaleEcOs1JF0+aOAs0JG/yGXpa2hyvc2s0zpV0pvTEyXuPG8n1qn0T6dWVRuGQdXJEFrQJGBN0mwjcYhjFoMFnC/6wK3n///f3gCH7hmV6x+lmMTGpGZx3+ickztl1j2OeUJbDRsqsOA36EmL6/Su7yfWiQod+h3eKXjrZBn1B2FG0Zb7XiHfKK4fO6+ifpl4XY9hLLj6qHx9SN0oN8V7mg9Uj/H/oxqcIPWVWH/1Poq9IxoL9deUgajEV0wkHLj36ph5ewop8j1tUY2E6ezXQVJgIwsmp7gt/pj3EbgQ4E7x933HGQXBkwPhTLon0deWvoJq+3W7dVvKY6J2WI1Qvq6G6KEfoRejQT2mW6ksYbhvs4CimNw0IHEBAB4qTjcmL5djJYdsJgpanKViQns6hOrMBOZladWO9HxBPLpP+f72VpmpNlpk6Ehk9TBkoj4lb9I7PdTmaW3MEHH+ykM6+K5mJprkyg5AUsJcLdiRHGiYAridH8USt8wq9bxZWliE4GxL6cIij9pzJodtJBh8m0/N0qH01ABkBOBL0TRUYfVd7r0CaKgKMcYtn3+FYm3uJFO3XUimdSyiXKrpOOzYEbvC4zEy0o///XsXXy/1+096suZtJxOvFd5Nu58gW0y5ZFJyslookqy79dWYGcuvnmm52sEHFieHbSSTsxODvayMwzzxxNWxhxNOslhddCGsPfYgRxshLFyQzXiHZbB1sxtjnZquZEwXDiwN3LgjCv8Lfs03ayOsyJUcvJFlX/iv+RTfo/D+vQEeaT8juF/pR0OxG3ldxplQf1K1tonRh/PH+L4dTJQNZttNFGTgzRpZ/XzbOddhUj41P4PqVPKgWh5GGZLCKarApzsjLGyeouJ6s53QEHHFDydeMjZL84c3RygIGXO9SVrLhxtE2ZGGj8IPFJJ2RSKv+0yjO1XdM24V+wRz7LKrNEFKqjy6o3JwNjL//ol+gT5MROJ4Zbt+SSS1bqce3wVgyfV1Oc9ialvZByKj+m1A3lpp2IQdGJkdrF6vRpJR4ZO5a+qnatqdWVh/q9GLw8b8mKIScGGK/DwtOME9Bpy0K7eZalyTP4nD6Y/leDGAS8/qN6mj5v995NXu9U3TYrI3nE6jXN0il7J/5Snaz2d2LUcbK1vyzK0Dwzg8wYrmqZrXRnnnmmH8CLdX0Ml9SKNqgIyJYGJyvEnBwH78Sx16AWY2DpDgeOMhM9sOVoh3CUdZm5dLJCq6nxup087NvhQmCY25WsNnTiQ86JHxlvOBiumh/M0oYGGZkVH8xCGNWGgCEwcAiI3xjHxCwGn2Efp5pBZuDYN55gWZrnZzhky5OT5XjxH1pMQ2AUEGA2QvaOOtme4GRrzyjkaFkUEQB7OTHDMUsRO5tdTGMs/C8OMv0sDYNIjDMWDIF2EBjWdiXbtJ04RnWyFcHJlpZ2ILRvRxEB8UPn5JQdJ9sunPioG8WcLStDwBAYVgRka5gTX5t+hTIrpoY9mEFmjHMAgy05UcaJcysnx7w68XEwxktsxRsEBFieLn47/HYy8TPkl4kOAt1jiUaWJ7NliqXpdIrDPIBiW5k4lPMyUvZ9O9nbP5aq2soyiggMa7uSE4kcq+zkSFa//XEUIbes2kRA/Nk48bPkt46wQoZtqxYMAUPAEOgWAuIrzE8EinNnv12yW/kMUrpmkBmk2qpJK3uZ8SXDPkA6XguGQC8RgA8xEOJjQJzc9pKUoc1bTt1xchy8Y0abIE7LnZxw4OtEnDgOLS74rWBgwoqtYcZhaBmgzYIPc7vCqIkviDp+49qE3T6viYCcgOkHReJA3IkTbZ8Kvq+YxNt3331rpmqfGQKGgCFQjcBRRx3lxJGyH4/KqbvVEYfsjRlkhqjCn376aSenFgxRia2o/YgAzjRxaI3zawu9QQCnjciDYmCrBU5PhzlgMMShepVT9mHGxsreHAFrV83xsbf9hQDb2m+44YYGonBqalsIGmCxB4aAIdABBHDUbIaYRiDNINOIiT0xBAwBQ8AQMAQMAUPAEDAEDAFDwBAwBAwBQ6CrCJhBpqvwWuKGgCFgCBgChoAhYAgYAoaAIWAIGAKGgCFgCDQiYAaZRkzsiSFgCBgChoAhYAgYAoaAIWAIGAKGgCFgCBgCXUXADDJdhdcSNwQMAUPAEDAEDAFDwBAwBAwBQ8AQMAQMAUOgEQEzyDRiYk8MAUPAEDAEDAFDwBAwBAwBQ8AQMAQMAUPAEOgqAmaQ6Sq8lrghYAgYAoaAIWAIGAKGgCFgCBgChoAhYAgYAo0ImEGmERN7YggYAoaAIWAIGAKGgCFgCBgChoAhYAgYAoZAVxEwg0xX4bXEDQFDwBAwBAwBQ8AQMAQMAUPAEDAEDAFDwBBoRMAMMo2Y2BNDwBAwBAwBQ8AQMAQMAUPAEDAEDAFDwBAwBLqKgBlkugqvJW4IGAKGgCFgCBgChoAhYAgYAoaAIWAIGAKGQCMCZpBpxMSeGAKGgCFgCBgChoAhYAgYAoaAIWAIGAKGgCHQVQTMINNVeC1xQ8AQMAQMAUPAEDAEDAFDwBAwBAwBQ8AQMAQaETCDTCMm9sQQMAQMAUPAEDAEDAFDwBAwBAwBQ8AQMAQMga4iYAaZrsJriRsChoAhYAgYAoaAIWAIGAKGgCFgCBgChoAh0IiAGWQaMbEnhoAhYAgYAoaAIWAIGAKGgCFgCBgChoAhYAh0FYG+Mcjcf//97sYbb3Q33HBDfn/ggQe6WnhLvBqBddZZx22++eZuwoQJbv7553fzzTefm3HGGas/sDeGgCFgCBgChoAhYAgYAoaAIWAIGAKGgCEQjUBfGGQeeeQR9+CDD7qbb77ZX5MmTXJcPLfQGwTWWmstt8kmm7j1118/N8jMPPPMbsopp3RTTTVVb4iyXA0BQ8AQMAQMAUPAEDAEDAFDwBAwBAyBMYJAXxhkJk6c6CZPnuzuvvtud9ddd7nHH3/c///888+PEZgHrxirrLKKW2+99dyaa67pV8ewQmbOOed0GGW4xo0bN3iFMooNAUPAEDAEDAFDwBAwBAyBHiDw8MMPu4suushdeOGF7s4773SPPfaYe/LJJ92qq66aX6uttppDB59pppl6QKFlaQgYAr1AoC8MMltttZV79tln/YoYVsW89dZb7s0333Rvv/12LzCxPAWB5ZZbzq2++upu5ZVXzg0yGGXmmWceN++887opppjCcDIEDAFDwBAwBAwBQ8AQMAQMgQgEzCATAZJFMQSGEIG+MMisuOKK7uWXX3bPPPOMN8wstthijmuuueYawirpjyKzCma22WZzs8wyS74aZo455vD1Qt3wm/fmV6Y/6suoMAQMAUPAEDAEDAFDwBDoXwTwjXnOOef465577nHPPfece/HFF90iiyziFl54YX/nN9fcc8/tdW1Wp6Nzc80wwwz9WzijzBAwBGoj0BcGGYQNK2Jee+01f+G7hAtDjYXeIIBxTLeOPfTQQ46LjmD55Zd3K6ywgltqqaXckksu6f3L9IZCy9UQMAQMAUPAEDAEDAFDwBAYDAQwwpx22mnu1FNP9b4z33jjDT/+Qb9mgjO8L7room6ZZZZxSy+9tL/z2yaqB6OejUpDIBWBvjDIFP2R7Lrrro4Lh7IWeoPA7bffnp92pSdf4cyXfa7sb+XiN0YZC4aAIWAIDCIC7OX/y1/+4mWd0s/KP7ZncrqcyjtmLi0YAoaAIWAIGALtIMABJueee66/mPQkZFnmXn31VffKK6/4S38vtNBCbtlll/UuBPROvzT99NO76aabzt/5Pe2007ZDkn1rCBgCfYCAGWT6oBL6kQQzyLRfK3S8zHiwzNSCIWAI9AcC+CbDTxlXmUGGbZrMQuIvi9WAXCjG00wzjb/UfxYTCfrMTp7rj7o1KgwBQ8AQ6GcE2KJ02223+YutSgQMMuiL+Jfhzop0fmN0oS/Siy1M+HCkPwovJhAsDBYCTzzxhHfRQT1iVLNgCJhBxnigFAEzyJTC0vIhy0/32msv70Ef7/mEDTbYwF166aX+d7/+YcvgxRdf7DbddNOcRAaua6yxhp+xOfTQQ90OO+yQv7MfhsCgIsDs4wsvvOCvMoMMs40YUjnhAqMMFwrvAgss4FfN6GzklFNO6Z/xHCPOsARmdw866CBf3EmTJg20g3dWf06YMMGXZcEFF3Q33XSTm3rqqYelKq2choAhMMoIYHzhCg8tYXLgxhtv9PJH78gifGsSMP7rRX/ECUx6sYqTQziGKdx6661+VdASSyxRq9gYxThFFn8+hOOOO87ttNNODWm99NJLbu2113bo9UcccYTbeuutG+LUfbDxxht7nfv0009322+/fUMyo9U3bbfddn6VMAQcffTRbrfddmugxR7EI9AOb5pBJh7noYppBpl61b3vvvu6Y489dsTHu+++uzvhhBNGPOunf6666iq35557+tn+a6+9NicNJUFn/inTPvvsk7+zH4bAoCLw/PPPu8mTJ/tLDTIoPxpQfFkFwx2jC7+ZoVxppZX8pUeRMnDnGSfRsYx8WMLxxx/v9t57b19cDLlgNKhh2223dWeddZaXc5dccoltkx7UijS6xxwCjz76qPetott4QgNGpwqLDGd1Ahe+W1K3/7z++ut+wkoNJ3XpomysjMFAcO+99zr0by5On9Xykwe/WTWjDoDxLcNWJlwHaDmYHFAnwIMsm8uwBO/DDjvMGw7OPvtst+WWW5ZFa/lsm2228U6VNSKYXnHFFW78+PH6yN+ffvppjyX/nHzyyaVGmxEfRP5DXbJynvKgi7DyqRhGo2+65ZZbvA6DgXCzzTZz559//kBPsBQxHM3/O8GbZpAZzRoboLzMIFOvshZffHF33333eW/5Rx11lJ+5mHXWWf3/9VLs/lc777yzO+WUU/xqmKJBRgea3/3ud90ee+zRfWIsh7YRoHPVPejM7GjAaTrPuYY5oNSi6DJLdtlll/mLJeS6Jx9DJHFCnDDC4GCRi3gEjJW6r59VMvo97R1la6yumhkrBpk77rjDO6lnMHTMMcc4jOkWDAFDoD8QuP76670MfuqppxxX2Jd1ikKMMBgvMLgjs7mnyG22HCl97dBEn80gnYv0MM5wsa1F09c7OEA3F/oZ/s3Y9kI5uPiN818uttSOpYCxSlfFnHfeebUMMkceeaQ78MADPSwTJ050J554orv66qs9jui/rEDS0C2DzAUXXOBpxwB0zTXXaHb5fbT6ph133NE7l2bcct1117nZZ589p8F+pCHQCd78PwAAAP//yIlNfAAAJ5tJREFU7Z0HuPVE8cYXsWIFFbt82CuKHRVFsDcQLKigKNgRxYJio9kQG6AiCH6A0nwUe8EGiiigInbFAmKv2LvmP7/hP3HP+XJyktyc3HvOfed59ubc1M2bZHb2ndnZ9QqTtMyy3nrrjdTgCU94QqJsueWWI+v1z3AIfPe7303nnntu+spXvuKF35e85CXTbW9727T55pt74fcNb3jD4Sq1wq/Ep3TpS186/fvf/0677757OvTQQ1d4jS+u3uMf//h07LHHptvf/vbpS1/60lzUWZWcjMB///vf9Lvf/c7LX/7yl3LHP/7xj+m3v/1t+sMf/lCuW40/+D7/+c9/euF9P/vss9OFF16YrnrVq6aNNtoo/eMf/yjxC3zQfVe4whXS5S9/+bT++uv7apbXv/71vVzrWtfyYzl+0003TTe+8Y3TJptsEocv1PItb3lLesYznuH3BJaBx7zd5Lve9a70zne+M93iFrdIr371q+et+qqvEFhoBN72trelv//9795m/eY3v3G7qu8b3mCDDdLVrnY11/2x3HDDDRPrL3e5y42U6Kdg5/3rX//y8qtf/Sqdf/756Yc//GHqqyuV3zPtdRQwoPz1r38tYbjKVa4yUnfasOtd73rppje9abrZzW6WuJcrXelK3m5xEG3YPAtY3+AGN/Bb+OAHP5ge/OAHt7od2vbHPvax3vavWbMmHXLIIemb3/xm2nvvvf08973vfd12j5NiR4Epcswxx6THPe5xsWlJy2c+85npTW96U3rxi1+cXv7yl69zriHaJuzERz7ykY7F/vvv7327dSqiFY0RWOq7yYXWMyUiQqYx5KtnRxEy7Z41n9F//vOfdKlLXcoPhIyJTks05HHGv/3tb+k73/mOd/roDNCZq5L4NPPjaZC/+tWveifwRje6Ucq3VZ2DdT/4wQ/caKABotC5DOEau+yyS0nIfPGLX/RNcd6qOsSxLIe6l9///vfp+9//fmJJZ5eOcNQxr8+8/QZfOrUUGsiQWJcv41nEPuNL3j/2h2wI4y0nZMCO9RdddNH4oav2f75DdB24YJBTMIj5H0O4Ti5xiUuUx8SxLG95y1u6ccO3fdnLXtZL/s3VnXOlbYPE+/a3v+0kFYQthFQTQmbWeiG+hdABvPtf//rX05/+9Kd0m9vcxjsh07Dk+X7jG99IV7ziFf2ZXeYyl5l2iOt43pef/exnTuRc+9rXnnqMdhACQqA9Attuu623ZxAQlLx9bH+26iOw1yBfgoBhCYEBqXHd6153ZIm+R2hj0Ys4Ns4777yEzQSxHzqp+krN13L+uGeW6NL8f8igENqXqvpHewQxQ3sUJMZNbnKTOLTxkuvjtICgwvaC5KmTWel+8KXTG07gD3zgA07IRBsQ+Mf/P//5z91mvMtd7lLa5Xm9f/KTn/jzw4ly85vfPFXp/6aETNu2hOfwve99L51++unp7ne/e14t/93kfOP3u85JbEXdPrSZTdqyqnNgH7Xph7S9FvcSz5G2Fjvtdre7XYKAzIVv5ctf/rK3yzzDae9m23pEHabZF2BU927mda77LUKmDp1VvG3RCRlYaYiKpvKGN7xhHWWQH7vxxhunX//61/kq/43B/tOf/tR/X3DBBel5z3teeu973ztiXHAs9XnSk540cvyLXvSi9KpXvcpZ7D322CM98YlP9AYkdrryla+cDjzwwPSUpzwlVpVL6vL85z8/ffrTn04//vGPy/UYGbDhRKDRyN75zncut8UPGigaBJRQdCSPPPLItOuuu8Yuaah7ATtwOeWUU0Yww9Oz2267OT4YJfMqYdzRkYRICeF/jL4o/J8bYrFfvsRoY3/2hYjh//ycEA1h4OXHrebfGBYU8IJswLjNDeI6bGis2T+OC8MYw4DowVvf+tZu1PPN0emfhfStx6KOfPvPec5z0hFHHOEEFevRBQ996EPTne50p/TCF77QdwWrPEJmCL3AOx3G8xe+8IV01FFHpRNPPDH9+c9/9jrxXLbaaqv0jne8I13nOtfxdfmfj3zkIwkPJV7tEO7tAQ94gN/vNa95zVhdLul8PetZz0onnXRSiQcbr3GNa6TXvOY1vXlOywvqx6pGAE/+L37xi0SnEr3dVfgWcPhQZqWDutZt2nFBgLBfdAqnHdNle3S64lj0Ofp7vISei2fD88GG+tjHPual7zp2PV9+P4wyuP/975+22GILJ5+xm3DANRH0J3bfmWeeWdoRnJuoCnQeTrFcZq37H/jAB6aPfvSj+SX9N1Eu6HNs69e97nVpp512clv9zW9+s7832Mn77bef628wXbt2bXrJS17i31acDP1PdMxb3/pWJ+Fi/TRCpktbQrsDqUS9sD3CxuaaTc93xhlnlEQODpKnPe1pUeVySR+A/gdtNHYC0ThI27ZsKf2QrteCjH3qU5+a6PdAXCHoA5xCJ598suszRiEQ4RrtPt/ns5/9bO8TxbfqB9qfNvXoYl9MezejHtOWImSmIbRKty86IXPXu941Ycw3FYiBOm8owxRQgHlEAg07ihcmGe8tTD0dYoSG8epXv7oTG9Hwbr/99uk973lPWaVQhJwH7xCeB4ZEoZhyI21cIVMHOiQx/Ihr4fWBaQ4hgodG+p73vKd7v1HaCNeC4KChyAmZaPTYZ6h74T6oI9dD8FrR6eXdDMG7gJdhXgXlj2FH4fmG/PKXv/R1sWQ7hmCdEPnCfoRRI/Fe5cdUrcu3r7bf4JFjEsZsvm4aJnEM+/EbryTGPJEaYdTTcZ+F9K3Hoo577bVXOuigg/xfvMiQSj/60Y9GSFE25oTMUHohN5gYFka9EHQchGQIdYZ0R2eGvOxlL0sHHHCA/4seXWMRgxhrENAInuVPfepTabPNNvP/+YPn6173utfIdSBtODc6EoE0hrySCIGlInDCCSf4d0VEI2UaEV93PfQRZAzvK9/H1ltvXbf7itpG52vWgj3Gt0+JCBwiQdDhRDHglccGQc9GxzknZBjuEsNew9kxrZ1e6j2hj2M4Fc4X6s57UiUQMhDN3ANOLfZtoqcguB/zmMd428g7hJ7FfkT3IkTKQNTgvEOG0P077LCDE19hQ3Nd7FUcjDgPgpBh/bjwTe24445OnEM0hXBfkC7giPCNfPjDHy7JjjpCpktbwjUiwnTc3m9zPuwTngFtEO8mBM24YONDaCBEuTKErUtb1rUfspRrMUyMZ8L7xncX/RPuBYcQfbH3ve99/Ov9ofh2+f+www5zMoffSNt6dLEvpr2bF9dk+l8RMtMxWpV7LDoh84pXvMJz4zR9uIxnnhYOh1IIZpbxoTFkiQbkDne4gytFPLtE2xDVQocAogdG/7TTTvOqkMtl55139t+hCPmHhgdShDGsXOfd7363/6ZDgPFASB+CooatxWtDw/3a177Wx8RyLRpQvBtEzNBJobNPCOCkHDJVhMyQ94LCfdjDHub3hREREUQYBmAbCpk8R3R8V5qcc8453pDQqGMI5YRL1JWGhk4kncIwdtgW6/LlNMMcAovz4DHAYIO84h0YFwwstrFP1fbx/VfD/7zrYVBHJ5v7jnX5s5mGB50fyENIWowlCuTApKGJ085Xt30WeowoEIxX5OEPf3h6+9vf7t51vPXoj8997nNllYKQGVIv5AYTFbnf/e7nRi5h+eg2dGTo0zDE2Q89gR5Gf0KOY5gz7BMhahHPMd8bnZjPfvazvp4/6CB0DYYhHlg8c+hTCFCOIXQe+eQnP5m22WYb/60/QqArAugO2nHeU3RRG3J4/JpByESEDLkp5kWe/OQnz7yqOJ6wdRl6FJ0+bDSeAQVSiG/63ve+dyUhQ+4xIh4otPGU6NzPqvK025HvDPuRul9g0ddVkhMy5IHk2KqI6vzYz3zmMx4tgp6l8ws5Q1uGviPXFtExCBHY/B5S99O5juFX4zlkckIG+5aIEAgXdDnRMtwHkeEIbfLxxx/v2/nOjj76aNfr2GgQFzhROcckQqZrW8K1iTKl7ocffniKd7zL+Yh6eelLX8op/f3jGeVyxzve0clC2rpwPndpy7r0Q6jHUq9FX4oIrUc84hGe44/nSwRRyHbbbecRTTi7Tj31VB++Fu9ipF7oUo+u9kXduxl1nrYUITMNoVW6fdEJmVk8VhR7FSEDeYJSQWjQXvCCF4xcnmgX2G7GtKJc6PhgSOWKkKFJeK1zoWENbwdGAJEwEQ7Jfiiw8HLHcXRCIjEZHS0aqDaEzJD3gudjn332cUwhGiClQjBAUMg0uHSQ7nOf+8SmFbPk2fBsMZgoVblbeGcwBCFb+B3C/3lhn3x77Jcv8/NgsFFyzGJf3tHYjoEmSU6GhUEd5AsdoVgXYbFNsIpx/XgPMeQx6DGWhvD4NqnftH3wpkLe8m2Rtyk8wxzHd8h6lgjvHO/TkHohN5ggv2ir8GyGoD8jmvG5z32uk9JsQ0dAmhAFg2eboaK5YLA/+tGP9lUf+tCH0oMe9CD3PMYYfzyYhL7nQoeZSCjOB9mTG4L5fvotBJoiwPfHewXBTgeDb6yrQBzyjUSETB4d0PWcQx0Xts0sr0dU8zghg75DR9BGkgesLkImoltZohMhdGnzcXRwHvBvIrQ14XxBv8XxtM84TyCJon1nX7ZTIISwLegMhrAvw2HQiQxJJwqaSB+kSRuEfch7wnU5b64nqcOtbnUrx4whS0QnDqn76zq9OSGDowL7ORfqjZ4mMh07GXs5F5yoDH1CIup8EiHTpS3hvDxb3ivsCbCLYV9dzofzYY1FeGIXEvXJMKwQHLQMnUaC+MmHObVpy7r0Q/q41itf+coy2TL3Qdsddj5DkXnveUdDILfCcc5zQ7rUo6t9UfduRh2nLUXITENolW4XIdP+waMYqwgZcg8Q3UIDQFRKrkTiKkTNEHaJhKLOFWHVkKn8GM5Lw8mQJ7zaSNUxNOaEZOJlwDuMF6ANITPkvVDPyKJPPg7wYTw0xuU8yL777usGNZ4pCsbfuEC8hXGVG2+xLl/m28fPw/+8e+yPQRaESxUhw3lie9W7WHXuRV9HmHmQLxGJFIQMXlQIzyDIWI/wveNRo9OEET6+HWxzQuYhD3nIioeRe8KQpzM4bhBF5fkO0T1IEDJD6oXcYJo0VIjIPzpIjK3HuEbQv9wXY9MJax4XOsHcO88TIpjvF0I7iHA6XVVDz8jzha6mA8b7kBNY49fQ/0JgGgJ0lmJYDO06uqWrRIQMbSY5ZMYJxa7nHeI4knXOWvjW0fvoeHQfQjsaRAidd6IbiZaJ9jeeTU7G8JvvnvYXQj4IEf5vIugeyAIKdUEPUSCWuTbPLwgb3omIymF4MvXPhyxhB5LIFwKCJSUS4TaJ0sTWItn5JN36rW99y+tIJAnXGlL313V6c0IGQoLI8RAw4lnSduPoi8iS2M6S9hu8wR9HJQ7LSYRMl7aEaxDJwbBBsGMYUUjX8xEd+vGPf3wkSp5zEh1E+817jIOC97FrW9alH9LHtaJPExjRdvNN8J3G84ltLPOIobDRutSD82NDI5O+gSr7ou7d9JM1+CNCpgFIq3GXRSdkPv/5z1dGLEx61nSs4iOdtA8fchUhQ3gkIYN4UumYVwl5C7gGgoKFCQ5FCGmCUYZxlQvh+IzzRVC6NNo0NCgmjC8a8CbShpAZ8l4wlu5xj3t4FvX8PvD2QNQQIcMU7CtV6NBxD3WEDEYcjSUlN95oeGJ9/M63V90z5AvHsD9kAI1x1TG8R3Xbq8696OsgFuhMUzCOQ3h+rMMYoINPYV+E/fBS4aXEeAiDOY4H//CuYtRPCxWPa7ZZ9q3HSKAXM3FA7jLOfVwwVCPBdxAyQ+qFnJDJkxXm9cQYx4MG5iRqZJhjJPjl3a8iVjgeowpBrx533HEeUo7XDRkPCfeV9ofOGO8IwjWJdpQIASGwmAiMEzLYXkHWRr4ebDFK0wkH0KMkrGWo+QUW/Yt+4njIFOxGOvBBAJGvhX3JCZPbeGEf4mjDcUUhmpHz4IAhApsoXQiXScK9QQ5QH4ZnhpNw0v6sH1L313V6g5DBBqfdxm4OwaaGvEAYnortWCUM8WJILvdEdEUVIdO1LeF6RMczzIvks+HUWMr58qhOojOJ0oSMWGORM9glTPFN4lskIkj43aYt69IPWeq1+G6iTaW+IdhU9IWwrXGa5ILTG3KQ7yDI1S714JuJvl5T+4J61L2beT1rf9vDW3axCuJyLIuxX4WN+1v2eq3mChjDXNjHXpgCKSz7eGFMeGHscWH5SQpjXwsLUywsnH1uIbKOUvm+5e/epN8WbTL1Xq0jVp7Twh/L/U1J+npLDFmuG//xta99rTzWwkV989577+3rjNkf393/N0KmPMaMAl9nOR58nUXAVB5TtdJCVP0YC2cd2WyNcnl+U3a+bch74YIW2lnY7FKFdaLKuuTPaJdddilMcY/Ue6X8Y97IwmajKSypnn87Ro4U48VIlMK8V8Xd7na3wgi5sliHsDBjqLChasUxxxxTmPFVnHbaabWFd8iIgZVy+wtVDyNkCkugV5iRVtjMZYURqIUZz4UNQSxsmEvBd2Gkiz9f3k8zCgozHgr0zNOf/vSCd2EW0rce457i+7IQ4coq2zjuch90BDKkXrBOQ3l9yw1QWUcjZHwfI2R8uxFX5TFxf3VLM8z9ONq+uv3Gt/FeSISAEFhcBKxDWBhpUtiwzgJbjTbeHESFRdIVlgOwMOdbYZ2zVnaJkcxub2O/WT68wsiUAtsGW9sI5cJIhMKi+gqLniqw17DVrNPqxYbGFtaJLGxopbdF5pTzcxlxU2C3YkMhRx99dGEe/9oHY9Evpb7jXprIkLrfIoPK+lkelpHq2fBU32ak2Mh6/rEhqOVxliNnne2xwhwQvh82GWKRNeVx2GFI17aEYy1ZvJ+PdjZkKefD9rXcln5OI3n8lNiJ0S7lbXjXtqxLP2Sp17IhgwHPyJJ3nnuz6J+R9fxz8MEH+zZsr5Au9ehiX3C9uncz6jNt6TW3G1xWCWY3KkE4EgW2UrI8CCx6hAzRKESlNJWq4T/jx06KkCGag+E3dREyOYNP4ioy4wczTahlzJyTXzNnxyNCJsJHiZLAm99E2kTIDHkved1hxa2h8aReeIfIbRESyeXi/5Wy5DkSBotnivenKg8J3hyeFSWPZuF/opxiG8tpQyHw/MdxKwWDRakHHrfwUDL0jMI3SUQJURE8Y4Y14bHkORKtRBJwI9rKpL4k2+5b+tZjuZeHBKCR+yqvdx6ZhyeVd3hIvZBHyJCs0QivvHr+G48ybVhEyOT3teeee5Z5tNY58P9X4CXG0xy6Ec8c0UjThGM4ViIEhMBiIpBHyJCMlaSxJMIl11Tka2kbIYNOI5KBqDyGC8Xx2ADoHqI9ov1hSA3tDO0N24l+YagNUR0UdFDYDRyH3UAxQsGjPupy8xBBEzMnvf71r0/oymkypO7P9fikpL5EQtIe58JMWCS5ReoiZCLah2TGZ511VmWETF6HNm0JNjrPiegPIm94rkjX8/nB9ocJLhiWS1QV0TZEhRx11FGen4Zoq+hfd23LuvRDZnUtMKMvUDWcOiJkwMWID4enSz34ZiJCpql9wcXy5zj+bnplmvyZxtgMsd3qWTJ6/FaEzBCo119j0SNkuHsjUBqXerQu3jopQgbmmvfaDPUCT3uV2FjH8huwRt536cJME8kS35M14FWXcq+9ha169AU7tImQGfJeYJzxglR5nfEqBFtuYb2V97ncK63DXvAMLCdQYZ3DwsaHr1PwSFmH3tl1vG5RbChMQdSTdfwLM5IKM7783eH9mVTwlhgBtNy3vZDXzyNk8JTxbeJNM8PNo5/MUPDoGLwzNr64sGErxVZbbVVYyGthhl3BuzAr6VuP4XFFh1hIcGWVLVy41DERITOkXujiwaKeZmh5vS2vTOV9gePJJ5/sEVAREcnzC306KfqMbxsPts2qVlA3iRAQAouLANEstM1GnBRGoBSWk6qw5L8efULEDJEp1jFupQs4J8faDDwe7UKEH5EyRMJQ+G25ZDxSmChbG5pcEAliw7eLbbfdtjBioDACvcBuWKqE/ue+qgRdR12IIuQ+h9T9dVEIESFjhMw61bYcO6UenxStSuSTkVu+H5giVREyXduStWvX+rlt6NRI/bqeL05iQ5XKeyMiJiJmiJTKpWtb1qUfMqtrhc1fFyFDex3SpR5d7AuuV/duRn2mLf9X82l7znB7GDyxFCEzQ7Abnno1EDINoWi82yRChkY73m1LALnO+ehI04iwD40s50G6KMLTTz+9vJYx2+tcy6bzK7db9nXfzvfGtS0r+8j+NBRR7xiyNOS9EILL9eng0qCOC8N82E64rkQI9IUApBYEDEQYBi66kDD0CBsnNN2mdCws4s2HmzGck2GFNm67sESKhSXtKxhyxnBPOvjmreuraoOcJ8J8uacId48Lo6vQUaEX0BHIkHqhq8Fk0396vRn+CEk6LgwJiPvCuEcsGq9cZ57I8UMcH4aHcpx51ZxAXWcnrRACQmBhEEDn4SCBZKczDEFPm7DWOtxnn322Dxtme+jGJjdOm8MwFov29RQBlhuvsBl4XNeiby1iprCoFyf9LSqmwAnFsCabFahgeDxDmnH4WFR0k8vV7mOzAro+w4EIITEutH3oO1IYQGIPqfvR26GjTzrppJGq1REy7IiThGMZDmMRRiPH8k/uzLSIE99eRciwoUtb8qhHPcqvb5FHfu78T5fz5cfjYOXeYqgujiGGWOfStS3r0g+Z1bXaEjJd6tHVvqh7N/PnUPdbhEwdOqt4mwiZ9g9/EiHDehpYFCZGO8o+SBc8seSWiUaGcZAhXRQhx9JQx7UsIaU3mjT4NmzKPTlso7ENjy8dDdah7DAKiNpAqgiZIe8ljxraeeed3eCgXjSmjG8OzKo6SuwnEQJdEICE4LvEA8o3w/cKuQlxST4gm0q0sMS3hYUIu9HMbwwqDC4Mc0vW52P4bYidR0ZhnM+TYMTYMCT/vtBNoScszLqwqaDL747vLzodQ+qFrgYTuQNCZ9ChsWTb/ljwjBKJh05ku82mMmLMQrDFenI44M1G8IhZ0sTynLwfEiEgBFYPAjiKsJXR9TZrjpP4Xe4ePWrDaoojjzyy2H333T2nHPnlQl/RwaagmyBnsPEg/MkjGPZal+tWHYPzgWtxbZxi4VCwJLGlk5BtkEfIkLqfiOHAhNxt5M1jHTKNkMGhEsfa0KSSlIdUgkwjypXtNuSrJKImETJt2xIwisijqufV9nx+w9kfSJ64N5Y2dC7b+r+fXdqyrv2QWVyrLSHDnbetR1f7ou7d/N8TqP81NzlkGDPJ2EnGOEpmjwBjMMnTQY4EUyBeuCrjU5lCz0I0vZDNO8bckTeBMa1m2M6+givwCqbYK2dZoqrmOfGs9/H+ghFTBp5vs3rYJ+p3Y+F1Pl1d3FqXsZscawaCj2UmxwXCzDuMIbbGxf/nT54fwjwsyTwt5TZ+cCxjiSNvCeMzY5+h7sWiFDwHh0X1lHUzb5Hn7zADxtfx/yc+8QmfjaDcST+EQAUCfJ98a7HkN1OZkgPFDFCfNckMJx/fzVhsCjNaUNCDfBNGTpRTPZMrhvePceHoRGavoDCGnfHcjO2fVzn00EPTHnvs4dUHH4tC81kb+O64byN4fRv/sx0ZSi+Qb6HLGG/qGDm2+I3wrMi1led3sshBH4d/8R7Jpyc1o85zOLDOjEJ/vuYRi11c/5BLAp0pEQJCYHUgYBGDns+F/gm2L7lbyOXWVmiTyHlFPjLsHfJVMTMnuo7zYVvTnlh0h0/DbZEQPhueRdH4/+Sc6VNyPUnbyHWYtSdsVRtG5bMRoQuRoXQ/1yKnIn3BEHKIkesjZllCp4/nkIl9d9ppJ8/TE//TfyGfC88PYfYh8gEx1ThSNcuSb7A/OUasq2tLyEdjThvHMW834lws25wvP47fRgb49aNdtgTOnv9sfD+m2m7blnXth8ziWm1zyHD/beuxFPti0rs5/hwm/T83hIyFXyUSaEEOSGaPgHl1nfyiEw9pQHIoXlTmXydZJQY6yozpXFlHQSGxjm2rUWhU6SjQSSFxGnPY50IHj8bDPNCOJdsgs8zjnoztT5bbIN/dp3Xbf//9vcNHUthxseEQaYcddvDVkdQ39kFBcz6SS/HcQkh2+cY3vrGcApD1KHGmeeV83ANiQ598yt4qQobtQ90L98VUgccff/zIdMQYKOa9T0xJ27cxwv1JFgsBiBYIPjreLKNAilIwLCFbKBhMtDcU3j/edb4ndCIFo5tjeO8gYijoPIgZCgQoxjnv6DyLRaglG2JZOkEgr/jmSBpo0UBO1po3yUmtuM8h9AL6lefFM52UdM9ms3AiLZL6Rv1Yvv/97/fpXC3CJV/tZBr6tmpKVAxzDGamAqcTFoK+32233ZJFzvg7Eeu1FAJCYPERQAehj7ChIKqxl4KgbnP32F2QCDZE1vWW5QLxSScgQCBhaG8gYSg2RNIJA2xv2hl0YRAjba45bV8bEpQs6sQnJIh9uT/sSsvD4v2AWM9yCN3PdZiMY8cddyxJGRtilcArCBn6IPRZJgnJjSEZqG8IWNK2HXDAASP9lzpChmObtiXgta9N1UyfoC6pctPzRb3zpeW084TFOHtJAD3J/mjbllkuudS1H9L3tZoQMvSpsEtyaVOPpdgXk97NvC51v1cEIYMiyz2XFvrrsyyRtZz1FBhYZi2x0MC6+9G2nhGgweHjxjtMJyYEJhAvMIXGgiWdfZhzS0Dmu0VnPo7R8mIEaLzxhqAkbMrATh6VplhyLSJmmCWGRgfSbJJQH54zzxLSrYkMdS90grgP6kfn14aJjHQEm9RV+6xeBCAlIVXGi+VN8kg/SJaIBGSWC6JiWHIchfccXUjBWxgRgkTE0Pnnu4pIQQzyKPOOON8duspC85MlkHQyqsk9DaUXmtRl0j7cE88c+4JODgQb3uA6oeMEUQdpB/mGRxUjUSIEhIAQ6IoAegU7m0K7Y0PHvUCCY4/RvmBXUywXSjkLE32nWQs2Fw5Z2jcIoWn6bgjdD14Q6vQxsGu79DW4L/Q/xxP5vxSZ1pbwTMHQcsy503rataadb9rxTbYP2ZYNea26ex+iHkt5N1cEIYOBC6MVXssgZLbYYotyHeF7RBaIkKl73frfxstFOB+e4TzSAhYWdj4vKBtINKaOQyLsr/9a6YxCQAgIgeYIMFUinejxQkecCBf0WUTFxBIvGxEQFIxQdB3EDcdA5FAiQmaehyc1R1F7CgEhIASEgBAQAkJACPSNwIogZBhbFzli8GAGIcO88YwVZN0ZZ5zhhMypp57aNwY63xQECOHCMww5E4IHGFaaEr/xFNsMHT5Gkf0YiiMRAkJACCw3ApD9jCWOQrQVvxleBMmC949cInimaItYQkLHEE28lERDUNZYSDQFRwLHU2YRMr7cmOn6QkAICAEhIASEgBAQArNHYEUQMnvuuaeP7WfIBMUyiCebzcLD42LdOeec43ktbJq52aOiK3iIPhExRC6Rd4ECKUPHhYJHmZKHLzJkacsttywjZGLokuAUAkJACCwnAugvkiXarAyei4z2hMJwFYShKoSHUyCZCQWnMIyFAgFDBKDNzuPh4wzTZGy/RAgIASEgBISAEBACQkAILAWBFUHIkJCJcYeMV6cQBk5YOGHgsY7xd4z3Y7YLyewRoAODlxhCDOwJ9ecZ4Q3Ga4x3mFwedExCGOdKbgWIGQSvskQICAEhsNwIkEOJWeMoNr2oR1ySuDoIGUiYIJkhWoKIYRal+B1LdCD7Tkqat9z3qusLASEgBISAEBACQkAIzA8CK4KQaQIX0wWT8Cqf7qzJcdqnGwLMrsSMI8zuw+xW5557rieGhWShY8LwJCJgIM9C6KiwLSdpYpuWQkAICIHlQoBIP3QZMyuQIJ6p0k855ZSSkCFPDHqLQtLEiIYJEoYk1/kQzYimWa770XWFgBAQAkJACAgBISAEFgOBuSFk8HAytp/IDcnsESDnAjkUIGYgZCjgH4ktmV1knJBh+BL5GNhHIgSEgBBYKQiQBwtSn8KwJXKRUSJpLzoromGI/otcMZFDZoMNNlgpt6J6CAEhIASEgBAQAkJACCwQAnNDyJC/JJLLLhD+K/ZWwJoCMRMRMiRXDi8xhMzmm28+EiET+RfYRyIEhIAQWCkIkJCcKBnyYjHs9ayzzvIShEsMU4KUYV0Qz+TLgrSRTlspT1L1EAJCQAgIASEgBITAYiEwN4TMYsE+P3dDB+a8887zTgze5RBy/BDaT94YiRAQAkJgXhAgHxZDMCkxBDOGJrHUjEnz8iRVTyEgBISAEBACQkAIzD8CImTm/xnO9A6ITIqZrkiwHEJOhY022kjDkwIQLYWAEBACQkAICAEhIASEgBAQAkJACLRAQIRMC7C0qxAQAkJACAgBISAEhIAQEAJCQAgIASEgBPpAQIRMHyjqHEJACAgBISAEhIAQEAJCQAgIASEgBISAEGiBgAiZFmBpVyEgBISAEBACQkAICAEhIASEgBAQAkJACPSBgAiZPlDUOYSAEBACQkAICAEhIASEgBAQAkJACAgBIdACAREyLcDSrkJACAgBISAEhIAQEAJCQAgIASEgBISAEOgDAREyfaCocwgBISAEhIAQEAJCQAgIASEgBISAEBACQqAFAiJkWoClXYWAEBACQkAICAEhIASEgBAQAkJACAgBIdAHAiJk+kBR5xACQkAICAEhIASEgBAQAkJACAgBISAEhEALBETItABLuwoBISAEhIAQEAJCQAgIASEgBISAEBACQqAPBETI9IGiziEEhIAQEAJCQAgIASEgBISAEBACQkAICIEWCIiQaQGWdhUCQkAICAEhIASEgBAQAkJACAgBISAEhEAfCIiQ6QNFnUMICAEhIASEgBAQAkJACAgBISAEhIAQEAItEBAh0wIs7SoEhIAQEAJCQAgIASEgBISAEBACQkAICIE+EBAh0weKOocQEAJCQAgIASEgBISAEBACQkAICAEhIARaICBCpgVY2lUICAEhIASEgBAQAkJACAgBISAEhIAQEAJ9ICBCpg8UdQ4hIASEgBAQAkJACAgBISAEhIAQEAJCQAi0QECETAuwtKsQEAJCQAgIASEgBISAEBACQkAICAEhIAT6QECETB8o6hxCQAgIASEgBISAEBACQkAICAEhIASEgBBogYAImRZgaVchIASEgBAQAkJACAgBISAEhIAQEAJCQAj0gYAImT5Q1DmEgBAQAkJACAgBISAEhIAQEAJCQAgIASHQAgERMi3A0q5CQAgIASEgBISAEBACQkAICAEhIASEgBDoAwERMn2gqHMIASEgBISAEBACQkAICAEhIASEgBAQAkKgBQIiZFqApV2FgBAQAkJACAgBISAEhIAQEAJCQAgIASHQBwIiZPpAUecQAkJACAgBISAEhIAQEAJCQAgIASEgBIRACwREyLQAS7sKASEgBISAEBACQkAICAEhIASEgBAQAkKgDwREyPSBos4hBISAEBACQkAICAEhIASEgBAQAkJACAiBFgj8H5UqEjnglejhAAAAAElFTkSuQmCC;" vertex="1" parent="1">
          <mxGeometry x="20" y="20" width="524" height="47.55" as="geometry" />
        </mxCell>
        <mxCell id="BGHJ9ARHNfo6qZJL71BD-10" value="" style="shape=image;verticalLabelPosition=bottom;labelBackgroundColor=default;verticalAlign=top;aspect=fixed;imageAspect=0;image=data:image/png,iVBORw0KGgoAAAANSUhEUgAABPIAAAKgCAYAAAARaFPzAAAKqmlDQ1BJQ0MgUHJvZmlsZQAASImVlwdUU+kSgP97bzoJLSECUkJvgnQCSAmhBRCQDjZCEiAQQgwEBbuyuIIriogIKoKuCii4KkXWiii2RcEC1gVZVJR1sWBD5V3gENx957133uTMmS9z55+Z/z/3P2cuABRlrkQigpUBSBNnSsP8vBgxsXEM/CCAAAH9IQDH5WVIWKGhQQCVKft3eX8XjUblluV4rn9//l9FhS/I4AEAhaKcwM/gpaF8AtUXPIk0EwBkL+o3WJopGec2lGlStEGUe8Y5aZKHxjlhgjFgIiYijI0yDQACmcuVJgFAZqB+RhYvCc1D9kTZWswXilGWoOyelpbOR/koyqZoDOojj+dnJnyXJ+lvORPkObncJDlP7mVCCN7CDImIm/1/Hsf/ljSRbKqGMarkZKl/GGpV0TPrSU0PlLM4IThkioX8ifgJTpb5R04xL4MdN8V8rnegfK0oOGiKE4W+HHmeTE7EFAsyfMKnWJoeJq+VKGWzppgrna4rS42U+5MFHHn+nOSI6CnOEkYFT3FGanjgdAxb7pfKwuT9C8R+XtN1feV7T8v4br9CjnxtZnKEv3zv3On+BWLWdM6MGHlvfIG3z3RMpDxekuklryURhcrjBSI/uT8jK1y+NhN9IafXhsrPMIUbEDrFgA3SgQhVKWCAIPSfNwCZgmWZ4xthp0uypcKk5EwGC71hAgZHzLOaxbC1tnUAYPy+Tr4Ob+kT9xCiX532rdcDwC17bGzs1LQv8CYAx08DQLo/7TMZAEDxKgCXd/Bk0qxJ38RdwgISUAI0oAF0gAEwBZbAFjgCV+AJfEAACAERIBYsAjyQDNLQzpeCFWAtyAMFYAvYDspABdgHDoEj4BhoAqfAeXAJXAM3wR3wAPSCAfASDIP3YBSCIDxEgaiQBqQLGUEWkC3EhNwhHygICoNioXgoCRJDMmgFtB4qgIqgMqgSqoZ+gU5C56ErUCd0D+qDBqE30GcYgckwDdaGjeHZMBNmwYFwBLwQToKXwDlwLrwZLoWr4MNwI3wevgbfgXvhl/AIAhAFhI7oIZYIE2EjIUgckohIkVVIPlKCVCF1SAvSjtxCepEh5BMGh6FiGBhLjCvGHxOJ4WGWYFZhNmHKMIcwjZg2zC1MH2YY8w1LwWphLbAuWA42BpuEXYrNw5ZgD2AbsBexd7AD2Pc4HI6OM8E54fxxsbgU3HLcJtxuXD3uHK4T148bwePxGngLvBs+BM/FZ+Lz8Dvxh/Fn8V34AfxHggJBl2BL8CXEEcSEdYQSQg3hDKGL8IwwSlQmGhFdiCFEPjGbWEjcT2wh3iAOEEdJKiQTkhspgpRCWksqJdWRLpIekt4qKCjoKzgrzFMQKqxRKFU4qnBZoU/hE1mVbE5mkxeQZeTN5IPkc+R75LcUCsWY4kmJo2RSNlOqKRcojykfFamKVoocRb7iasVyxUbFLsVXSkQlIyWW0iKlHKUSpeNKN5SGlInKxspsZa7yKuVy5ZPK3cojKlQVG5UQlTSVTSo1KldUnqviVY1VfVT5qrmq+1QvqPZTEaoBlU3lUddT91MvUgdoOJoJjUNLoRXQjtA6aMNqqmr2alFqy9TK1U6r9dIRujGdQxfRC+nH6Hfpn2doz2DNEMzYOKNuRteMD+oz1T3VBer56vXqd9Q/azA0fDRSNbZqNGk80sRommvO01yquUfzoubQTNpM15m8mfkzj828rwVrmWuFaS3X2qd1XWtEW0fbT1uivVP7gvaQDl3HUydFp1jnjM6gLlXXXVeoW6x7VvcFQ43BYogYpYw2xrCelp6/nkyvUq9Db1TfRD9Sf51+vf4jA5IB0yDRoNig1WDYUNdwruEKw1rD+0ZEI6ZRstEOo3ajD8YmxtHGG4ybjJ+bqJtwTHJMak0emlJMPUyXmFaZ3jbDmTHNUs12m900h80dzJPNy81vWMAWjhZCi90WnbOws5xniWdVzeq2JFuyLLMsay37rOhWQVbrrJqsXs02nB03e+vs9tnfrB2sRdb7rR/YqNoE2KyzabF5Y2tuy7Mtt71tR7HztVtt12z32t7CXmC/x77Hgeow12GDQ6vDV0cnR6ljneOgk6FTvNMup24mjRnK3MS87Ix19nJe7XzK+ZOLo0umyzGXv1wtXVNda1yfzzGZI5izf06/m74b163Srded4R7vvte910PPg+tR5fHE08CT73nA8xnLjJXCOsx65WXtJfVq8PrAdmGvZJ/zRrz9vPO9O3xUfSJ9ynwe++r7JvnW+g77Ofgt9zvnj/UP9N/q383R5vA41ZzhAKeAlQFtgeTA8MCywCdB5kHSoJa58NyAudvmPgw2ChYHN4WAEE7ItpBHoSahS0J/nYebFzqvfN7TMJuwFWHt4dTwxeE14e8jvCIKIx5EmkbKIlujlKIWRFVHfYj2ji6K7o2ZHbMy5lqsZqwwtjkOHxcVdyBuZL7P/O3zBxY4LMhbcHehycJlC68s0lwkWnR6sdJi7uLj8dj46Pia+C/cEG4VdySBk7ArYZjH5u3gveR78ov5gwI3QZHgWaJbYlHi8yS3pG1Jg8keySXJQ0K2sEz4OsU/pSLlQ2pI6sHUMVG0qD6NkBafdlKsKk4Vt6XrpC9L75RYSPIkvUtclmxfMiwNlB7IgDIWZjRn0tDB6LrMVPaDrC/LPas86+PSqKXHl6ksEy+7nm2evTH7WY5vzs/LMct5y1tX6K1Yu6JvJWtl5SpoVcKq1tUGq3NXD6zxW3NoLWlt6trf1lmvK1r3bn30+pZc7dw1uf0/+P1Qm6eYJ83r3uC6oeJHzI/CHzs22m3cufFbPj//aoF1QUnBl028TVd/svmp9KexzYmbOwodC/dswW0Rb7m71WProSKVopyi/m1ztzUWM4rzi99tX7z9Sol9ScUO0g7Zjt7SoNLmnYY7t+z8UpZcdqfcq7x+l9aujbs+7Obv7trjuaeuQruioOLzXuHenkq/ysYq46qSfbh9Wfue7o/a3/4z8+fqA5oHCg58PSg+2Hso7FBbtVN1dY1WTWEtXCurHTy84PDNI95Hmuss6yrr6fUFR8FR2dEXv8T/cvdY4LHW48zjdSeMTuxqoDbkN0KN2Y3DTclNvc2xzZ0nA062tri2NPxq9evBU3qnyk+rnS48QzqTe2bsbM7ZkXOSc0Pnk873ty5ufXAh5sLttnltHRcDL16+5HvpQjur/exlt8unrrhcOXmVebXpmuO1xusO1xt+c/itocOxo/GG043mm843WzrndJ7p8ug6f8v71qXbnNvX7gTf6bwbebene0F3bw+/5/k90b3X97Pujz5Y8xD7MP+R8qOSx1qPq343+72+17H3dJ933/Un4U8e9PP6X/6R8ceXgdynlKclz3SfVT+3fX5q0Hfw5ov5LwZeSl6ODuX9qfLnrlemr0785fnX9eGY4YHX0tdjbza91Xh78J39u9aR0JHH79Pej37I/6jx8dAn5qf2z9Gfn40u/YL/UvrV7GvLt8BvD8fSxsYkXCl3YhRAUIUTEwF4cxAASiwAVHSGIM2fnKcnBJr8Bpgg8J94cuaeEEcA6lAzPhaxzwFwFFXjNWhu1I6PRBGeALazk+vU7Dsxp48LDv1i2Tvh76KLKsE/ZHKG/67vf1owntUe/NP+C8vGB7vj6QsfAAAAimVYSWZNTQAqAAAACAAEARoABQAAAAEAAAA+ARsABQAAAAEAAABGASgAAwAAAAEAAgAAh2kABAAAAAEAAABOAAAAAAAAAJAAAAABAAAAkAAAAAEAA5KGAAcAAAASAAAAeKACAAQAAAABAAAE8qADAAQAAAABAAACoAAAAABBU0NJSQAAAFNjcmVlbnNob3RX7qgoAAAACXBIWXMAABYlAAAWJQFJUiTwAAAB12lUWHRYTUw6Y29tLmFkb2JlLnhtcAAAAAAAPHg6eG1wbWV0YSB4bWxuczp4PSJhZG9iZTpuczptZXRhLyIgeDp4bXB0az0iWE1QIENvcmUgNi4wLjAiPgogICA8cmRmOlJERiB4bWxuczpyZGY9Imh0dHA6Ly93d3cudzMub3JnLzE5OTkvMDIvMjItcmRmLXN5bnRheC1ucyMiPgogICAgICA8cmRmOkRlc2NyaXB0aW9uIHJkZjphYm91dD0iIgogICAgICAgICAgICB4bWxuczpleGlmPSJodHRwOi8vbnMuYWRvYmUuY29tL2V4aWYvMS4wLyI+CiAgICAgICAgIDxleGlmOlBpeGVsWURpbWVuc2lvbj42NzI8L2V4aWY6UGl4ZWxZRGltZW5zaW9uPgogICAgICAgICA8ZXhpZjpQaXhlbFhEaW1lbnNpb24+MTI2NjwvZXhpZjpQaXhlbFhEaW1lbnNpb24+CiAgICAgICAgIDxleGlmOlVzZXJDb21tZW50PlNjcmVlbnNob3Q8L2V4aWY6VXNlckNvbW1lbnQ+CiAgICAgIDwvcmRmOkRlc2NyaXB0aW9uPgogICA8L3JkZjpSREY+CjwveDp4bXBtZXRhPgqL6b/eAAAAHGlET1QAAAACAAAAAAAAAVAAAAAoAAABUAAAAVAAAJn1ncP8mwAAQABJREFUeAHsnQncVdP6x5+IBtFgSipTiYxFlDlTMmQqkhQRKeFeMnOva57iZlbmKbNUZAj3L0oJRSgqGSqpVIpI9n89y9377r3fM+zzvue8Z599vuvzeTv7rL32Wuv5Pvuc3v17n/WsGo4pQoEABCAAAQhAAAIQgAAEIAABCEAAAhCAAARiTaAGQl6s/cPkIAABCEAAAhCAAAQgAAEIQAACEIAABCBgCSDkcSNAAAIQgAAEIAABCEAAAhCAAAQgAAEIQKAECCDklYCTmCIEIAABCEAAAhCAAAQgAAEIQAACEIAABBDyuAcgAAEIQAACEIAABCAAAQhAAAIQgAAEIFACBBDySsBJTBECEIAABCAAAQhAAAIQgAAEIAABCEAAAgh53AMQgAAEIAABCEAAAhCAAAQgAAEIQAACECgBAgh5JeAkpggBCEAAAhCAAAQgAAEIQAACEIAABCAAAYQ87gEIQAACEIAABCAAAQhAAAIQgAAEIAABCJQAAYS8EnASU4QABCAAAQhAAAIQgAAEIAABCEAAAhCAAEIe9wAEIAABCEAAAhCAAAQgAAEIQAACEIAABEqAAEJeCTiJKUIAAhCAAAQgAAEIQAACEIAABCAAAQhAACGPewACEIAABCAAAQhAAAIQgAAEIAABCEAAAiVAACGvBJzEFCEAAQhAAAIQgAAEIAABCEAAAhCAAAQggJDHPQABCEAAAhCAAAQgAAEIQAACEIAABCAAgRIggJBXAk5iihCAAAQgAAEIQAACEIAABCAAAQhAAAIQQMjjHoAABCAAAQhAAAIQgAAEIAABCEAAAhCAQAkQKLiQN2/ePPnyyy9l/vz50qxZM9lmm22kYcOG1Y7mk08+kU8//VRq1qwpXbp0kVq1alX7HAo14MKFC+Xzzz/P2n2NGjVk7bXXljp16shGG20kG264oayxxhpZr/M3UH9+9dVXXtXee+/tHXMAgaQSWLBggUyfPt0zb9ttt5UNNtjAe88BBCAAAQhAAAIQgAAEIAABCECgOggURMhT4e7iiy+WV199VZYvX17BDhWRjj32WLnmmmuqRdRbunSpbL/99vLdd9/ZuUybNk1at25dYV6lWvHss89Kt27dcp5+3bp1RYW4E044wfqjXr16Wfs49NBD5ZVXXrHtVBj8888/s15DAwiUOoGHH35YTj75ZM+Mp59+ulKfOa8DDvJK4M0337T97b///nnttxidJcmWYvBjTAhAAAIQgAAEIAABCCSdQF6FPBV1Bg0aJLfffrusWrUqKzuNCLvlllvkpJNOytq2sg0cx5EePXrI8OHDvS4Q8jwU3kHTpk3l3nvvFRXqMpWDDjpI3njjDdsEIS8TKc4liQBCXjy9OXfuXDnvvPPs9/u5554rt956azwnGmFWSbIlgrk0gQAEIAABCEAAAhCAAAQqSSCvQp5G2F122WUVpqLLOXUZmi6vTRXB9fLLL0vnzp0rXFfVChXx+vXrJ/fdd1+gK4S8AI7AG30Q1gfidAUhLx0Z6pNMACEvft5V4UtTNfz88892cqUs5CXJlvjdKcwIAhCAAAQgAAEIQAACySKQNyHv3XfflX333VdWr17tEerQoYP8+9//ljZt2tjcdL/++quMHDlS/va3v4k+uLilcePGojns8plzSvPGnXXWWfLUU0+5w3ivSRfylPuAAQM8e92DlStX2ofen376ST766CMZN26c6LG/aJTdY489ZqMY/fXusQquY8eOtW/XXXddWbRokXuKVwgklgBCXvxcqykctt56a29ipSzkJckWzyEcQAACEIAABCAAAQhAAAIFIZA3Ie+AAw4QN7ePzlSXsz766KMpN1NYvHixFfe++eYbz6hLLrnE5szzKqpwoOLdwIED5ccff0zZS9KFvO7du8uTTz6Z0nZ/pUayaATlHXfcEYiU1AjKGTNmyGabbeZvzjEEypYAQl78XJ8k8StJtsTvTmFGEIAABCAAAQhAAAIQSBaBvAh5v//+uzRo0EA04k7L+uuvL1988UXGCLvXX39dDj74YI9mp06dZMyYMd77yhxolF///v1lxIgRGS9HyAvieeSRR6R3796BylNOOUUeeOCBQB1vIFCuBBDy4uf5JIlfSbIlfncKM4IABCAAAQhAAAIQgECyCORFyHvnnXdkn3328cj06tVL9ME3U9EluOutt5788ssvtplufLFgwYJMl2Q8p/n3tt12W1myZEmgnYqK+qMRZm5ByHNJ/O/173//eyBR/JprrmmZbbnllv9rVMUj9fns2bNl1qxZov3Xr19ftttuO6lTp06lel6xYoXtTzdW0R13W7ZsWal+whfpTssTJkwQvSdbtWoltWvXDjcJvM+3XW7nek8rr2XLlskmm2wiW2yxhehy5lRFxfSvvvpKvv/+e8tV5618q1KKNb7yVGFDI3ZbtGhh7dYl34Uu6veZM2fKDz/8YHe5btKkiTdkVYS8Ytmjk9c8oerHOXPm2PuoefPmlmetWrU823I50D/WTJ8+3X5X6z2Wr6hdZT516lTRTXe03zXWWCPrtPIhfhXTN34Dq2pLXOzw28QxBCAAAQhAAAIQgAAEIFAgAuZBr8rlwQcfdExEnmOmaH+uv/76SH2a3HjeNebBzTGCTKTrUjUyIobXlzuPjh07OkbYcExOvsA5I+Sl6qJk65555pmAfWZpbc62GBHDMSJRoB+z8UWFfi666CLHCGb2x+SnqnA+XPHKK684xx57rGMEO8cs2Q30r36qWbOm07ZtW8fkUnSMSBC+POV77XO//fbz+tJ7R/syORadww8/3Jk8ebK9To/dud54440V+jI5FL3zZmm3Y/IFOkcffbRjRA6v73XWWcfeP0uXLg1cny+7evbs6c3hggsusGNo3ybPoTcH937WeZkdnp3vvvvOm4sR+Ryza6fTqFGjCu3V9tGjR3ttUx0Ue3x3Tur7Sy+91Nltt90cI+wGbDGCv7P33ns799xzj9s8r6/KyOT3DIypzI1w6px88snOvHnznIceeihw/umnn844h2LaoxMzArBz8cUXO/7vWPc+0s/Lzjvv7Dz33HMZbXBPmlQIztlnn+0YUd9xP2tuX0Ysdvbaay9nyJAhjtnIyL2kwqv/PjN/NLDnx48f75x44omWs9ufvupnbo899nCeffbZCv1oxf33328/M0ZEDPhE/w9yP+/63Z+uVNU3+v3ijuO+Pv744+mGs/WDBw8OXGP+6OSY1A9VsqWqdmScMCchAAEIQAACEIAABCAAgdgS0IiNvBUTIeWYyAJHH/yyFRN9F3gI23777bNdkvG8X8hr1qyZc9dddzkmSsFeg5CXEZ13sk+fPgGfqBAWLgceeKDXxkRJhU9777/++msrqvkf0LMdq7ig90W6okKvifb0xk/XnwpBw4cPdxo2bOi1dUUyf98qGrl9qGCTSjzT8yZ60DFRTfbSfNvlFyTVNhP5Zcdz55Xq1URVWaHGREY5KqamauOv+8c//uE3O3Bc7PF1MmbjFSv0+uec7vjQQw/1fBEwpBJvot5PynvQoEEBzpmEvGLZ4yJQUalu3bqB+abjueeeezomV6Z7aYVX/R41Ec2R+lIx1ETbVuhDK/z3mcmf6owaNaqCYJtqjiq2//bbb4E+zaYWWeejImyqkg/f6P8rJgI9MAcV0t3viPC4H3zwgbPWWmsF2psd3m2zytqSDzvC8+Q9BCAAAQhAAAIQgAAEIFAaBPIq5OVi8lVXXRV4sDE52XK5vEJbFfI233xzG7UTfvBDyKuAK2XFW2+9FfCJRuiFo2yiCHlmmWeFKBv3IV0FBo2wct+HX9VX6YpGy4Xb63uN6lNRMdU5ty6bkOe2S/V6yCGH2CkVwi6/wKFjZ7PDnZ9GHJllpxltdtuqiGCWlqfEWuzxNeoqVaSmzt0sl05pn1nynFYwSmlkmsqjjjoqZf96P7ns0r2mE/KKaY+aecstt6Sdu0bPpbLnsMMOc/74448KlO6+++6U7bUPf9Sqv0/12fvvv1+hL/99pkJ7FMZuv9ddd12gv8qKX/n0jQr6YZ4aeRwuGukcFtvNxlDeH5kqY0s+7QjPl/cQgAAEIAABCEAAAhCAQPwJFEXIM5tS2OVT7oOavt53330Fo4WQFw2tLiH0+0SPw9GVUYS8J554ItCPLpXTpa0mD5Y3EZPL0NElwdtss02grQoBusQ1XMwuvIF2OreDDjrIigYq3Gp/I0eOTCsg5iLkqVCk4sZGG21kx9SxtRTCLr/A4WffrVs3x+z67Jg8cXapsEai+c/7jzViTKOwVMw2ecYs67A41rdv3zBS+76Y4+uy4PDST5OXzlGRzL3vdBmx2XSlgmiiom5Vio7hZ6jHnTt3diZNmmSX+C9cuNDOY+ONN67QTtumEvKKaY+yMBsMVRDYNt10U+f555+3yzi1zaJFixxdHh8W0nRprL/ovaSfWz8j/UPJCy+8YKNmVeDXiFAV2cLRZhpZGxYG091n+n1iNjlyvv32W8v+hhtuCETS6vi6hNbfny5J1chvs2FSYH4aVav1+qNCm78UwjePPfZYYHydq36n+Yt+7vwM9TtFv2fdkqsthbDDnQuvEIAABCAAAQhAAAIQgEBpEKh2Ic9sbmFzKvkfbkyCc0frC1UQ8qKR1YflcA6scCRXFCFv9913Dzy8vvTSS2knoA+mKjb47wddducvKtTpPeJvozm73KXT/rYqAKUSDaIKeRdeeKEnGmj/mg9r5cqVdoh826WdpprrGWec4TfJHqtw0rp16wAD5aHLg5VhuGgeMT8vzTGXqhRzfPWJf47KN5WIq/NW0Ujzkfnbjx07NpVJWev0PldxyN/XgAEDUt5PKqRqfkd/Wz1OJeQVyx7XYBWf/fPUZbMqFKUqmv/S33aXXXbxmul9r3nv/OfNruJpfWM2hnHCgqfmvPSXVPdZqryVeo1GBoeF6FS+1u8m/xw1ui1dKZRvNB+pfw7KQcVSLSqg+s9ptK3mv0xVotpSKDtSzYk6CEAAAhCAAAQgAAEIQCCeBKpVyNMH6C5dugQebvRBJ2rS9coiRMiLTs6NQnMfQN97773AxdmEPBW+3Gv1VQWBbEU3OfBfoxsL+Murr74aOK8iTHj5tL+9RhOFo4T0AThc/DnydHzddCPdhiuFsEvnExY42rdvn9a28LJJFQZURElX/L7USLdUpVjjm11UA2KNLrdUsS5TUTHHf5/4xadM14XPvfvuu4F+lFOmPyS88cYbgfY6h7CQV0x71D6NSPXf83pvTJkyJWx64L3mJfXzdPm/9tprgXpdDu+PIgt08t83YeFYl8/rZgxuCd9n6rtUQrzbvn///oE5DB061D3lvUYVvwrpGxWeNSern+Opp55qeenmO/56zbOYrkSxpZB2pJsX9RCAAAQgAAEIQAACEIBA/AhUm5CnAonuuOl/sNFj3XGz0AUhLzphTRLv99F//vOfwMXZhDzd8ESFkkceecTRTRZSRdIEOjRvwiJAeJl1+KFe22cr/fr1C9gRRci7884703ZbCLt0sLDAocv10pURI0YEbGrTpk26prZed/50famRlqlKscZ/6qmnvLnpHE877bRU06tQt9NOO3nX6SYkmrcw16I7FLtc9DWcgy1Vf+FozLCQV0x7dL7hpeddu3ZNZUagbtiwYXY5sUayaT48d+l7OFpPl+JmK/pHGt2J1c9Vl3m7JXyfucvV3fPhV930xd/XbbfdFm5i8z7626SLyCu0b958881AbksVUXW5u39u+keDTPdqFCGv0HZUAEwFBCAAAQhAAAIQgAAEIBBLAtUi5OnSP12a5X+w0eOePXtmjMrIFzGEvOgkwztUzp49O3BxNiEv0DjDGxXGNJrs+uuvd9q1axe4N1RU8BeN3vHfO5pPK1sZPXp04JooQp5GIlW15GKXjhUWODS/V7oyfvz4gE3ZxBrNIehyU3EhVSnW+FdffbU3N52jikoaoZXtRwU/1yZ9daPIUtmWrs7PRfvQHUCzlcGDBwfGDQt5xbRH5x7eVTeK2J3O5tNPPz1g64cffpiuaaD+sssuC1znzxcXvs80F2Gmovku/X5OtQw3ivilY1SHb84///zAfP1z1+jEmTNnZjI3kihZHXZknCQnIQABCEAAAhCAAAQgAIFYECi4kPf99987mvzc/2CjxyeeeKKXi6zQJBDyohHWPGz+JPh6rJE2/pKrkKfClua80oiaM88809HrdSmaCkvhe8J9Hxby/Dn0dPlgpiV57lynTZsW6D+KkDdr1iz38qyv+bBLBwkLHEuXLk07tu4G6jLSVxUPMhXdvMFtH1XIq67xe/fu7c3NnWNlXsP5FDPxcM/tuOOOgbHT5ZFz2+urilL++YWFvGLao/MLj68bQVS27LPPPgFb0+UtDPevm5L4GenO5G4J3+cLFixwT6V8DS9n1k0wwiWqkBdm459jLseZ7jVd6u+PFvX3O3z48PDUK7yPYkt12FFhYlRAAAIQgAAEIAABCEAAArEjUFAh79NPP62wxEgfcM4666xIYky+aCHkRSMZFr+22mqrChdGFfJ0mZ5G6DRq1CjwcO9/wE13HBby/OKiRgxGKcuXLw+Mm03IU4EwLFqmGiefdmn/foFDxTYVU9OVsJCnfDOVXIW86hzfv+w33X0QpV6XgeZa/Dvl6qYKUYpGj/rnExbyimmPzv+QQw4JzE93sK1s0V2bXVt159qoRZeYutfpqwpPbvHf5/p5zlbyKeRVl280ytBvvx6ruBelRBHyqsuOKPOlDQQgAAEIQAACEIAABCBQPAIFE/I0N1r9+vUDDzYqFKRaIlVo8xHyohHW5Y3+B1EV7cIlipCnSdn9UXT+Pv3HtWvXdjT6JxwBFBbyNNm+e50mkI9SFi5c6F2j12YT8vRezVbybZeO5xc4solKhRbyqnP8HXbYIeAf17+5vupyw1yLX6jS8aKUzz//PDDfsJBXTHt0/gcffHBgfrrhS2VLgwYNvL70Mxq1hDcj0U0f3JLLfa7X5FPIqy7fDBw40OPmv48zRfK5fKIIedVlhzsnXiEAAQhAAAIQgAAEIACBeBKI9hSb49x1owP/Dor6UFOrVi2bkD3HrvLSHCEvGsYjjjgi8CB6xhlnVLgwm5Cny/DCSe/V/yoOaISYCmqayP6DDz7wkr+HBcSwkBdeCplph1F3wprXy/8wXVUhrxB26VxzETiSJOQdeeSRAf/ozsS6tDnXH92tNdcS3q1VRd9sJSxShYW8Ytqjc9fPqv9+f/vtt7OZlPZ8OCflzz//nLat/0R4ae3FF1/snc7lPteL8inkVYdvxowZkzZdgO6K7G4k4gEJHUQR8qrDjtC0eAsBCEAAAhCAAAQgAAEIxJBA3oW8hx56qMIDjS6HfOedd4pmPkJedvS6yYLubOoXA1588cUKF2YT8sIP87qzqC5/1F2L05WbbropMG5499hjjz02cF6jo7KVF154IXBNVYW8QtilNuQicCRJyAtvDqA7clZXCW92MXny5KxDP/jgg4H7KSzkFdMenXz4M5Rp92PXWM0NeO211zr33nuvozn15s6da0917949YOsnn3ziXpLxVXep9n9/6AYhbsnlPtdr8inkFdo3KgRvsskmAdv9HPRY/0iSqUQR8gptR6b5cQ4CEIAABCAAAQhAAAIQiA+BvAp5mhBehRv/Q0zLli2dTDtxVgcKhLzMlDUvWzjHlkaR/P777xUuzCbk9erVK+D/KEsfe/ToEbjm9ttvD4yrkT3+e+qiiy4KnE/15qijjgpcU1UhrxB26bxzETiSJOTdd999Af9o3swoRXdjPfnkkx0VjVRci7KDcbjfsCCSaiOF8DX9+vULzDcs5BXTHp1rWLju379/2IQK7zVy2v+5uvTSS22byy+/PFCvImGUEt592v+HgFzucx0rn0JeoX1zzDHHBHgpB81R6E8JoJxVME1Xogh5hbYj3dyohwAEIAABCEAAAhCAAATiRSBvQt706dMdTYzufzDURN/ZlhRVBw6EvPSUf/31V+ecc84J+E19mC6XYTYhL7ysVsWnTEXvm/XWWy8wvj+SR6+dOnVqIFqwXr16TqadRlMlna+qkFcIu9S2XASOJAl548ePD/hc8/Nl26BBdzoNf8e8++67ijGnEh5b8y5mWj6qYqGmBvB/t4WFvHCf1WmPGq+fI//8NLfdvHnzMnLp2rVr4Br3s6q2+ftSPsuWLcvYl4p2/mvUT/4l8Lnc5zpQFCFv5syZgTHTicGF9I0Ky3679T7RTYO06PeY/5wyUcEuVYliSyHtSDUn6iAAAQhAAAIQgAAEIACBeBLIi5CnEV277rpr4KGlWbNmGcWWqDj0AXXKlCneT6ZdPdP1iZBXkYzu0Prss886W2yxRcBv+uC5zTbbOL/99lvFi0xNNiGvY8eOgf40H166Mnv2bKdp06aB9jr+NddcU+GSE044IdBur7328pYC+hvrvdKiRYtAW+2zqkJeoezKReBIkpCnPgtv0KCbnqQT1PR+DecI01xulSn6HbLlllsG7pEBAwak3DFYxw0vNdX7KSzkFdMel0FYmNMo0nQ7MY8cOTJgv25O43636jXhvJSnnXZa2uXxKnS2atUq0N9xxx3nTsu+5nKf6wVRhDwVKtUX7o/an64U4l5T8U3/qOCOr6+6VNktq1evdsI7zWq0Xqo0A1FtKYQd7nx5hQAEIAABCEAAAhCAAARKg0BehLznn38+8DCjDzQ777yzc/rpp+f0s2LFigrUwg+UqR6gK1wUqig3IW/jjTdOyb13796OLgPbc889K0Q2uQ+jKuzp7qzpSjYh77zzzgvcC5ofMVXU1Lhx4yqIKe4cBg0aVGF4FXTDy7bVTl1iqaKELuv++9//7tSpUycwvttnVYW8QtmVi8CRNCFPI/DCm+KowPbWW285KoK4RdsdfvjhFfwaJQ+c20f4dfTo0RX669KlSyCK7ZtvvnHCAq57P6X6HiqmPWqfCuMaiefOUV/3339/W+/ar1w1B2U4Cja8vPg///lPoB/ta++99w5ETerS+5deeskJ7wKskWf6efWXXO5zvS6KkKdRgn5b9fvhX//6l53TK6+84h/ezjuf95qKnR06dAiMryJdWDjVeyLsE126HC5RbSn2PRaeN+8hAAEIQAACEIAABCAAgeonkBchLxwl4H+4yuV48eLFFQiEhTzN65RrKTchLxfm/rYqoqh4kalkE/I0MX74wVXH2G233RyNqjv66KMdzZvoHzd83KlTp5RTUN+HlziGr0333r+Dptu5zsltX79+fbc65Wuh7MpF4EiakKegL7nkEs8Hri/0VSOdNMpX75XwJix6XnPWVbVorj3/mO6xfg4222yzlOfcNqmEvGLbo+OH89u589XNGJo0aVJBwNPzKmC60Xh+pj179kzJQJfaatqEVJ9z7U83PAqXXO5zvTaKkKftNJLQtdH/qqLeypUrtYlX8nmvqWDoH0+/lz799FNvLP+BiqT+tjq39957z9/EHke1JZ92VJgEFRCAAAQgAAEIQAACEIBA7AnkRchr3Lhx4EHF/9CSyzFCXuXuF41Gy4VzuO26667r9O3bN+VS1fCMsgl52v6uu+6KPB99eH377bed1q1be9fUrFkzbW5FzROVbYdIjTjUJb1+O6+77rqwKVZcdNtkE/IKZVcuAkcShTzlqnnGwhFirl9SvZ500kmBiL0Kjo1YodFpuilEqjH8dSrShMWYdEJeMe1xzdbPX3ijBb89/mONsluyZIl7aeBVo8t0qajm+/Nfk+64QYMGdtONQCf/fZPLfa6XRBXybrnllrRz09ya4ZKPe00/h/od5efgX1IbHlM5+v9ooNepWBxeRp6LLfmwIzxP3kMAAhCAAAQgAAEIQAACpUGgykKeRj2EH2r8DzhRj3XZU5SltfmIyEuXcLw0XFZxlrqMLCpnXeqqUY6dO3d2NO/VAw884Cxfvrxip2lq/EKeCoDpyv/93/9VyJvozlEjrDTS6vrrr/fGPvfccwM2PPnkk+m6toKjLg885ZRTnB122MHef9qfRhDdfffddrfdUaNGBfrT+nDxP1xHEfL0+nzb5V8yqoJJphIW8pRfpqI+dpmn81Wxx3fnr5GgGq2pfnDnHH7VZaLKP99FUwOEc3zq2DVq1HC2224757XXXrNLM/3zySTk6fyKaY+Or99x+llNt9Rcc1M+8cQT2jRr0WhUFeLS9aURerr0PNOS/FzuM53QhAkTAveBft7TFd0ZW7/X/P7RY/VrqlJV3+y+++6BsfTeCS+pDY+r0XphQfSKK64IN3NysaWqdlQYnAoIQAACEIAABCAAAQhAoCQI1NBZmoceCgTyTkBvLfNwLyYpvMyaNUvMkjLZfvvt7Y+JGMr7eP4Ohw0bJibK0KsyooWYpb3e+6ocFNOuqsy7VK797rvvxAgf8tVXX4kRaMREL9kfk4utoCaY/GNiBDAxAokdz+RAk4YNG1Z5zGLZoxM3S2blyy+/FBOdJmbXXzEbwYjZgVnMZkRihMqcbNO+1CdG2JO5c+eKWaorZgmymD8MiBGpcuor3411bjqvn376SRo1aiTNmzcXEyGYdZhi+ibd5CpjSxztSGcf9RCAAAQgAAEIQAACEIBA1Qgg5FWNH1dXAwGzE60MHDhQTNSdbL311mJ2EbUCQqahzUYrMnToUK+J2XBDzA6S3nsOIAABCEAAAhCAAAQgAAEIQAACEIBAqRFAyCs1j5XhfD/88EPZZZddPMvNDrRicpZ578MHP/zwg42o+uWXX+wps6xUTP5FMUvAw015DwEIQAACEIAABCAAAQhAAAIQgAAESoYAQl7JuKp8J2ryMIrZxVTM5gQWwjrrrCNvvfWWtGvXrgIUXT54yCGHyEcffeSdO+qoo+SFF17w3nMAAQhAAAIQgAAEIAABCEAAAhCAAARKkQBCXil6rQznbDZukDFjxniWmw0zxGyOIPvuu69svPHGsmjRIivePf744+JG4mljzcWnEX2tWrXyruUAAhCAAAQgAAEIQAACEIAABCAAAQiUIgGEvFL0WhnOWYU6szukfP3115Gt1wT8Dz74oPTo0SPyNTSEAAQgAAEIQAACEIAABCAAAQhAAAJxJYCQF1fPMK8KBHRHUc2P99JLL0m2zZZbt24tjzzySCC3XoUOqYAABCAAAQhAAAIQgAAEIAABCEAAAiVEACGvhJzFVP8iMG3aNHniiSdk1qxZNkJv/vz50rBhQ2nSpIm0aNHC7mrbvn17cEEAAhCAAAQgAAEIQAACEIAABCAAgUQRQMhLlDsxBgIQgAAEIAABCEAAAhCAAAQgAAEIQCCpBBDykupZ7IIABCAAAQhAAAIQgAAEIAABCEAAAhBIFAGEvES5E2MgAAEIQAACEIAABCAAAQhAAAIQgAAEkkoAIS+pnsUuCEAAAhCAAAQgAAEIQAACEIAABCAAgUQRQMhLlDsxBgIQgAAEIAABCEAAAhCAAAQgAAEIQCCpBBDykupZ7IIABCAAAQhAAAIQgAAEIAABCEAAAhBIFAGEvES5E2MgAAEIQAACEIAABCAAAQhAAAIQgAAEkkoAIS+pnsUuCEAAAhCAAAQgAAEIQAACEIAABCAAgUQRQMhLlDsxBgIQgAAEIAABCEAAAhCAAAQgAAEIQCCpBBDykupZ7IIABCAAAQhAAAIQgAAEIAABCEAAAhBIFAGEvES5E2MgAAEIQAACEIAABCAAAQhAAAIQgAAEkkoAIS+pnsUuCEAAAhCAAAQgAAEIQAACEIAABCAAgUQRQMhLlDsxBgIQgAAEIAABCEAAAhCAAAQgAAEIQCCpBBDykupZ7IIABCAAAQhAAAIQgAAEIAABCEAAAhBIFAGEvES5E2MgAAEIQAACEIAABCAAAQhAAAIQgAAEkkoAIS+pnsUuCEAAAhCAAAQgAAEIQAACEIAABCAAgUQRQMhLlDsxBgIQgAAEIAABCEAAAhCAAAQgAAEIQCCpBBDykupZ7IIABCAAAQhAAAIQgAAEIAABCEAAAhBIFAGEvES5E2MgAAEIQAACEIAABCAAAQhAAAIQgAAEkkoAIS+pnsUuCEAAAhCAAAQgAAEIQAACEIAABCAAgUQRQMhLlDsxBgIQgAAEIAABCEAAAhCAAAQgAAEIQCCpBBDykupZ7IIABCAAAQhAAAIQgAAEIAABCEAAAhBIFAGEvES5E2MgAAEIQAACEIAABCAAAQhAAAIQgAAEkkoAIS+pnsUuCEAAAhCAAAQgAAEIQAACEIAABCAAgUQRQMhLlDsxBgIQgAAEIAABCEAAAhCAAAQgAAEIQCCpBBDykupZ7IIABCAAAQhAAAIQgAAEIAABCEAAAhBIFAGEvES5E2MgAAEIQAACEIAABCAAAQhAAAIQgAAEkkoAIS+pnsUuCEAAAhCAAAQgAAEIQAACEIAABCAAgUQRQMhLlDsxBgIQgAAEIAABCEAAAhCAAAQgAAEIQCCpBBDykupZ7IIABCAAAQhAAAIQgAAEIAABCEAAAhBIFAGEvES5E2MgAAEIQAACEIAABCAAAQhAAAIQgAAEkkoAIS+pnsUuCEAAAhCAAAQgAAEIQAACEIAABCAAgUQRQMhLlDsxBgIQgAAEIAABCEAAAhCAAAQgAAEIQCCpBBDykupZ7IIABCAAAQhAAAIQgAAEIAABCEAAAhBIFAGEvES5E2MgAAEIQAACEIAABCAAAQhAAAIQgAAEkkoAIS+pnsUuCEAAAhCAAAQgAAEIQAACEIAABCAAgUQRQMhLlDsxBgIQgAAEIAABCEAAAhCAAAQgAAEIQCCpBBDykupZ7IIABCAAAQhAAAIQgAAEIAABCEAAAhBIFAGEvES5E2MgAAEIQAACEIAABCAAAQhAAAIQgAAEkkoAIS+pnsUuCEAAAhCAAAQgAAEIQAACEIAABCAAgUQRQMhLlDsxBgIQgAAEIAABCEAAAhCAAAQgAAEIQCCpBBDykupZ7IIABCAAAQhAAAIQgAAEIAABCEAAAhBIFAGEvES5E2MgAAEIQAACEIAABCAAAQhAAAIQgAAEkkoAIS+pnsUuCEAAAhCAAAQgAAEIQAACEIAABCAAgUQRQMhLlDsxBgIQgAAEIAABCEAAAhCAAAQgAAEIQCCpBBDykupZ7IIABCAAAQhAAAIQgAAEIAABCEAAAhBIFAGEvES5E2MgAAEIQAACEIAABCAAAQhAAAIQgAAEkkoAIS+pnsUuCEAAAhCAAAQgAAEIQAACEIAABCAAgUQRQMhLlDsxBgIQgAAEIAABCEAAAhCAAAQgAAEIQCCpBBDykupZ7IIABCAAAQhAAAIQgAAEIAABCEAAAhBIFAGEvES5E2MgAAEIQAACEIAABCAAAQhAAAIQgAAEkkoAIS+pnsUuCEAAAhCAAAQgAAEIQAACEIAABCAAgUQRQMhLlDsxBgIQgAAEIAABCEAAAhCAAAQgAAEIQCCpBBDykupZ7IIABCAAAQhAAAIQgAAEIAABCEAAAhBIFAGEvES5E2MgAAEIQAACEIAABCAAAQhAAAIQgAAEkkoAIS+pnsUuCEAAAhCAAAQgAAEIQAACEIAABCAAgUQRQMhLlDsxBgIQgAAEIAABCEAAAhCAAAQgAAEIQCCpBBDykupZ7IIABCAAAQhAAAIQgAAEIAABCEAAAhBIFAGEvES5E2MgAAEIQAACEIAABCAAAQhAAAIQgAAEkkoAIS+pnsUuCEAAAhCAAAQgAAEIQAACEIAABCAAgUQRQMhLlDsxBgIQgAAEIAABCEAAAhCAAAQgAAEIQCCpBBDykupZ7IIABCAAAQhAAAIQgAAEIAABCEAAAhBIFAGEvES5E2MgAAEIQAACEIAABCAAAQhAAAIQgAAEkkoAIS+pnsUuCEAAAhCAAAQgAAEIQAACEIAABCAAgUQRQMhLlDsxBgIQgAAEIAABCEAAAhCAAAQgAAEIQCCpBBDykupZ7IIABCAAAQhAAAIQgAAEIAABCEAAAhBIFAGEvES5E2MgAAEIQAACEIAABCAAAQhAAAIQgAAEkkoAIS+pnsUuCEAAAhCAAAQgAAEIQAACEIAABCAAgUQRQMhLlDsxBgIQgAAEIAABCEAAAhCAAAQgAAEIQCCpBBDykupZ7IIABCAAAQhAAAIQgAAEIAABCEAAAhBIFAGEvES5E2MgAAEIQAACEIAABCAAAQhAAAIQgAAEkkoAIS+pnsUuCEAAAhCAAAQgAAEIQAACEIAABCAAgUQRQMhLlDsxBgIQgAAEIAABCEAAAhCAAAQgAAEIQCCpBBDykupZ7IIABCAAAQhAAAIQgAAEIAABCEAAAhBIFAGEvES5E2MgAAEIQAACEIAABCAAAQhAAAIQgAAEkkoAIS+pnsUuCEAAAhCAAAQgAAEIQAACEIAABCAAgUQRQMhLlDsxBgIQgAAEIAABCOSPwNy5c+WBBx6QKVOmyIwZM6R58+ay0047yVFHHSW77rpr/gYqck+XX365fP/999bWIk+F4SEAAQhAAAIQgEBGAgh5GfFwEgIQgAAEIAABCJQngddff1169OghCxcutADWXHNNWb16tT1ea621ZMiQIdKvX79EwNlqq61k1qxZ4jhOIuzBCAhAAAIQgAAEkksAIS+5vsUyCEAAAhCAAAQgUGkCrVq1slF4Z511lmjE2oYbbigffvihjB49Wv75z39a0Wvy5MnStm3bSo8RlwvvuOMO+fnnn+Xiiy+Oy5SYBwQgAAEIQAACEEhJACEvJRYqIQABCEAAAhCAQPkS+PLLL2XrrbeWTTfd1Eaqrb322gEYRx99tLz44otW4PvXv/4VOJfLG42A0+W7Ok62oktf119/faldu3baphoxuGjRItloo43StsnlxK+//ioLFiyQpk2bikYkZipR5pfp+vA5jYSsX7++aPQjBQIQgAAEIAABCHgEzC9QFAhAAAIQgAAEIAABCHgEzDJTXWPq1KtXz/npp5+8evfgs88+c2644QbnlVdesVUmj57TqFEjx0S2uU3s6yeffGLre/fu7dXvvPPOTvv27Z3rr7/entNxmjRp4px++unOihUrvHZ6YKLknDPOOMNp0KCBnY8R05x27do5H3zwgddu+PDhtp/Bgwc7G2+8sW1nogSdI444wtaPGzfOa+se7LnnnvbcV199Zat0PkYkdE87U6dOdXbbbTenRo0atj8jZDp6jdrjL1Hmp+1NdKNj8gv6L7XHJ510kp2H8tSi895vv/0cEwVpxzZCnnPffffZc/wDAQhAAAIQgAAElAAReZ6kyQEEIAABCEAAAhCAgEtAN7UwgpYYkU1OPfVU6dSpk+y+++5Ss2ZNt4n3evfdd0v//v3l5ptvlvPOO8+r100yjHAnxxxzjDz33HO2fosttpCvv/7aHuumGXvttZc8++yzMmHCBDnhhBPkiSeesOc0us6IaXY5rxEJ7Tkj9Mmjjz4qa6yxhrz33nt2w41hw4ZJ37597TUavaZRey1atJATTzxRzjzzTDFCoNxzzz32vP5jxDjZcccdxQiCMnHiRFvvz5G3atUq0TlqpKARA2WHHXaQ999/X9544w0xgqKtr1Onjs0XGGV+OoARGOWXX36xy3ftgP/9x41sVM46jkb+aWSflsaNG9voQiOWygEHHPDfK3iBAAQgAAEIQKDsCaBnQgACEIAABCAAAQhAIEzACFk2Qsz8smyj0vR1vfXWc7p06eIMHTrU+eOPP7xL7rrrLtvGCHlenR58/PHHtt4IeV795ptvbuuM+ObV/f777zbSTscYOXKkrTfioG2nEXxmiavX9vHHH7f1RgC0dToXvU6jB82SYFu3dOlSG0loluHaiLfffvvNu37QoEG2vc7ZLVtuuaWt0/eTJk2yxwcddJB72r4efPDBjskT6Lz11lv2fdT5aWOz1NfOz17o+8cImXYsjQDUYpYY2/dGgLTvly1b5vz555/2mH8gAAEIQAACEICAEtBExRQIQAACEIAABCAAAQhUIKACm8mF56jopktD/aLegQce6Jg8bvaaygh5KhT6i4nEs/1fdtlltvqwww6z71WoUzHL/VFRrmHDhvbc8uXLraio8zr22GP93dljE+Fn26kNWkyUn13GW6tWLWfx4sW2Tv/xC3k//PCDXdaqbS699FLHbOjhje1dYA6izk+vyVXICy/h9Y/LMQQgAAEIQAAC5U0AIa+8/Y/1EIAABCAAAQhAIDIBzSl34403Opq7zS+e5SrkbbDBBhXGVMFM+zz88MPtObPZhn3vFw/Dxxrx50bkXXTRRRX6fO2112wfXbt2tefc98cff3ygrV/I0xNml97A2GaZq2OWFztmqbB3XdT56QW5CHmal88sw/XG4QACEIAABCAAAQj4CZAjz/xGSIEABCAAAQhAAAIQ+B8Bs8GCmE0i5JJLLpFtttnmfyf+e2QEPburrVnOKrq76v33329z5N10001y/vnne+3Hjx8ve+yxR4Ucebob7Pz58712emA2sLB56zRv3gsvvCCbbbaZfPPNN9KzZ0+b9y7Q+L9vzj77bHnzzTdtjrzrrrtOjJgXaGai+Gy+O915VscbOHCgzbE3ZswYm/PPbezPkefWac4+zev38ssvi9mMwlZrbjx9bzakiDw/IxLaHHma389EELrd21fNO2jERZuL0M2RpzxXrlwZaMcbCEAAAhCAAAQg4BHwq3ocQwACEIAABCAAAQhAwAh4NiLNXeYaJqL58TQqT3dz1Z1bdWdV88ulc9VVVwWamo0pbH04R57ZrMJe52/stnX7MBs82GvDO+HqNWbjCceIhI4RvLyIPCPk+bvzjt3oOp2j5tEzG0rYJbZeA3Pgj8jT5cJG6HOmT5/uNTGbczhHHnmknY+7A2/U+Wknuiuv2STE6889MAKi7dOfI0+X9FIgAAEIQAACEIBAOgIsrU1HhnoIQAACEIAABCBQpgRMNJoVmHSziAceeCBAQfPMqcCnwp27IcQzzzxj3++zzz7e5gyaX88Vu8JCXlj007x3bdu2tX28/vrrdjwV9LTdLrvsEthYY9SoUbZeN83w58hLJ+TNnDnT5rxTEU/7U5EyXPxCnubT03Zqi7+4S3hPOukkWx11ftp4u+22s32OHTvW61LtVEFTx0LI87BwAAEIQAACEIBAFgIsrTW/PVEgAAEIQAACEIAABP5HwPz+KBdeeKHoUlktzZo1kzZt2ogRnuSjjz6SOXPmiNlwQl566SUxu8eK2ThCzI6rdkmo2d1VjPhml4yaTRvECHoVltaaCDcxueCkT58+YkQuefLJJ8XsFmuXyOqyXi26/LZ169aibdu3by/dunUTsyutDB8+XJYsWSLu8thhw4alXVprOzL/dOzYUd5++237dsaMGdKyZUv3lH0NL63dc8895b333pN9993XXjtv3jx59tlnZdGiRWJ21RWTxy/y/HQAZWlyC4rJlSc9evSw89f+3KW2RsgTltYGXMIbCEAAAhCAAATSEcgi9HEaAhCAAAQgAAEIQKBMCTz88MM2Uk4j88zvkvZn3XXXdXTHWiOIBahopJxuCuG20yWsGnWm740I57XVSDqt69+/v11uqsfrr7++069fP2fVqlVeOz0wAppjcuY5a665ptdvgwYNnJtvvtlr50bKpYvI04Zqh45jREfvOv+BRuTpGG7RCDmNIqxbt643rhEqHSMiuk3sa5T5acNly5Y53bt39yLw1lprLcfk/nN0gw6d17Rp02x/OgZLay0K/oEABCAAAQhAIA0BIvLMb08UCEAAAhCAAAQgAIH0BMxyWjFLVEU3jzC7tdrIvHStZ82aZaPttthii5RNtP7bb78Vk2dPdAMIba9ReRrtl66YpbeikXS62YRugmGEsHRN81pvdo8VI7JJ8+bN7YYV6TqPOj+1190oRG2hQAACEIAABCAAgVwJIOTlSoz2EIAABCAAAQhAAAKVJuAX8irdCRdCAAIQgAAEIACBMiWAkFemjsdsCEAAAhCAAAQgUAwCCHnFoM6YEIAABCAAAQgkhQBCXlI8iR0QgAAEIFAyBHR5om4W8M0339iliiUzcSYKAQhAAAIQyEJAl77rEnzd3IUCAQhAAAL5J4CQl3+m9AgBCEAAAhCoQEDzgd1yyy1258vPP//c5gar0IgKCEAAAhCAQEIIqJC30047idnURfbff/+EWIUZEIAABIpPACGv+D5gBhCAAAQgkHAC06dPl169esnEiRPF7Ngpu+yyi03ub3bKFLNTZsKtxzwIQAACECgnAitXrpQvvvhCPvnkExk/frwsX75cBg4cKGZnaTE7QZcTCmyFAAQgUBACCHkFwUqnEIAABCAAgb8I6EPMgQceKLrr5z//+U8ZNGgQ4h03BwQgAAEIlAWB+fPnS9++fWXUqFGy8847y3vvvWd3ny4L4zESAhCAQIEIIOQVCCzdQgACEIAABFasWGEfXBYuXChvvfWWPYYKBCAAAQhAoNwI3HDDDXaJ7bnnniu33npruZmPvRCAAATySgAhL6846SxuBDT6RZPJX3LJJdKiRYvA9N555x158MEHbd31119fISHviy++KC+99JIceuih0rVr18C16d6MGzdOHnjgATnmmGPk8MMPT9eMeghAoEwIDBgwQO666y55+OGH7dLaMjEbMyEAAQhAAAIVCBx22GEyZswYGTt2rOy3334VzlMBAQhAAALRCCDkReNEqxIlcNJJJ8ljjz0md955p/Tv3z9gRZ8+fTwh76GHHpLevXsHzqsQN3r0aHnuueesMBc4meaNininnnqqXHPNNVY8TNOMaghAoAwILFmyRNZff33p1KmTvPzyy2VgMSZCAAIQgAAE0hOYN2+etGrVSjp06CCvvvpq+oacgQAEIACBjAQQ8jLi4WSpE9AomJNPPllOOOEEeeKJJwLmbLrppjJ37lxb1717d3nyySe983/++ac0atTIJuddtGiR1K9f3zuX6QAhLxMdzkGgvAhoHqA999xT7r77bunXr195GY+1EIAABCAAgRQENCpPc8fq79c1atRI0YIqCEAAAhDIRgAhLxshzpc0ge+++06aNWsmzZs3lzlz5ni2TJ06VXbaaScbhTdy5Ehb/+OPP8oaa6xhjz/66CNp27at7LHHHvLuu+9617kH33//vY20qV27tltlX8NC3tKlS22CexUFM5Vff/1V9CdbOxUe//jjD2natKk313T9atuNN944kFRfBUq1U+spEIBAYQkMHTpUTj/9dPnPf/4j++yzT2EHo3cIQAACEIBACRDQtDdXXnml6G7uW2+9dQnMmClCAAIQiCEBhwKBhBMwIfyO+eg53377rWepSbhr60wUnnP88cfbY/PXQe/8bbfdZuvMLxte3c8//+ycccYZToMGDey5Nddc02nXrp3zwQcfeG3uv/9+e848vDtGBHTMXxrte/OLimNygnjt3AMjIjr77ruvU6tWLceIiM5ee+3lmATA7mn7OmnSJGf//fd36tWrZ/tSW9Zdd13n8ssvd37//XevrdkJzDFigWOifxwjXtq26623nnPmmWc6RvxzzjnnHG/uu+22m2PyA3rXcgABCOSfwPnnn28/hwsWLMh/5/QIAQhAAAIQKEECJv+0/b/x6aefLsHZM2UIQAAC8SBARF4MxVWmlF8CZ511ls2Rp0tndQmtFiOM2SgZ84AtI0aMsHnt/vGPf4j+lVCLblbxwgsviC6N0zweq1evFiN+yYcffmij5nSpru5G+eijj9rIOG2366672o0uNEeeFs2Ndcopp4jmydJNNcxH3ubJ0nxZWjRKR4+1Xpf/GjFPzC818sMPP8gzzzxjN9jQ480331x+++03Ofjgg+2Ol5MnT7bXrlq1SjTi57TTTrP9bbHFFvL111/bY43+ady4sbVNr91mm23kiy++ECMa2mg87V+LRh5qZCIFAhDIP4Gzzz5bbr/9dvtdUbdu3fwPQI8QgAAEIACBEiOgv//qRhdsAlVijmO6EIBAvAjEQ09kFhAoHAEjyNm//BlBzw6ikXVrrbWWjabTCo3UM59KR6PUtJjlp84GG2xgo9c0kk2LRrlpG416M0tgbZ3+8/jjj9t6jaTT4kbkmYd258svv7R1+o/ZcMO2M2KfV9ekSRNb9+abb3p1ZsmvjcwzopyzcuVKxyw9sG2MIOi10QOzy66tN4KiV28EP1un0YBuuffee22dzt0fEahRelpndtN0m/IKAQjkmcDAgQPt58yI/nnume4gAAEIQAACpUng7bfftv83GiGvNA1g1hCAAARiQECjgSgQSDSBn376ydFlsG3atLF2mgg8+wvEZZdd5tm93XbbWQHN5LRzPv30U3veROV5501iXltnIuCs0Kdin/6YaDenYcOG9tzy5cs9IU+FMn/Rtq7QpvMx+evsNa4A6G9rdsp1/u///s8um128eLEzYcIExyQE9pro9UOGDLHXH3HEEV6927+KgW6ZNm2abafCoL+4Ap9/6bD/PMcQgEDVCSDkVZ0hPUAAAhCAQLIIIOQly59YAwEIFIcAS2tNWBIl+QTat28vJpedGBFMLrjgArnnnntk3LhxdkdJtf68886TwYMHy+uvvy4mkk769+8vRuyyier1vMmzJzNmzNDDtOXjjz8WXfaqS2t1OZ0u6fWXQw45RF599VWZOHGi3XBCd+3SZbG6PDZT0XF1vtq3Hs+fP99rrn2MGjXKvneX1pqIQzH59GydbsqhG2MYwVDeeecd7zoTSSg9e/a0S4l1STEFAhDIPwGW1uafKT1CAAIQgEBpE2BpbWn7j9lDAALxIICQFw8/MIsCEzDRd3LNNdfIG2+8IX379hUT6SYLFy6UmjVr2pFVYFOh7aqrrpLPPvtMNJ/e7NmzxUS52fObbbaZfPPNN1b80tx3qYo+tJu/Mloh77777rPj+Nt17txZzPJWmTJlihXkunXrJmbzDCvS+dv5j9966y07L7OphZhNNsRsriEmslDM0l8rSIaFPLNM2O5q6/bhCnmaM09/cXILQp5LglcIFI4AQl7h2NIzBCAAAQiUJgGEvNL0G7OGAARiRqA4gYCMCoHqJWAEMbvE1M0N5182qzP55ZdfnNq1azu6hLZ58+ZOy5YtAxM84IAD7PV33HFHoF7fGHHQ0R1vNaedmyPvoosuCrTzL63VJbhm0wzbn/YbLhdeeKFjRD7HbE5hd7Q1XxmOESHtUl637VNPPWWvN+KjW2WX7uoSYn/57rvvbDvdzdZf3Jx9LK31U+EYAvklwNLa/PKkNwhAAAIQKH0CLK0tfR9iAQQgUHwC5Mgrvg+YQTUQUJFNN6BQUUx/NEdcuJhdYb3zAwYMCJw2kXr23C677OK4G2BoA7Os1dZrfjp/jjyznNUxO856fbjC2R577GHrVDjccMMNbV4+syTXa2eiAG0+v7XXXtvRfH3uhhiaJ88tutmG2e3LjusXAnUOCHkuJV4hUHwCCHnF9wEzgAAEIACBeBFAyIuXP5gNBCBQmgRYWhuzCEmmUzgCnTp1ktdee80O8PXXX4sul/UXzZGnufK0mA0xpEuXLt5pI55J69atRa/TfHu6LFZz6Q0fPlyWLFlil8xq/w888IBdWqsXbr311nLyySfLggULxETyiYnKk3fffdder+d1+a0urdUls7oET3PbPfPMM2Ki6GTQoEFy4403SteuXeW5556T7bffXvr06SOrVq2SZ599ViZNmqRdyA477CBmcwt7rDnyWFprUfAPBGJBgKW1sXADk4AABCAAgRgRYGltjJzBVCAAgdIlUJr6I7OGQO4EjDBmo9i22WablBd/8skn9vxaa63lLFu2rEKbefPmOUcddZSNejOfeNvWiHDOzTff7LV96KGHbL0uj9UIObedLtcdO3as1849MMKfY3Luee1q1arl6LJcN+rP5LhzTjnllFfHT7gAAEAASURBVECbnXfe2TEbdThGKLTX6fJZLVtttVXaiLyOHTu6Q9pXN0JQIw0pEIBAYQgQkVcYrvQKAQhAAAKlS4CIvNL1HTOHAATiQ4CIvNLVYJl5kQj89ttvdrOKOnXq2Kg+I/ylncnMmTPFLHcVI+qlbaMn5syZYyPyTG4+MWJehbarV6+WadOmiREEbQRfhQZUQAACsSNARF7sXMKEIAABCECgyASIyCuyAxgeAhBIBAGEvES4ESMgAAEIQCBuBBDy4uYR5gMBCEAAAsUmgJBXbA8wPgQgkAQCCHlJ8CI2QAACEIBA7Agg5MXOJUwIAhCAAASKTAAhr8gOYHgIQCARBBDyEuFGjIAABCAAgbgRQMiLm0eYDwQgAAEIFJsAQl6xPcD4EIBAEggg5CXBi3m24ccffxSz8YMsXLgwzz3THQTiT6Bhw4Z2l+BNNtkk/pNlhrEmgJAXa/cwOQhAAAIQKAIBhLwiQGdICEAgcQQQ8hLn0soZZHZklQsuuEBef/11+eGHHyrXCVdBIEEEzG7Cst9++8mtt94qzZo1S5BlmFJdBBDyqos040AAAhCAQKkQQMgrFU8xTwhAIM4EEPLi7J1qmJvZQFkeeughOe+882TJkiVWuGjTpo2NSGrSpEk1zIAhIBAvAgsWLLARqVOmTJGxY8dKvXr1ZMiQIdKrV694TZTZxJ4AQl7sXcQEIQABCECgmgkg5FUzcIaDAAQSSQAhL5FujW7UoEGD5Oabb5YWLVrI0KFDrZAX/WpaQiDZBN577z3p3bu3fPXVV3LFFVfIlVdemWyDsS6vBBDy8oqTziAAAQhAIAEEEPIS4ERMgAAEik4AIa/oLijeBCZNmiQdOnSQjh07yogRI6Ru3brFmwwjQyCmBFasWCGHHXaYjBs3zv60b98+pjNlWnEjgJAXN48wHwhAAAIQKDYBhLxie4DxIQCBJBBAyEuCFythwx9//CHt2rWTL7/8Uj799FPZfPPNK9ELl0CgPAjMmTNHdtxxR2ncuLF89NFHiN7l4fYqW4mQV2WEdAABCEAAAgkjgJCXMIdiDgQgUBQCCHlFwV78Qd9++20biXf11VfLpZdeWvwJMQMIxJzAXXfdJQMGDJCnn35aunXrFvPZMr04EEDIi4MXmAMEIAABCMSJAEJenLzBXCAAgVIlgJBXqp6r4rxvvPFGufDCC+Xjjz+WnXbaqYq9cTkEkk9g7ty5summm8r5558vN910U/INxsIqE0DIqzJCOoAABCAAgYQRQMhLmEMxBwIQKAoBhLyiYC/+oBpR9PLLL8vSpUulZs2axZ8QM4BACRBo2rSp3RhGI1opEMhGACEvGyHOQwACEIBAuRFAyCs3j2MvBCBQCAIIeYWgWgJ9tmrVSho2bCgTJkwogdkyRQjEg8ARRxwh7777rixevDgeE2IWsSaAkBdr9zA5CEAAAhAoAgGEvCJAZ0gIQCBxBBDyEufSaAZtscUWsuWWW8rYsWOjXUArCEBATjjhBBk5cqQsX74cGhDISgAhLysiGkAAAhCAQJkRQMgrM4djLgQgUBACCHkFwRr/ThHy4u8jZhg/Agh58fNJnGeEkBdn7zA3CEAAAhAoBgGEvGJQZ0wIQCBpBBDykubRiPYg5EUERTMI+Agg5PlgcJiVAEJeVkQ0gAAEIACBMiOAkFdmDsdcCECgIAQQ8gqCNf6dIuTF30fMMH4EEPLi55M4zwghL87eYW4QgAAEIFAMAgh5xaDOmBCAQNIIIOQlzaMR7UHIiwiKZhDwEUDI88HgMCsBhLysiGgAAQhAAAJlRgAhr8wcjrkQgEBBCCDkFQRr/DtFyIu/j5hh/Agg5MXPJ3GeEUJenL3D3CAAAQhAoBgEEPKKQZ0xIQCBpBFAyEuaRyPag5AXERTNIOAjgJDng8FhVgIIeVkR0QACEIAABMqMAEJemTkccyEAgYIQQMgrCNb4d4qQF38fMcP4EUDIi59P4jwjhLw4e4e5QQACEIBAMQgg5BWDOmNCAAJJI4CQlzSPRrQHIS8iKJpBwEcAIc8Hg8OsBBDysiKiAQQgAAEIlBkBhLwyczjmQgACBSGAkFcQrPHvFCEv/j5ihvEjgJAXP5/EeUYIeXH2DnODAAQgAIFiEEDIKwZ1xoQABJJGACEvaR6NaA9CXkRQNIOAjwBCng8Gh1kJIORlRUQDCEAAAhAoMwIIeWXmcMyFAAQKQgAhryBY498pQl78fcQM40cAIS9+PonzjBDy4uwd5gYBCEAAAsUggJBXDOqMCQEIJI0AQl7SPBrRHoS8iKBoBgEfAYQ8HwwOsxJAyMuKiAYQgAAEIFBmBBDyyszhmAsBCBSEAEJeQbDGv1OEvPj7iBnGjwBCXvx8EucZIeTF2TvMDQIQgAAEikEAIa8Y1BkTAhBIGgGEvKR5NKI9CHkRQdEMAj4CCHk+GBxmJYCQlxURDSAAAQhAoMwIIOSVmcMxFwIQKAgBhLyCYI1/pwh58fcRM4wfAYS8+PkkzjNCyIuzd5gbBCAAAQgUgwBCXjGoMyYEIJA0Agh5SfNoRHsQ8iKCohkEfAQQ8nwwOMxKACEvKyIaQAACEIBAmRFAyCszh2MuBCBQEAIIeQXBGv9OEfLi7yNmGD8CCHnx80mcZ4SQF2fvMDcIQAACECgGAYS8YlBnTAhAIGkEEPKS5tGI9iDkRQRFMwj4CCDk+WBwmJUAQl5WRDSAAAQgAIEyI4CQV2YOj7m5Q4cOlfHjx1eY5RprrCH169eXpk2bSrdu3exrhUYRKs4//3xZunSp6Dj5LLNnzxZ9nqeULwGEvDL1PUJemToes6tEACGvSvjK7mKEvLJzOQZDAAIQgEAWAgh5WQBxuloJnHTSSfLYY49lHHOjjTaSESNGSPv27TO2S3WyefPmMn/+fPn9999Tnc65TvvR55G5c+emFCBz7pALSpYAQl7Juq5qE0fIqxo/ri5PAgh55en3ylqNkFdZclwHAQhAAAJJJYCQl1TPlqZdrpB35513yvHHH+8ZsWzZMhk7dqw8/PDDMm7cOBv9NmvWLO981IN8C3mLFy+W9ddf34qKqSIJo86LdqVPACGv9H1YKQsQ8iqFjYvKnABCXpnfADmaj5CXIzCaQwACEIBA4gkg5CXexSVloCvkPf7449KjR48Kc//++++tiLdq1SqZMWOGtGzZMtDmzz//FG2z4YYbSu3atQPn9I1fyHMcx7Zt0qSJ6NLddCVTnwh56aiVXz1CXvn53FqMkFemjsfsKhFAyKsSvrK7GCGv7FyOwRCAAAQgkIUAQl4WQJyuVgLZhDydjApv8+bNE71399lnHzs/Xdp6wQUXyPPPPy+//vqrrLnmmrLzzjvLHXfcEViC6wp5119/vVx11VWyZMkSqVevnhx77LG2rR67JVufGhnYpUsX+emnn6RmzZqy3nrrybXXXitnnHGG2wWvZUQAIa+MnO03FSHPT4NjCEQjgJAXjROt/iKAkMedAAEIQAACEAgSQMgL8uBdcQlkE/JUgLv44otttJ0KbQ0bNpTly5dL27Zt5csvv5Rdd91VOnXqJDNnzpSnnnrKRtq99tprsv/++1vDVMj79ttv7fHBBx8su+22m82398knn8iee+5pl+3qySh9qqA4ePBgu3FG48aN5bjjjpNjjjlG9t13X9s//5QXAYS88vK3Zy1CnoeCAwhEJoCQFxkVDQ0B/QXrmWeekenTp8vWW28NEwhAAAIQgEDZE0DIK/tbIFYAXCFPo+k23XRTb26LFi0SzYm3YMECqVGjhvz73/+WgQMH2vOXXHKJXHfddTY67rnnnrPRcXrioYceklNOOUVatWoln332mRX1XCHv9NNPl3vvvdderxF8unHG1KlTZdSoUXLYYYdJ1D41oo8ceRZj2f+DkFemtwBCXpk6HrPlxBNPtH8l063k1113Xfufc1QsCHlRSdFOCegvcppPRf9qOmnSJGnatClgIAABCEAAAmVNACGvrN0fO+NdIS/dxPS5oW/fvoGot913310mTpwoU6ZMkR133DFwaevWreXzzz+X2bNny+abb25z5GlEnu5cu/HGG3ttXdHvnHPOkdtuu02i9qnLaRHyPIxlfYCQV6buR8grU8djthXuNB/F4YcfLrfeeqtNTqt5LaIUhLwolGjjEtC/7uoveVq23HJLm1sFMc+lwysEIAABCJQjAYS8cvR6fG12hbyhQ4dK9+7dRTe1+Oijj6x4pxF5WqcbYfg3p6hbt6789ttv9kdz1fmL7nz79NNPy5gxY+ySW43I++WXX2ThwoX+ZjJhwgTp0KGDHHrooTJ69GiJ2me7du0Q8gIky/cNQl6Z+h4hr0wdj9lWyNMQeRXvWrRoIcOGDbP5KtZaa62sdBDysiKigY+AX8jTe06/d/UBBjHPB4lDCEAAAhAoKwIIeWXl7tgb6wp54V1rNYpO8+CpAKebWtxwww2eLRtssIHdcOL333+3zxPeCXPgCnm6MYXmwFMhb/Xq1Xa3Wn+7999/3y6vPfroo+2GGVH73HbbbRHy/CDL+Bghr0ydj5BXpo7H7ApLaTU8XXNeaCLbtddeOyMhhLyMeDgZIuAX8vQUYl4IEG8hAAEIQKDsCCDklZ3LY21wOiFPJ6070uruslrcXHZ6rBtWaMoUXUK7zTbbaJVXdKntp59+KsuWLbO706qQp8tqFy9ebN+7Dd2lteeff77cdNNNkftU8ZCltS7FMn91KGVJwKzZd8xuOmVpe9KNvuyyyxyTaDXpZlbaPvOV74R/TDSes8ceezjmP9qM/ZrwemedddbJ2IaTEHAJ7LTTThXuNSPmOVtttZXz3Xffuc0K/sp3QsERMwAEIAABCEQk8Pbbb9v/Gx9++OGIV9AMAoUj0LNnT3s/moi8lIP06NHDnjeCnPPzzz/bNoMGDbJ1eu7PP//0rnvhhRdsvdngzKtr1qyZrbvmmmu8OrPZhbPDDjvYerPDbU59Ll261F63/fbbe/1xUJ4EiMgrUyGXiLzkOt6IBHaXJfOVllwjq2CZRkWFi9bpUtsNN9zQ7ih1xBFHhJvY90TkpcRCZRoC4Yg8t5neb27OPP8Oae75fL/ynZBvovQHAQhAAAKVJUBEXmXJcV0hCGSKyNPxfvzxRxt1pxF1uoJnyJAhYsQ0u6HZDz/8IAcddJDNu/3VV1/JPffcY58nNHrvgAMOsNPViDxdpqu/+5188sliBDibc+/DDz+Uzp07y8svv2zbRe1Tl+maoAKbn0+fV3r37u1FDdqO+Kd8CJSnfonVmxORl9ib4Pbbb3euvfbaxNpXVcPMt7v9S1aqV/OfrNOgQQOnT58+jkliW2EoIvIqIKEiA4FUEXnufaf3WnVF5vGdkMFJnIIABCAAgWolQEReteJmsCwEjBBmnwuGDx+etuWDDz5o25gNLxwjwNl2X3/9tXPwwQc7Wqe/25mAAMfsPOu8+uqrgX70mVt/3zO70zpmYwzbVl/1WWPFihWBtlH7vPrqq72+jDgY6IM35UOAiDzzySvHQkReOXr9L5vnzp1rtz/379RqwsLtX5z826KnIqTX/vHHHzZZv3/3Jn9b/UuR/tVKo9uyFd3FacmSJdKkSZNsTfN2Xv8ilqno+dq1a9vktC+99JKY8HivORF5HgoOIhBIF5HnXqr3WnVG5rnj+l/N8g4xv0iKJln2l0WLFtlcLrVq1fJXB47186t5XzRXS/369QPn/G/i/p3gnyvHEIAABCBQWAJE5BWWL71XLwH9XejLL7+0v8+tu+66GQd32+qzRZ06ddK2ddvp74jp+ly+fLmNDNRnt/DOuWk75kSyCJSPZomlfgL61wFy5PmJJOe4ffv2jnmw9gwyYoKzzz77OHfffbfj5mlYb731nDPPPNMxopz9C5FGoZlvNsckb3X0r07+YpK52nulXr16to22M/+pOJdffrljEq56TWfPnu0cd9xxTsOGDW27xo0b2770XjOh4147PXjjjTccze3g/hWrUaNGzkUXXRToL3BBHt/o/KP86F/L1IY777zTctIpEJGXR0eUQVeZIvLce7A6IvP83wlPPvmko5+3+++/3/4l2WzwYj8PrVu3diZOnOhMnjzZMYmaHZ2Xfi+cdtppzpw5czxvaV6XK6+80tlss81sG7VD2+p3h/tXardxqXwnuPPlFQIQgAAECk+AiLzCM2YECEAg+QQk+SZiYSoCCHmpqCSjzvz1xj6Yu9aor13RQAU9FdtMlI2tMzst2dd9993X1usDuf58/PHH9nLd/MFEp9m6Tp06ORdeeKFz4IEHOro5hPY5dOhQ205Dw13RwuSEcC699FKnXbt23rhm+3V3Os5zzz3nCQB77723FfC2224729Zswe61K9SByyLqq4oZhx56qGO2n3dMRB6bXRTKMQns1/1MZLvX9DNXyGW2/u8Es0ua97k0UbOOyQ3jbLvttrZOhWsTWWf/EKBLNVq0aFHhc3nuuefaOk363LdvX6dfv36OHquNKu6tWrXKerKUvhMSeOthEgQgAIHYEkDIi61rmBgEIFBCBBDySshZ+ZwqQl4+acarL/9Du87MFfJOP/10b6L33nuvffDWh+8xY8Z49Rqlp3V33XWXrdPIG30f3gX3+uuvt/UqbGnR6Dxtp/ke3KIP9Icccoitd4W8lStX2od9bevPRWFCyG0UkNZrtF4hi46R60/dunWt0KLChUYcUiAQhUBUIU/vRxXzNjNCmFm+HqXrnNr4vxNcIU+jcr/44guvH7O83X4uVNTXz6mWefPm2ajZjTbayL7X3do0GleFfLOMxNbpP5pPUgVAtWP69Om2vpS+EzxDOIAABCAAgYITQMgrOGIGgAAEyoAAOfLMk0c5FnLkJdfr4R0q1dcmeapMnTpVzFbn1vDPPvtMTBSc6LlZs2Z5MO677z4544wz5J///Kf84x//kJ9++klmzJghLVu2FLMcz7bTnHaPPvqonH322aK7JWkeOROlJ2PHjrXjGDHC62/ChAnSoUMHMUKejBs3Tj744AMxkXqibXR3J3+evltuuUXMdu7258Ybb/T6yPeBEUxy7tK9RvOA6e5TxxxzTM59cEH5EXjkkUcCn68oBJ5//nkxkalRmkZu4/9OePjhh+2uaXoPm+hYrw8TqSvPPPOM6PlevXp59Zq/0gh6+kc/0Vya+rnVvCxt27a1bbTu888/l549e4qJ5BWzNNeeK6XvBM9YDiAAAQhAoOAEyJFXcMQFGUD/v9dnhk8//VTMHwLtrqkFGYhOIfBfApqzvFWrVvaZ1fxROvDcCCRDoAzESkxMQYCIvBRQElLlj75Rk9yIPI2mcct3331no2f22msvt8q+PvbYY7beCHlevUbY/O1vf7N59nTpnX5tuD+HHXaYbadRapprK1yWLVtm27oReU888YR3rdtH+PWoo44Kd5PX9+Hxcn2/yy67ZLUh1z5p/797KkksdOlqLvZ07drVW5qaz5ve/53gRuSdd955gSE0F57ONRwR6y6vdRtrXkwj9jnHHnuso0vi3WX6rp2aU1NLKX0nuLbxCgEIQAAChSdARF7hGedzBCPgOUOGDPEi793/73lN5u+ucfXrOuus41xzzTVe3vJ83uOl2hcReeZuLcdCRF5yve6PvlEr1dfffvut3W3Wtfr777+3O8+anHmifxl1y+OPP24ja9yIvLfeekvM8lgxD+9icsXZaLo2bdrYHS4vuOACMUKejBo1yu5YqbtfmiV54t/NViP6NJLPjcgzG2mIWX5ro9rSRR1p9N+AAQPcKeX91Y2uy6VjN3LwyCOPlPHjx8v777+fy+W0LVMCJrei/ct1FPONiCdG6BazbDVK85za+L8T3Ii8q666Si677DKvH7NsXIYNGyZvvvmmdOzY0avXz6NG4Zlfcux3SJcuXeSVV14R/RyZDTJEd+Y1fxAQ/WybzTLECHmy6667ltR3gmcsBxCAAAQgUHACROQVHHHeBtDnB5Nex6660ZU83bp1s6t79P9/I6zkbRw6gkAqAroCRFeR6c+IESPsqg+zgZtdPaI7/5Z9KVUFknlXjQAReVXjF+er/dE3Ok/1tRGiAlN2I/J08wt/CUfkab4s8yVp/wKif5Fzy1NPPWXrNQeeFjdKzYTbu03sqxECbTs3Iu+dd96x7zWyT3fM9Redk+brM8uA/dV5P1Z7cv3RTUFefvllxywftDnC8j4pOkwkgag58jQSz78DdL5h+L8T3Ig8I+QFhnEj8oyQF6j3R+S5n2ftz7+TrV7gbphhltPb60vpOyFgMG8gAAEIQKCgBIjIKyjevHVuUuk4JhWOfYa46KKLvPy5eRuAjiCQAwF9btSIPF0BpiteNI9zuReW1pbpHYCQl1zH+x/a1cqqCHluAnz34Vz7M5F3zn777WfFMN2hVstNN91k35uceTbxvdaZv6I4unRXRTNXyFu6dKldcqd1L774ojazRb+czV9YbNs77rjDrS7Ia1QRz0Qc2V9edFdOXS6oCf27d+/OrrUF8UoyO40i5BVaxFOy/u+Eqgh5Joem/Yy6Ar7rtdGjR9vPin62VKzXUkrfCa4dvEIAAhCAQOEJIOQVnnE+RtDd6/X/dU2LQ4FAXAho0Ic+o+kzZ7kXhLwyvQMQ8pLreP9Du1pZFSFP82Dpf+Lbb7+9M3jwYOeGG25wzGYVtk7rzeYZFqTuOqv5srTOLMVzjj/+eMdsCuG18+fi0x1xtZ1JYOr8/e9/t33usccetk4FP3/kXyG8pGNn+zHLgx2zJNi5//77bYSgOyeEvEJ4JLl9ZhPy9PNVyEg8l6z/O6EqQt6UKVPsLrb6+dAdrs1SXPuqn2X3M2U20LDDltJ3gsuJVwhAAAIQKDwBhLzCM67qCCNHjrT/r/fo0aOqXXE9BPJOYODAgfb+1JzN5VwQ8srU+wh5yXW8PrT7l9Ka/FiB92q5u7TW5MIKgHCX1rrL7kwuPcfkxnDWX39970Hd5MRyzA60jslNYOu0Ly0abWfybDk6Xt26dZ29997bMbt22jadOnUKjGN2vXXCG2foXEwurkC7QrxxBYd0ryZHmaNLik0eMMe/QYjOBSGvEB5Jbp+ZhLzqEvGUrv87QT97eu+7n3GXvru01uQucqvsqy6t9X+fqBCo0bP611Dtp06dOo7Jl2lFPX2v3wFuKZXvBHe+vEIAAhCAQOEJIOQVnnFVR9DfUfT/90WLFlW1K66HQN4JrFixwgZcHHTQQXnvu5Q6ZLML8+RRjoXNLsrR65W3efXq1TJt2jS7SYVuehEuRtgT3ezCiHeiW4W7ZezYsXLggQeK+Yue6EYa4WLyG8j8+fNtv0YsDJ8uyHtN0p+q6CYdmrjX/JVHdCOOtm3bBjbu0GtOOOEEMX+lFE2+SoFANgK6EYSJYqvQzPyCLE8++WRBNraoMFiBKvSza4RuMUJfhc+JDllK3wkFQkS3EIAABCCQggCbXaSAErMqkxvP/m5u0mXEbGZMBwJ/EdDny88//1x0A8dyLQh5Zep5hLwydXyBzDZLZOXWW2+VK664Qq688ko7iskpZ3ernTx5spjltGKW4hVo9Ny6TSXk6a60KkhccsklYvL+yaabbpqyU4S8lFioTEMglZCXBBEvjbmB6lL6TghMnDcQgAAEIFBQAgh5BcVb5c71D+ybbLKJ/O1vfxOTVqfK/dEBBApB4Oyzz5bbb79dFi9eLA0bNizEELHvEyEv9i4qzAQR8grDtVx7/fDDD61ot3LlStG/4pml2zJx4kQbpdelSxd59tlnYxN9FBby6tWrJ507d5Y+ffqI2cQjEFEY9idCXpgI7zMRCAt55SLiKZNS+k7I5EPOQQACEIBAfgkg5OWXZ757M0ufxaS7kQcffFDMhhf57p7+IJAXAkOGDJFzzjnH/r7Zpk2bvPRZap0g5JWax/I0X4S8PIGkG4+ALr0dMWKEvPrqqzJz5kzZddddrbinX7Jmq3CvXbEPVMhzf0yePhkwYIAceuihYvKZ2fpM80PIy0SHc2ECek9NnTrVVh9zzDEyfPjw2Aja4bkW4n2pfCcUwnb6hAAEIACB1AQQ8lJziUutmxZHU+JoahwKBOJI4O6775b+/fvLpEmT7DNnHOdY6Dkh5BWacEz7R8iLqWOYVsEJqIinefz0rzf6H4DZiEM23HDDSOMi5EXCRKP/EmjVqpXMmDHD3mOaW9FspAIbCEAAAhCAQFkTQMiLt/sR8uLtH2b3FwGEPBGEvDL9NCDklanjMVs6dOggO+64o3Tt2tUupc1FXEHI4wbKhUCvXr3E7BIrS5Yskfr16+dyKW0hAAEIQAACiSSAkBdvtyLkxds/zO4vAgh5CHll+1lAyCtb12N4FQgg5FUBXhle6ibiXbFihdStW7cMCWAyBCAAAQhAIEgAIS/II27vEPLi5hHmk4oAQh5CXqr7oizqEPLKws0YmWcCCHl5Bprw7hDyEu5gzIMABCAAgZwJIOTljKxaL0DIq1bcDFZJAgh5CHmVvHVK/zKEvNL3IRZUPwGEvOpnXsojIuSVsveYOwQgAAEIFIIAQl4hqOavT4S8/LGkp8IRQMhDyCvc3RXznhHyYu4gphdLAgh5sXRLbCeFkBdb1zAxCEAAAhAoEgGEvCKBjzgsQl5EUDQrKgGEPIS8ot6AxRwcIa+Y9Bm7VAkg5JWq54ozb4S84nBnVAhAAAIQiC8BhLz4+kZnhpAXb/8wu78IIOQh5JXtZwEhr2xdj+FVIICQVwV4ZXgpQl4ZOh2TIQABCEAgIwGEvIx4in4SIa/oLmACEQgg5CHkRbhNktkEIS+ZfsWqwhJAyCss36T1jpCXNI9iDwQgAAEIVJUAQl5VCRb2eoS8wvKl9/wQQMhDyMvPnVSCvSDklaDTmHLRCSDkFd0FJTUBhLyScheThQAEIACBaiCAkFcNkKswBEJeFeBxabURQMhDyKu2my1uAyHkxc0jzKcUCCDklYKX4jNHhLz4+IKZQAACEIBAPAgg5MXDD+lmgZCXjgz1cSKAkIeQF6f7sVrngpBXrbgZLCEEEPIS4shqMgMhr5pAMwwEIAABCJQMAYS8eLsKIS/e/mF2fxFAyEPIK9vPAkJe2boew6tAACGvCvDK8FKEvDJ0OiZDAAIQKCMCjuPIqFGjZN68edKxY0dp2bJlRuvnzJkj+gD+wgsvyKWXXiq9evXK2J6T1U8gFyFv8eLFMmzYMFl//fXllFNOkTXWWCPjhEePHm3vF70HKBCoCgGEPIS8qtw/JX0tQl5Ju4/JF4kAQl6RwJfosAh5Jeo4pg0BCEAAApEITJo0yQo5W221lZx00kmyySabpL1u4cKFMmLECLnnnntk5syZcttttyHkpaVVvBNRhbyffvrJirIjR44U/X2ne/fuUqNGjbQTHzNmjFx33XXyxRdfyA8//JC2HScgEIUAQh5CXpT7JJFtEPIS6VaMKjABhLwCA05Y9wh5CXMo5kAAAhCAgEfggw8+kDvvvFNWrFghffr0kf32209q167tnfcf/Pjjj1bEu+OOO2TKlCn21MMPP4yQ54cUk+MoQt6iRYtk6NCh8uKLL1oBTyMrGzVqlNYCjcS74YYbZOLEibJ69WpZtWpV2racgEAUAgh5CHlR7pNEtkHIS6RbMarABBDyCgw4Yd0j5CXMoZgDAQhAAAKWgCviLV++3C6pVBGvbt26KemoiKeCz1133SUff/yx1wYhz0MRq4NsQp5GVt5///2ikXhdu3a1kZi6tDZd0XY333yzFfFWrlwpNWvWRMhLB4v6yAQQ8hDyIt8sSWuIkJc0j2JPdRBAyKsOyskZAyEvOb7EEghAAAIQ+IvA5MmTRSPrqiLiaU8IefG8ozIJeQsWLJAHH3xQXnnlFTn66KPlxBNPlA022CCtIbqUevDgwZ6Ipw0R8tLi4kQOBBDyEPJyuF2S1RQhL1n+xJrqIYCQVz2ckzIKQl5SPIkdEIAABCCgBFTEu/32262Id+qpp9rltHXq1EkJx43E0wfujz76qEIbhLwKSGJRkU7I07x2Dz30kLz66qty5JFHSo8ePWTDDTdMOWfdBEUj8VTEe//990Uj8dyCkOeS4LUqBBDyEPKqcv+U9LUIeSXtPiZfJAIIeUUCX6LDIuSVqOOYNgQgAAEIVCDw4YcfWhFv6dKl0rdv3yqJeNo5Ql4FxLGoSCXkzZ8/3/rr9ddfly5duti8eBtttFHK+aqI99JLL1kRTzdD+fXXXwPtEPICOHhTSQIIeQh5lbx1Sv8yhLzS9yEWVD8BhLzqZ17KIyLklbL3mDsEIAABCLgENKJuyJAhojuV9uvXT/bdd1/JFImnSyo1J16qSDy3T4Q8l0S8XsNC3rx582wk3ptvvmlFvOOPP17SiXh//vmnF4mXSsRTSxHy4uXvUp0NQh5CXqneu1WeN0JelRHSQRkSQMgrQ6dXwWSEvCrA41IIQAAClSCgifjr168va621VoWrv//+e9Gk/Ol2VnUvWLZsmWhUkfaTqWg73bF1k002ydTMnvv9999Fl5puuummKdvqeBr1pHNr2LBhyjb+yqi2+K+p7LFuUHHbbbdZEa9///6yzz77ZBTxdGOLdMtp/XNAyPPTiM+xX8jr2LFjTiLeqFGj5JZbbpF0Ip5amauQp7vc6i65qcTDX375RZYsWSJNmjTJCrAQn2tdbrzuuuum3egll891LrZkNbYMGiDkGSebG4xShgQ233xzZ//99y9DyzEZApUn0L17d2edddapfAdcWVYEBg4c6Oh/s+ZBr6zsxlgIQAAC1Umgbdu2jtk11TnrrLOcGjVqOEaAc+677z47hZ9//tk544wznAYNGtjv4zXXXNNp166dY3Zd9ab45JNPOo0aNXJuvfVWp3379s4aa6zhGLHBMYKVY/J8ee3cgyeeeMJp0aKF7U+/4/Xa888/3zFLCN0mjtunySnmHHbYYY4R6Gx7I9I51157rWMil7y2l156qZ2z9qU/jRs3dq688krnjz/+8NroQRRbAhfk4c2UKVOc3r17WxvGjBnjGLEhba9GqHSGDh3q7Lzzzh4b16ZUr0bIS9sXJ4pH4I033rCfAf0MXXPNNc6BBx7omM1NHCNapZ2UEdscs5zWfmZMpGZG/+tnK1sZPny4/VyZHHvOxhtvbPvTz7l7/+kct99+eztPvbf0M3jRRRc5RjD3unY/g/n8XOu9vddeezl672622WZ2Xvp90aFDB2f69One2HoQ9XMdxZZAx7yxBEzEr+VvROOyJYKQV6auR8grU8djdpUIIORVCV/ZXYyQV3Yux2AIQKAIBEyUmyccqAhmovEcfThWIUwf/t0H/QEDBjgnn3yyo2KetnEfAFVsc4UmE/Xj/Otf/7LCXK1atRwVJczyUM8qs2OnbavC3Omnn+5ceOGFzlZbbWXrTPSS187tU8dS4eLQQw91unXrZo91LBUqtLgPo2aljBUizzzzTCvkaZvrrrvO6y+qLd4FeTiYOnWq06tXL6dz587Oa6+9FhAqw93nKuKpfQh5YYrxeK+fnfXWW89+VqKIeHpvmkg8K+K5grX7eUr1GkXIU0HYvVY/q/q5VgFNy3PPPWcFez2/9957WwFvu+22s+3NTroeRPczqO3y9bnW52cV7vQPBs2bN3fMhi/O1ltvbcfedtttvbGjfq6j2uJ1zIFHwGXsfo97J8rooIbaam5wSpkRYGltmTkcc/NCgKW1ecFYNp2wtLZsXI2hEIBAEQk0bdpUdKmpEcFsXjYTuSb16tWTe++919aZKBoZP368t6TWRNTJiSeeKEYYkHfeeccm8TcCn10u+sknn4gR5qw1ukTUCAOyyy67iIngk8WLF8uWW24p2v+7774rJnrPttP3e+65p+i1jz/+uN3NU5eNap86DyOIif7ereXGG28UI/7ZNtr28MMPl9GjR9v+9thjD9tG56pLGg855BDROWi55557ItliG+fhH3c5reZHGzRokGWly35TFV2y+Pzzz8u///1v0euiFl2Cecwxx9hlzO7jqL4W61jnXczxi2V3eNzPP//c3se6DLxPnz5y3HHHyQYbbJDSrXqtEXnFiM4yYcIE+e2331K281caIU9WrVrlr6pwPGzYMLuhin5+NM+iiYAVvc+MuC6tWrWSOXPmiBHDRfP1adENNfTzqJ81I0TKAQccUJDPtX6Ov/76azHRvzZnpBH07NJeIyTK3LlzZcaMGdKyZctIn2tlFdWWCoCosMv3dam/LuPeddddy5OI+QBSypAAEXll6HRMrjIBIvKqjLCsOiAir6zcjbEQgECRCLgReUZIC8xAl7Sapzu73FOXsro/5gHa0SWuem758uWOG7mjEXbhYh60bRTdypUrHZM7zF7jj/px22uEnfany1C1uH327NnTvnf/mThxom2nUW5azIOofa9LerUPkwvM1vuX3mpFVFvsxXn457zzzrNRUI888ohllKnLadOmOUcddZS1QxnwU/oM9POhUW4alZmp6H1688032wg+jVKL4vtcIvKOPfbYwPAafaVj6LJWIwZ6n2mdx0033WTPGeHZXuN+BvP5udbnZx3/q6++CsxLI261/v3337f1UT7XudgSGIw3lgAReY5DRJ751JVjISKvHL2OzVUlQEReVQmW1/VE5JWXv7EWAhAoDgGNyNNoGN14wr+Tqka7aIRMpqIRZPqj0XMmD5iY5beB5l26dLG7cGpEnkYcaSTOFVdcISaHXaCdRjG1bt3aRgVpRJ0bkWfyZMnVV1/ttZ09e7aN6jNLFuX1118XIwhIp06dZNasWbaNWYoru+++u5g/HNoIPI1e0hLVlp122sm2r+o/999/v2hUlEYGnnLKKTai0J1LuO9vv/3WRicZ0U8WLFgQPp32vUbjtWnTxp7XyCb90VKqx6U8dz/7yZMn2wg7s3RUDjroIDFCmDRr1sz6JvyPUVRstOoNN9wgr7zyiuiGDf/P3plASVFdf/iKiguyCIr7ghsoEhEFRf0bVNxwwy0owSgogtsRFVQQBKMoKmBIwINoAIOCCu5gRD1G4x73DYkb7khQwyKiRn3/+7udqnT3dHX3zHTNvJr61TnDdFe9evXe96qG6W/ue7fUVp2IPF33ztoS1Knr3lk0a/C+0HeVynLvvfeGz2Aln2t8fkY0IKLpshPqqMAX3P9PP/20ReeW81xXpy+F+pn2fUx2oT8roTTTfiOksf8UeWkcdfa5tgQo8mpLMF3nU+Sla7zZWxIggfohAJGHbLUaNZfTAI3akU8++UQ0Ks6y1eYc/O8b/JzG9FqIPHwwHDhwYE6xYOorZN8TTzwhgwYNkpEjR8qoUaNyyi1cuFB0jSwJBF0g8q688koZPnx4WDZf5OHA8uXL5c477xRk/Hz88cdNSGI/ptZCjmArty+Y+luJDR8PIRqQrRZ9KiXz0P9JkyZZP5Cdt5wNjHQNvnKKskwdEkDW2mOOOUZ0/Td57733bGr5GWecYfdgoWZoNJxopKloRJzMnz8/vH8LlcW+6og8TNmFzAs2XaPSpvtCMmLae6ENU1sh5INnsJLPNT4/Q1zruoA5l84XeThY6rmuTl9yLsY3RoAiTzFA5HFLHwFOrU3fmLPHtSega3Ewa23tMaamBk6tTc1Qs6MkQAL1SABTa5GYIn/TdbJsuhsybuZvWNBfI+ccpswGU/Auvvji/GKWnRYL+GMan65lZ/Xhd4H8DYvW42NV/rQ+FXk5RTXyzsohiQA2jX5yug5eWAbTfjWayDVu3NjKqfizY+X2JayoAi8wXVHX8XNdunRxQ4cOdRrdaByiqlaZ5/D/nq6nZm0Hj2JfKlqiquL+eiSAZ0Mj9JxGZVr2Z0wbHTFihAvuxUJNQ9ZaXTfSaZSl03Xtio67irxCVeTsC5JdZCd8QQGV7lY3kl8gyUb29tlnnzlkVtY17Gx3HM81Pj8jgU3+hqQwuNc1Is8OlfNcV6cv+dfj+/8lCkpzsguKvJQ+CZ07d3b6F4uU9p7dJoGaEdCFqJ3+VbxmJ/Os1BGgyEvdkLPDJEAC9UAgSuRBouHDtSaryPnQjwyb2I8P5dlr5EFAaUKLsAezZ8+2cprIwvYtWbLE/pgHEfHWW2+F5SADIbtQpybSsP2BRCgl8nRqqZ2nkXhhfRAUyIiJ+j744APbX25fwkoq9CKQefjcAJmnEVo5LPMvA5mn049dq1atrP3oQ9QXRV4+PT/eQ+RhzCBxNdLV1pjEGo0aWeogoqM23CsQWVjXrmnTppHjXhuRp1Fu4fqW2QIczwzWmUS7A3EfPIOVfK7LFXnlPNfV6UsU8zTv5xp5Gjad5hsgzX3XkGP7awt+QHMjARIoTQB/Jcdf5TV7V+nCLEECSoAij7cBCZAACcRPIErk6XpdJuvw4R4f8jVLqtOps65Fixb2gR/RO9iCD/wop9kxbdH8Cy+80KLimjdv7hYsWBB2AhFCKIf9uv6dLfQffGiH7MDvCtl1lhJ5OhXR6tt4443dgAEDnE7bdfvvv7/tg4AMtnL7EpSv5PdA5kFW6jTHkjLvn//8p/3/17JlS+sHeBX6osir5ChVrq5skYdaA5mn08xN5gVyudAVca8g0gyReVEyrzYiD9cMBA5+J8dzquvzOfyhHfcYpDvagC2O57pckVfuc11uX6xD/CeHQMCOEXk5WPgmDQRmzJhhP/AefPDBNHSXfSSBWhPQRa7tmcEHAW4kUA4BirxyKLEMCZAACdSOQJTIQ62LFy+2jKqYDhfIJIg8ZNoMtuADP0QFPqijHKYWQlxlR8oF5SdPnuyyJdUmm2zi+vfvb9N0gzLB79n5Ik8Xyrf6NcFFUNSNHj3a6fp6YfswTRhZYIMMtkHBcvoSlK30d8gRRBsiMg8yD1k786c2Zl8zkHlBduCAffZ3irxsYv68zhd5aBnuRU1+YtmTIbBLyby///3vkTKvtiIP7cHzhem12feTJmbJySYbx3O9/fbbF5xaq2tIWlswXT/Yyn2uy+lLUCe//48ARR6z1urzn85N1xEQ/aujLWCKRX4bNWqUThDsNQmUQUD/27CscliEGgte77rrrmWcxSJpJ8BkF2m/A9h/EiABXwggyyQy2CKrrS6RkZNxUoWSJbtQ6WaJKVRSiEYTSevWrYs2H4k0Vq9ebRllixYs8yCui6yf7dq1y2lf/unF+pJftpLv8bvQHXfcITfccIMceOCBls0ULJFpt9CGRAnIGAq+WPg/f8N+JrvIp1L/75HsAglOdGptToZYnXZu2WDvueceyzbcr18/y8BcqMW4V/D5csKECaJiUFasWBEWU5EnuuZk+L42L1Ruy5dffilIfqHTuXOqStpzXawvOR3jGyPAZBeK4X9ek6/SRkAzbtlfD/RBSFvX2V8SqBYBrLeBH5eFFsKuVkUsnCoCjMhL1XCzsyRAAgklEETu5EfPJbQ7sTY7OzIPvxMhMqtYZB7W1NM/arlmzZrlRE/hdyoVLbG2lZXXjEChiLygJqwhicg8zajshg0bVjQyD+c8+eSTFpmXPf7lROQF16vNdz7XtaHn/7mMyGNEnhndtP6Dv+h17NhRNMxfdIqB6LohjMxL683AfhckoP+Nif5HIRdddJHstNNOouswiE55KViWO0kgnwAj8vKJ8D0JkAAJ+EcgP3LHvxb61SL8bnTnnXeKLjUi3bp1k7PPPtuiHKNm9yDS8I9//KNMnTpVNLlI2BlG5IUovHoRFZEXNHLZsmWiWZrlrrvukj333FPOOOMMadOmTXC4yndE5mH8H3nkEYvMq2REXpWLZe3gc50FowG+ZESeyBrwrQ1wbNmlMglo1i3p1auX6EK+oovrCqYV6JogoguIllkDi5FAwyPw448/yiuvvCIjRoywKQEdOnSQOXPmmMxreL1lj+IiQJEXF1nWSwIkQAKVI4BlM6677jqb5tm7d+/KVdyAa8LHR4gcBALg8wP+v9tqq60iAwI026n86U9/kilTptj0YaChyPPzBikl8tBqTJXWrM4ya9Ys0UQyomtEiq4vGdmhZ555xqZkQ+ZhOnqlptZGXlAP8LkuRif5xyjyKPKSfxdXoAeIzNMFOWXMmDH2g7Vx48ay22672Q9kXey3AldgFSSQHAKffvqpvPrqq/L999/bui+DBw+WK664gpF4yRlCb1pKkefNULAhJEACJEACFSYAmQeZc/3110uPHj3k/PPPF00CEnmVRYsWWWTWTTfdJPiDKSL0uEZeJK56O1COyEPjVq5caWsmYs28Pn362Hp6xT43Pvvss7Zm3uuvvy4LFy6st/7xwg2DAEUeRV7DuJMr1AssSqvpsuWFF16wLyy6yY0E0kZgo402kr322sv+wnjwwQdL+/bt04aA/a0QAYq8CoFkNSRAAiRAAl4SgMybO3eu4DODZg2VHXfcsWg7sZwPPoDfe++9otlPKfKK0qqfg+WKPLQOCTB0zTxLNKGZWyMjMoOezJs3z+4X3APcSKA2BCjyKPJqc//wXBIgARIgARKIJECRF4mGB0iABEiABFJKQBMg2Np6nFrr5w1QHZHnZw/YqjQQoMijyEvDfc4+kgAJkAAJ1AMBirx6gM5LkgAJkAAJeE2AIs/r4RGKPL/Hh63LEKDIo8jjs0ACJEACJEACsRCgyIsFKyslARIgARJIMAGKPL8HjyLP7/Fh6zIEKPIo8vgskAAJkAAJkEAsBCjyYsHKSkmABEiABBJMgCLP78GjyPN7fNi6DAGKPIo8PgskQAIkQAIkEAsBirxYsLJSEiABEiCBBBOgyPN78Cjy/B4fti5DgCKPIo/PAgmQAAmQAAnEQoAiLxasrJQESIAESCDBBCjy/B48ijy/x4etyxCgyKPI47NAAiRAAiRAArEQoMiLBSsrJQESIAESSDABijy/B48iz+/xYesyBCjyKPL4LJAACZAACZBALAQo8mLBykpJgARIgAQSTIAiz+/Bo8jze3zYugwBijyKPD4LJEACJEACJBALAYq8WLCyUhIgARIggQQToMjze/Ao8vweH7YuQ4AijyKPzwIJkAAJkAAJxEKAIi8WrKyUBEiABEggwQQo8vwePIo8v8eHrcsQoMijyOOzQAIkQAIkQAKxEKDIiwUrKyUBEiABEkgwAYo8vwePIs/v8WHrMgQo8ijy+CyQAAmQAAmQQCwEKPJiwcpKSYAESIAEEkyAIs/vwaPI83t82LoMAYo8ijw+CyRAAiRAAiQQCwGKvFiwslISIAESIIEEE6DI83vwKPL8Hh+2LkOAIo8ij88CCZAACZAACcRCgCIvFqyslARIgARIIMEEKPL8HjyKPL/Hh63LEKDIo8jjs0ACJEACJEACsRCgyIsFKyslARIgARJIMAGKPL8HjyLP7/Fh6zIEKPIo8vgskAAJkAAJkEAsBCjyYsHKSkmABEiABBJMgCLP78GjyPN7fNi6DAGKPIo8PgskQAIkQAIkEAsBirxYsLJSEiABEiCBBBOgyPN78Cjy/B4fti5DgCKPIo/PAgmQAAmQAAnEQoAiLxasrJQESIAESCDBBCjy/B48ijy/x4etyxCgyKPI47NAAiRAAiRAArEQoMiLBSsrJQESIAESSDABijy/B48iz+/xYesyBCjyKPL4LJAACZAACZBALAQo8mLBykpJgARIgAQSTIAiz+/Bo8jze3zYugwBijyKPD4LJEACJEACJBALAYq8WLCyUhIgARIggQQToMjze/Ao8vweH7YuQ4AijyKPzwIJkAAJkAAJxEKAIi8WrKyUBEiABEggwQQo8vwePIo8v8eHrcsQoMijyOOzQAIkQAIkQAKxEKDIiwUrKyUBEiABEkgwAYo8vwePIs/v8WHrMgQo8ijy+CyQAAmQAAmQQCwEKPJiwcpKSYAESIAEEkyAIs/vwaPI83t82LoMAYo8ijw+CyRAAiRAAiQQCwGKvFiwslISIAESIIEEE6DI83vwKPL8Hh+2LkOAIo8ij88CCZAACZAACcRCgCIvFqyslARIgARIIMEEKPL8HjyKPL/Hh63LEKDIo8jjs5ByAp999plcfvnlRmGHHXaQYcOGRRLBh/Jvv/1WtttuOxk+fHhkudoeGDFihHz++ecyderUsKpFixZJmzZtwvd8QQIk4D8Bijz/x4gtJAESIAESqFsCFHl1y7u6V6PIqy4xlq8PAhR5FHn1cd/xmh4ReP7556Vr167WosaNG8uSJUukRYsWVVr48ssvy5577mn7u3TpIi+88EKVMpXasf3228uHH34ozjn58ccf5eSTT5YvvvhCnnvuuUpdgvWQAAnUAQGKvDqAzEuQAAmQAAkkigBFnt/DRZHn9/iwdRkCFHkUeXwWUk4gW+QBxbRp0+S0006rQmXIkCEyduxY2x+3yJs4caKsXLlShg4dKt988420atVK9t57b4q8KqPCHSTgNwGKPL/Hh60jARIgARKoewIUeXXPvDpXpMirDi2WrS8CFHkUefV17/G6nhAIRN4mm2xi0Xg9evSQefPm5bQOkXHbbLONLF26VL7//nuJEnkrVqyQVatWyWabbZZzfqE3iLRDfVtssUWhw+G+ckUepuJC+K277rrhubV58dVXX0nz5s1l7bXXrk01PJcEUk2AIi/Vw8/OkwAJkAAJFCBAkVcAike7KPI8Ggw2JZIARZ6iUUnBjQRSS0Cnqzo8BirwnK6R51RcOZVnOTyeeuopK9O3b1/7riIv5/jMmTPtXNSDr5YtW7rBgwe71atXh+VmzZpl+6dPn+6OOOIIp8LNym644Ybu6quvdr/88ktYVqPvnEo5h+viOOpca6217PzJkyeH5TRqzw0YMMDpVGArs+aaa7rOnTu7l156KSyDF23btnVbb711zj68OeWUU6zOBQsW2LFOnTq5bt26uXPPPdetscYaTkWemzJlSpXzuIMESKA8Auedd549myr4yzuBpUiABEiABEiggRN44okn7P/GW2+9tYH3NJnde+yxx2x8br/99mR2gK1OBYEbb7zR7tMXX3wxFf0t1EmKvEJUuC81BLJFnia6sB8IOr02p//nnHOO7Z8/f759zxZ5KAvRBjF35plnuksuucTpGne274ADDgjrgcBDOcg2SDmIwxNPPNFeY/8dd9wRltVkGlb2nXfecf3797fXm266qdPoHodffrD99NNPDuIN50Icoo06Jdjqh4zM/qHWunVrt8EGG4T1By969uxp57/xxhu2S6MD7T3qxPVQD/4z50YCJFAzAhR5NePGs0iABEiABBouAYo8v8eWIs/v8WHrMgQo8nTKIG8GEkgzgWyR9/rrr5vIOvzww0MkEGY67dZB3r3//vt2PBB5X3/9tUWtNWrUyKGeYNMptq5Dhw5WNvhrViDyINQ0kUVQ1F177bVWrnfv3uG+QORhB64BsYYovexNw4ltf8eOHXMi/3A9lN9vv/3C4tUVeWeddZadi35kRwqGFfIFCZBAWQQo8srCxEIkQAIkQAIpIkCR5/dgU+T5PT5sXYYARR5FHp+FlBPIFnlA0a5du5zptY8++qiJsRtuuKGKyNM1JOzYscceW4UiIuwg1E499VQ7Foi8Pn365JT9xz/+YeWy5WE5Ig/Tc1H/zTffbLINwg1fP/zwQzgd99tvv7VrVVfkvfnmmzlt5BsSIIGaEaDIqxk3nkUCJEACJNBwCVDk+T22FHl+jw9blyFAkUeRx2ch5QTyRd7IkSNNkE2dOtXInH766Q4Rd5pMoorI0+yyVvbyyy+vQhHrzmVH0gUi77LLLsspi+g8lOvevXu4vxyRt9NOO9l5ODfq67XXXrM6qyPysDbed999F7aFL0iABGpOgCKv5ux4JgmQAAmQQMMkQJHn97hS5Pk9PmxdhgBFnnNrAIWKAG4kkEoCQdbaIFutrksnu+yyixx22GHywAMPCLLZ6vRVefzxx+WDDz4QTYgRZq2dMGGCDBo0SFT+yai75fbRAAAZqUlEQVRRo3L4LVy4UHbeeWdRQSca1Se6oK/oGnZy5ZVXyvDhw8OyixYtEhV3YTkc0DX2RAUfpr1LVNZaZNH95JNPRCP8LFttWGHWC2TMRN3oA7LpaoRe1lGRQw89VB555BHRNfJEpwLLlltuKchWi8y83EiABGpPgFlra8+QNZAACZAACTQsAsxa6/d4Mmut3+PD1mUIMGutcsg4Tf5LAukkkB+RBwpY3w6JHoL15m666SaDk79G3rx58ywarlevXlXg3X333XZsyJAhdiyIyFORl1O2phF5Bx10kNWPqMD8DX9JQ79UyNmhzTff3JJq5JcLknJkJ7tYZ5118ovxPQmQQA0JMCKvhuB4GgmQAAmQQIMlwIg8v4eWEXl+jw9blyHAiDxOreWzkHIChUTeVVddZZKsadOmJvSQcAJbvshbsmSJa9KkiUmyt956KyQJgYaEGPDkM2fOtP01FXnLly+3enbdddewfryAEET9e+yxh2WwDQ7OnTvX9m+77bYuWCOvffv2tg9r+gUb1v7DlGHUQZEXUOF3EqgsAYq8yvJkbSRAAiRAAsknQJHn9xhS5Pk9PmxdhgBFHkUen4WUEygk8t59910TXJBcSCoRbPkiD/uvueYaK9u8eXOH9e/Gjh3rdt99d9uHc5F8AltNRR6y5iJKDm056qij3Jw5c6w+rGMHWYf9yGg7btw4N3DgQNeiRQvb9/DDD1s5/HPxxRfbPqyVp1OBnU7xdciei3PxRZEXouILEqgoAYq8iuJkZSRAAiRAAg2AAEWe34NIkef3+LB1GQIUeRR5fBZSTqCQyAOSTp06meS67bbbQkK6np3t69q1a7gPLyZPnuxatmwZijFdk871798/nNqKMjNmzLDj+VNrP/74Y9uv69WhmG1IdrHmmmsGbx0iBNdaay0rBwkXbIsXL3Y9e/a0soGUg8iDTMzeVqxY4U466aQwAg/ThpE999JLL7U63377bSu+xRZbmDTMPpevSYAEak6AIq/m7HgmCZAACZBAwyRAkef3uFLk+T0+bF2GAEUek12o/+BGApUhgOQTq1evlrZt21amwqxakKhCp9la4gqVellHRDTqTzSKUNZbbz1BEgwVdTnHgzdIeKFRhaIZb61ssJ/fSYAE4iHAZBfxcGWtJEACJEACySXAZBd+jx2TXfg9PmxdhgCTXYgway2fBhIgARIgARKIgQBFXgxQWSUJkAAJkECiCVDk+T18FHl+jw9blyFAkUeRx2eBBEiABEiABGIhQJEXC1ZWSgIkQAIkkGACFHl+Dx5Fnt/jw9ZlCFDkUeTxWSABEiABEiCBWAhQ5MWClZWSAAmQAAkkmABFnt+DR5Hn9/iwdRkCFHkUeXwWsgj88ssvsnDhQnnhhRfsS5MpZB3lSxJIB4GNNtpI9tprL9FswNK+fXvRxCPp6Dh7WXECFHkVR8oKSYAESIAEYibQt29fOe644+Soo44qeaWHHnpIXnrpJdHkTrLhhhuWLI8CFHllYaq3QhB5F1xwgfTq1Usuu+yyou3AZ8dbbrlFVq5cKf369Sv7HihaKQ+SQBkEKPIo8sq4TdJR5G9/+5uceeaZlgwBPW7UqJH9MF5jjTXSAYC9JIH/Evj3v/8tP//8s73baqut5OabbxbNKkw+JFBtAhR51UbGE0iABEiABOqZQJs2bWTnnXeW4cOHyz777FO0NW+88YacddZZ0rNnT/sc0bx586LlcZAirySiei0AkXfCCSdIx44dZfTo0UXvAc0fKjNmzJCZM2faOZB/TZs2rdf28+LpIECRR5GXjju9SC9XrFghQ4YMMVmBv6ThL2r77ruvdOnSRcr5z7hI1TxEAokkgAzB+Ovys88+KxMmTJClS5fKgAEDZOzYsdKkSZNE9omNrh8CFHn1w51XJQESIAESqDkB/BF/nXXWkV//+tcyatQo6dq1a2Rlq1atkmnTpllUVu/evaV///4lo7Io8iJxenEAIu+QQw6R9dZbTw4//HAZNGiQfTaMatxHH30kU6ZMsdlcuAdOPPFEadasWVRx7ieBihCgyKPIq8iNlORKEDY/d+5cOf7442XixImy6aabJrk7bDsJVJQAJN7AgQPlnnvusWdkzpw5Fa2flTVsAhR5DXt82TsSIAESaIgEgtk4jRs3lgMOOEBGjhxZVOYtX75cpk+fbpFZiMg6/fTTpWXLlpFoKPIi0XhxIBB5mDYLIQepd/7558t+++0X2b5FixZZUAj+EH7SSSfZ78wMCInExQMVIECRR5FXgdsouVXcddddtv7B2WefLZMmTUpuR9hyEoiZAKadY4otpg/06dMn5qux+oZCgCKvoYwk+0ECJEAC6SEQiDz0eO2115aDDjrIZB7WDo7ali1bZpF5d9xxh0VkYZ29Vq1aFSxOkVcQizc7s0UeGhXIPPxO83//93+R7fzwww8tMvPVV1+V3/zmN3LsscdKixYtIsvzAAnUhgBFHkVebe6fRJ+LRUnbtm1rC/kvWLCA6xkkejTZ+LgJYLrtbrvtJlg/75133pFNNtkk7kuy/gZAgCKvAQwiu0ACJEACMRHATJhXXnlFrrrqKtl8881jukr1q80WeTh7rbXWku7du9s0WyQDi9og86ZOnSqzZ8+2iKxTTz1VNt544yrFKfKqIPFqR77IQ+Mg8w4++OAwMi//Hgk6AJn35z//WV577TW7ByDzyk2CEtQR9/dPP/3UxPSee+4pCGbhlkwCFHkUecm8cyvQ6gceeECOOeYY+2GLLEPcSIAEihO4//77bTFnZOfCtBFuJFCKAEVeKUI8TgIkQALpJQDJcd9998nbb78tu+yyizcgCkmaNddc06ZYYs28zp07S6Ey6AD+4AmRg36hf6eccoq0bt06p28UeTk4vHtTSOShkYHMC9bMi7oHIPMgdCHzkP0YiVCKTbWuawCvv/66JfLAWn6YncYtmQQo8ijyknnnVqDVSCd+9dVXC37YttHsVNxIgASKE0BiGPxVEeIb02y5kUApAhR5pQjxOAmQAAmkl0CSRB5GqVGjRnLooYdaZB6imfC+0AaZhz96PvjggxY0gCVJsmcyUOQVoubPviiRhxYiIy3WzKuOzMN9ji9fZB5Fnj/3Wm1aQpFHkVeb+yfR52K9C/wF8Msvv0x0P9h4EqhLAh06dLC/Qr/xxht1eVleK6EEKPISOnBsNgmQAAkUIIA/6CFL62abbVbg6P92/fzzz/L1119XiURDiX/961+2bhgSSRQTeV999ZUgWQDWqMvfPv/8c1t/bt11180/VJH3UZFWQeVHHHGEjBgxQiDzEKlXaIPMwx89H3roITn66KMF2UyDhHoUeYWI+bOvmMhDKwOZd8EFF8g+++wTGZ2JBBjBNFtE5SE6ryYyD0k3cM9jmnapez7qufnPf/5jzyTuwVIiL6qO7777TjB93Kdp8P7cNXXfEoo8Ze64pZKARuG5bt26pbLv7DQJ1JSAhuG7Jk2a1PR0npcyAuedd57Df7P6wS9lPWd3SYAESKDhEJg5c6bbYYcd7Oc5fqarjHCDBw92q1evDjupSR5s//jx451Gn1nZTp06Of3wb2V0PTyna+3afpUR7uSTT3a65pi91z+sWxmUx+/m5557rlOZ5lTkuSlTptgxXdvaDRgwwGnyADtHBZrTKa5Os4SGbajUC/Sx1NdRRx3lnn/+eaeCJPKyKjPdNddc4zTzrRs3bpxbvHixlX3iiSes/ltvvTXyXB6oPwKPPfaY02jLoveAyjx3/PHHu2effdapuI5srM78cjoLzPXo0cOp2HW4J8rdVN653/72t2699dYL7/k99tjDPffcczlVFHtuPvroI3fCCSfYs4R7etttt7V7Eq/xO32wFasDPHbdddeQCZ7/Sy+91P3444/B6fxeDwRuvPFGuy9efPHFeri6H5ekyPNjHOq8FfhBduCBB9b5dXlBEkgygZNOOokiL8kDWMdtp8irY+C8HAmQAAlUmMC0adPswyLkm2awd5dcconbfvvtbR8EVbBBUgTyS6PonEb+uP32288Oz5o1y45BAFx44YWuf//+DmWC8oHI22KLLcJ9OB9lIBF++uknB9GA8qjjnHPOcaeddpqDzEOZSn+QDdpV6rtG2plUKSY0IG50KR/7zAHJ+cUXXziKvOCu8fN7OSIP98YGG2xgMg9irZjMg0wbPny4O+yww0zmffPNNyU7DnG944472j2vkZ8mA/E7OAQ37nuNGgzriHpuINF33313qwPSHEKxY8eO4TOWLfKi6rj77rvtmuivZuw1gde+fXurQyNqwzbwRd0ToMhzbg1g15uTW8oIYF287bbbThA+zY0ESKA8AvoXdFvzBVlsuZFAKQKcWluKEI+TAAmQgL8EVDjY78oqFeSZZ56Rvffe2xqL9/vuu6+8+eabcvvtt9u0UawJp4JOVG7Iq6++KhrBJ5iKq6JNNtpoI8HUPizL0a5dO6sD68dhyim2t956S1QOyJZbbmlTCM866yzRD6mC66C+m266SbBPJYSoNAmnF2qkoGjEkqgwlKeeesrqqsQ/pabWZl8DUyavuOIKS9aB7LaFNnBEH/CZA1lv8dFTI/VExahxLHQO99UfASy7NHToUMGU1lLb+uuvL4cffrio4Lap1lH3DjLF4h5Q6WzPCzIaF9uGDRtm9wieEZVpljkZ5adPny59+/aVtm3byoIFC2ydxqjn5sorr7TstL/73e9Eoz/tcj/88INoIItoJKFopJ5lWMaBQnXg2cXz+vHHH4tG3EqvXr2sDo3EtZ8FeJ5VegqWq+JW9wQ4tVaZ170/5RV9IMCIPB9GgW1IGgFG5CVtxOq3vYzIq1/+vDoJkAAJ1IYAon7wUalQ5A2m0uKYCgm7RBCRh+mG2Rui5VAuO/onOB5EC6nIs11BVJAKwqCIfdc16awOXEPlSvilUsJpEi47pn9gzDmnNm/Q3up8qcwMpxBHXVfXS7Mptpqdt1p1V6cdLFu9cYvihfuy1NTa4FxEyGk2W3fDDTfYfRk1/tiva9O5Ll26OF0vsVgxO4ZyuAbOyd923nlnO4Z7Clup5yaIeLXC+s/9999v52PKbbAVqiN4drfZZhubQp797F1//fVWx5AhQ4Iq+L2OCTAijxF5+jMinRsj8tI57ux17QgwIq92/NJ2NiPy0jbi7C8JkEBDIjBp0iTR9erk8ssvt6iz7L698847FoWGKD1EyQURebp2lkUSBWWx2P8ZZ5whOrVQECGUvZ1yyily22235UTk6dRTS6ih64KFRRF99O6774bvC7147bXXRNfgK3So2vuioqoKVYTIRJUaFo2FCKZCGyILZ8+eLYggRBtVjMj5559vUV/IgsvNLwK41wYOHFhWRB6ST3Tt2lUQQYfItKh7Z+nSpRbVdt9998mRRx4pSJRRbEOkH6Ln8JUf6YnIuLvuuksefvhhy6KMaLpCz81WW21lEa6oI/ve/OCDDyxiNj8iL78OnRJv0YPF2omI1HvvvbdYER6LiQAj8pi1NqZby/9qKfL8HyO20D8CFHn+jYnPLaLI83l02DYSIAESKE5gwoQJMmjQIJueN2rUqJzCCxcuFI0Mku7du8ujjz4aijxMGYXMCzaNorMppLo+l1x11VXBbvuOqaU4rhFDJgUhJJAx8/vvv88pB/H1ySefSJ8+fSxbbc7B/77B/zdYMqcSW5SMya8bAgdcNEGHIAtvoQ0Sb86cOTJjxgwTPph+jKmKOAfTHTHtkZtfBDAF+pBDDikp8iCbIbI1Ks3KR2UwRqZmTE194IEH7HnB1FhNCFO005iOjszHuv5ilczIgch7+umnbWp21HOjUXYm+DCtPVsGQtjhmEbJmhBEQwrVoetjSr9+/WTrrbe2DNOFGqzr+ImuWVnoEPfFTIAiTwHXcRQkL+cJAU6t9WQg2IxEEeDU2kQNV703llNr630I2AASIAESqDGBefPm2fQ5FQdV6sAi+PgYFUytC6bWIktr9vbyyy9buUJTa5EsA3VkT61dZ511sk+31xrpZOWQ+TZ/Q2ICJBtQ+Zd/qMbv0aZSX7rWnZs/f37RzJ26RqDTNc3c/vvv73TNNYekB9iY7KLGQ1MnJ5aT7AKZZHH/PvTQQ0UTXeh6e06FuFPh7caMGePwvpwNGZlxD2rka5XiHTp0sAQUKontGKbFFnpukFkZdeRPrX3yySdtf/7U2vw6dN1JK4fEM0g4k7199tlnTiMCw3s6+xhf1w0BTq3VxUbrBjWv4hsBijzfRoTtSQIBirwkjJI/baTI82cs2BISIAESqC6BJUuWWKZ6jeYJZRvqgDQL1vDS6aJWbZTIQ0ZXnSZo2WWzpQQEH9YXg2goJfJ0Sq6V22OPPXKEwty5c20/fqevyzXyIFkeeeQRWzcsiikky1/+8hfL3AuJp1F4YVGKvBCFly9KiTzcz5B4uP+KZauFtPvDH/7gkDH22muvLVviAQoEOZ4NrKeHtemCTaex2v6ddtop2GVr5OVLOBwcPXq0ldVI1rAs6tLpsLa/lMhbvnx5uAalTgkO64DU00hEq6OQXA8L8kWsBCjyKPJivcF8rpwiz+fRYdt8JUCR5+vI+Nkuijw/x4WtIgESIIFyCSDCDkKhefPmTqfHurFjx7ogSQWSUCDhBLYokYdjSIwBadeqVSv3+9//3ul0VNeiRQurtxyR99133zn83o6yEAjjxo1zuoZZWAcigyq54TqFvtAHyESdSpwjFPOvDYmnU2mdTr11Os3Y6bTgnCIUeTk4vHtTTOQFkXiadTlHsOV3AhIPCTAQiXfddddVS+KhrmXLljmdfmv3IUQgovrwO5Wuded0XT6HNgZbVETeqlWr7H7FvYzoPEhFzbAb3tulRB7qD2QRrnnhhReakNxnn32sDl0fsiiDoH38Hg+BYGyQlCStGyPyUjryFHkpHXh2u1YEKPJqhS91J1PkpW7I2WESIIEGSGDy5MmuZcuWoQCAYNC13nKmsxYTeUCiiTPcDjvsENYBCYDfKSAZgql/UUIC5y9evNgiiXQdsrAOyECIxUpvhSQesph26tTJJF52hFT+tREZiCy2iFi85JJLHKYg5m8UeflE/HofJfICiYdIvGL3ACTe+PHjHaaEI7trudNp8ylgKrau1Rdm0MW9H0zpzi5b7Ln5/PPPHYQ7RBzu6yZNmpiMw+vs6e7F6oCUxvTa7OcCEYnvv/9+djP4uo4JUOQxa60+k+ncmOwinePOXteOAJNd1I5f2s5msou0jTj7SwIk0JAJIOHE6tWrBVlka7rph39p1qyZtG7dukZVIAMnsooi0QCSYGRn46xRhQVOyk92gSQGyDara5yJRkcVOCOzSyOgRCO1LIstyuH/wM0337xKeV2jjMkuqlDxZ0ehZBe435DYQqPSRMVYZHZaJLZAJmaVfVYOmZlreq8HRDQiVd577z1L5tK0adNgd7W+o44PP/xQ2rVrl5P4ojqVqEwXlZKW/EKja6tzKsvGQIDJLpi1NobbKhlVUuQlY5zYSr8IUOT5NR6+t4Yiz/cRYvtIgARIgATyCWSLPEi8X/3qV6JrnBWVeBAlmhxEdF0yOfTQQ+WCCy4QjWLKr9reU+QVxOLNznyRF0i8iy66yORcVEMDiYfstEceeaScdtppguyz3EggDgIUeRR5cdxXiaiTIi8Rw8RGekaAIs+zAfG8ORR5ng8Qm0cCJEACJFCFQCDyNMmHaIZQi8TTKY5VygU7EKWo2Utl5MiR0qNHD4Hw0enHweEq3ynyqiDxake2yAsk3uDBg21soxq6dOlS0Smoosko5JhjjpG+ffsKo9aiaHF/JQhQ5FHkVeI+SmQdFHmJHDY2up4JUOTV8wAk7PIUeQkbMDaXBEiABEjApk2WK/Ew1fevf/2r6Hp4cvTRR8vFF18sG2+8cVGKFHlF8dT7wUDk4R7QtRxtTA877LDIdn399dcyffp0mT17thx//PFy+umni64pGVmeB0igEgQo8ijyKnEfJbIOirxEDhsbHQMB/CX5+eefF124tmTtFHklEbFAFoFA5GFdlagpRlnF+ZIESIAESIAE6p0AIqk0KZ5oxl4pFomHhi5cuNDkDSLxhg4dWpbAocir9yEu2gCIPEhZrCdX6h7Q/AYyc+ZMmThxovTs2VMGDBggmoSlaP08SAKVIECRR5FXifsokXVQ5CVy2NjoGAho5jm59dZbZdasWfbLaLFLUOQVo8Nj+QT69esn06ZNk86dO8ujjz4qzZs3zy/C9yRAAiRAAiTgFQH833XcccfZOmelGoYptS+99JJolnbZcMMNSxW34xR5ZWGqt0IQeVjjULMqy7Bhw4q2Q7PXyi233CIrV64U3Dfl3gNFK+VBEiiDAEUeRV4Zt0nDLEKR1zDHlb2qPoFPP/3UovGQja6UzKPIqz7fNJ8RROSBAbK9Pfzww5R5ab4h2HcSIAESIAGhyPP7JoDI6969u9x+++3Su3dvvxvL1qWWAEUeRV5qb36KvNQOPTtegEC5Mo8irwA87ookEIi8MWPGyKWXXkqZF0mKB0iABEiABNJCgCLP75GmyPN7fNi6DAGKPIq81D4LFHmpHXp2PIJAOTKPIi8CHncXJBCIvFWrVsnkyZMtkx8j8wqi4k4SIAESIIGUEKDI83ugKfL8Hh+2LkOAIo8iL7XPAkVePEO/aNEiAVtuySRQSuZR5CVzXOur1dkib/3115fx48eHMm/+/PnSrFmz+mpaqq67bNky6y8X4E7VsLOzJEACnhKgyPN0YP7bLIo8v8eHrcsQoMgT+X8AAAD//4pm14wAAEAASURBVOydBbwcRfa2KxAsuBN8keAeIEBwd3cILoEAQYK7OyxuwZ3FFncW9+CwuENwd+jvvPX/arbv3OmZnnt77nTPPPX7TWamu/pU1VPddVPvnKrTK7LkSG1H4B//+IebYYYZ3H333dd2bW9Eg3///Xe38cYbu08++cQ9/vjjjSgCmz1E4MMPP3RLL720++CDD9xVV13l1l133VLJ6uNbbrnF/fjjj6VjfIBAEoFdd93VnX766e6nn35yffr08dlOPvlkt+eee7oBAwa4u+66y4033nhJl3M8AwK3336722qrrdyll17qVlxxxQwsYgICEIAABLpD4D//+Y9baqml3CWXXOIGDRrUHVNc2wACmhsut9xy7oorrnCbbLJJA0rAJAS6T+Dss892O+20k3v66add//79u2+wgBZ6IeQVsNcyqDJCXgYQYya+/vprN/HEE/vJOUJeDExBP8bFvKuvvtqts846viUIeQXt0CZVu5KQp6og5vVch4Q+uPPOOxHyeg47JUEAAhBIJICQl4gmFycQ8nLRDVSiBgGEPAMkIY/UfgSmn376aJlllumRhv/888/RV199VbOs7777LjKPtpr5lOGzzz6LzMulZt7ffvst+uijj2rmU55ffvmlZr6ktqh9epzMyybRhur78ccfJ54PJ7744ovIPPzC107vf//9t+dk4mGnc+UH0pb5559/RiNHjiy/vK7vaRmmNVqLQ1o7Xc1nHnnRjDPOGI022mjR9ddf781stNFG0dhjj91Vk1zXZgR22WUXPy5UGqtOOumk0pihsa8ZSePtX3/9VbXoesbltONt2nxpxy81IKktoQ9MyKvYzrRl1Boj6xmXVZE042WtMis2qOxgmnLKLqn6NYs6VS2AkxCAQMsTePDBB/3fP/PIa/m2FrGB9957r+8f88grYvWpc5sQOOuss/x9ah55bdLizs1EyOvMpC2O9ISQZ0sQoyWXXDIaY4wxolFGGSUaOHBgdMopp3Tie+WVV0YzzTSTfxglhk000UTRXnvt1UFYm3feef31+qM/3XTT+byyucgii0T//e9/SzZtKaS//uKLL45WXXXVaMwxx/R5J5xwwujoo4+ONNkK6Ycffoh22GGHaIIJJvB5Rh111GjBBReMnnnmmZCl9F6tLQ8//HAk+6p77969ffnnnHNO6Vr9QZxzzjk9g9C+fffdt4NYN//880e2zCAaMmRI1KtXr2j88cePzjvvvJKN8OGAAw7w52RHrymmmCI67LDDIk2u4ilNmeZp5utq3kHR5JNP7u2pHquvvro//sgjj8RN+s+LLbaYP/fWW2/572kZzjLLLNG0007byd7mm2/u7b366qv+XFoOnQw16IDEPFuCXhLzEPIaBLpFzQYRqZKQpyafeOKJ/rnTONZTYp7qst122/nnUWPIZJNNFm2zzTbRSy+91KEX0ozLacfbtPlCBdKMX8pbqy2rrbaa//ujdo477rj+Wa6njKQxUj/oxFPacTnNeJlUZjPH5aQ6lXOIM+EzBCAAgSQCCHlJZPJxHCEvH/1ALaoTQMiz7fGqI+JsqxJotJCnP9IS8EYfffRo++23jzShDWLRddddV8J60UUX+YmsBDfl22effbwXlCZetk9ZKZ/qK+FOIpcEIU08+/Xr56+dbbbZSvkk4OlaiXIS1VZZZZVo/fXX9591XBMSJQlfEo10TMLhzjvvHG255Zb+OnlgxdX9Wm157bXX/MRYtiSs2VKuSNcoyZNLdda5xRdfPJKAN8ccc/jva6+9ts+jf6aaaip/LNhQHfSHNJ7CgGXLor3gN3jwYF+erjnmmGNKWdOWef7555fKVHmqu8RWc1X2xyVyxtOLL77oj0vsVKqHocSCccYZJ27Of15rrbW8TdlWSsPBZ+zBf+Jinu5nPPJ6EH7Bi6ol5Kl5PSnm6ZmVuKUxQ+OfBKhll13Wf5977rlL3nlpx+W0423afOKRdvxK0xb9SKF2qb1rrrmm//tSTxlJY6RshJR2XE47XiaV2cxxOalOgQHvEIAABOohgJBXD62ez4uQ1/PMKbF+AuH/X/E5e/1Win0Fe+TZ//DbMTV6jzwTZHzgh/vvv98HDhBj8/hw5lnnzKPOmfjlN4BXwA3zUnCPPvqo319O+fTdPL98/rDRqur73nvvOfNYc6eddpozccx9++23zkQxX84bb7zhZp55Zr9xrglyzkQjZ+KQ03VKxx9/vDOR0G/aKpvmMedMCPP10Z52JiT6fOaF4jbddFNngpYzTzt/LG1byvfIs+VjzjzR3Pvvv+9MQHQbbriht2dLeH1bVT/7Y+lsIu2mnnpqZ8tufZ1sYPIM1Aa1MySbgLvbbrvNs1p00UX9YdVdgRlWWmkld9NNN7l6yrzggguceeZ4ViNGjHDmFem+//57Z16Lrm/fvn5z/k8//dSZeOXL2nvvvd0JJ5zgVD+xq4ehibjOvDd8u0J79G5ipq+3WMw111ypOMSv76nPCnwhzu+8844v0sSXniqacgpMQM+kebY6E9qdieWJLdF+QQqiovHiqaeealgADBNknP1g4secO+64o1SnDTbYwNkPLM68gH1wl7TjsjYqTzPeps1Xz/iVpi0a38r3yKunjKQxMh6gJM24rI5PO14mldnMcTmpTnEOiTc3JyAAAQiUEWCPvDIgOfvKHnk56xCqU5EAe+QZlmLrkNS+qwQa6ZGnvYp0a8m7qzyZEBU99NBDflmp/aHw+eKeaSG/POdkY4sttvCHVF99D0s6Qz553On4k08+6Q8Fz4/NNtssZPHvNjn2+VZeeWX/XctudZ08DbTcNrxskldaJmuRSf2+S8pXqy2V9sjTLwS6VkuB//jjj1IZKssEMX9u2LBhvj7BE618eVu8ERaZx1+jffjEJ+w7KHsh1VNm8LKwqKzh8tK7BXXwZZkQ4Y9pH60pp5zSe1mGvfnSMpSBej3yqnEoVbKHP+i+VX/ygkEj74HwzDXi9pbXs+pe7u1rwV2iG264IbIfS6J6xuW0423afPWMX2naIobBKzLskVdPGdXGyNA/acZl5U07XlYrs1njcrU6BQ68QwACEEhLAI+8tKSakw+PvOZwp9T6COCRF0V45Nmsph1TIz3ybr/9dmeTFrfttts6mwAk4j3zzDO9h93BBx/sbJ+3DvnksTf77LOXosCqvvJskzdF3LPFhD536aWXeq8XefEFzw9bMuaOPPLIks13333XyctE4dTvuece7/kiL75q6fnnn/decmnaUilqre0LVTNsuy0tdTfeeKP3RDMB1HspjjXWWBWrZSKmj7oYvMJs+bBbeOGFne3b5j3kbCmxq6fM4GVhy329x1C8UDFaYYUV3Hrrrec9dcJ3eRXKu1BJ3kNpGM4zzzyuHo+8Whzi9eypz7r3bA9D7xWqMl955ZWeKppyCkzA9uV08gB+9tlnS16/lZozfPhwH8m2f//+Tl7Mtp9bpWzdPrbQQgs5E7KcBUBw8jSulOoZl9OOt2nz1TN+pWmL2lfukVdPGdXGyMAuzbisvGnHS/WPPAnzNC6n4RB48A4BCECgFgE88moRau55PPKay5/S0xHAI885hLx090rL5WqkkPevf/3L2b50zvZY88uJkuD985//dEOHDnWHHHKIO/TQQztke/31153tfVcS3lRf8xpxts9Qh3xJQt4RRxzhDjzwwFLeciFPy3u1XNI895yWxFZKmgA+99xzqdpSScizfabc1ltv7WxPP7+EtFIZWg5s+/N5Ie/LL790v/76a6VspWO2Ib675ppr3K233uon/LbZuz+npbVaKldPmWFypmV/mjTGk3n5+WXJn3/+ubMIwc68Wtxll13mzKvFi4nKm5ahBFQJeaqreTnGi/G27r77br8MOiytTcOhg5EGfwkingRGiae2V2OndjS4CpgvKIEgIune79OnT8VWHHfccf7503J+/QjSKBFPhVvQHS9Ca8m87YlZsT71jMtBoKs13qbNV8/4laYtamDogzB21VNGtTEyDq/WuKy8acdLCbkS8vI0LqflEGfCZwhAAAJJBBDyksjk4zhCXj76gVpUJ4CQZ3zqc2Ikd6sQaOTSWhO//PItbaJenhTMQsEnTKiLtMxWt6B5eZVn8xue61xYeqr6KoBFeRo0aJC3ESKshiVcNrHskNW82Hw+88jzx8MG72eccUaHfPoil3Lbey4yUS1K25ZKS2sVzVZtUBAJbXQeT+YRE2mpl5ayKWlprYKDVEvm1RPFl91pGbB58/mAIirHxMqonjLDcql4oIx4+QcddJCvv6LnKlCF7eNX2gxf+dIyVF4ty1XwkfI044wz+jLiwS5qcSi30cjv6h/dewpyIfZErW0k7dazHZZ1KrpqpXTsscf6+1/RoG1/ykpZMj22xhpr+PI0TsSTeZhGK664og+aU8+4nHa8TZuvnvErTVvUxtAHYWltPWXUGiNlP824rHxpx8taZTZjXK5VJ7WPBAEIQCAtAZbWpiXVnHz2g5L/v4KteGpOBSgVAikIaA6v+e8zzzyTIndrZkHIa81+rdmqRgp5FtQgmnTSSX2UWVueWqqLhCaJcRJFzIMhGjlypI8AKoHn5ZdfLuWTgGbLpvzDacEn/PGshTwJfXr4F1hggQ4im3m6+eMqT3vkpW2L2iN75iVSaoeOTTjhhP54XICTqKd97pQ/CIlphLz55pvPX6M/sCHJlqL4ytbbb7/tuaYts9bkTPYUcVcinuzvv//+oVj/npahModIvdp/KyRbruvvEdnOo5AnEc88QUsinuqNkBd6j/c0BIKIVEnIM088/1z1lIin+oa9Ocv3xVQUcD2Hiqpdz7icVqBLm6+eMTNNW9Tm3Xff3bfNPMX1NdMxUvbSjMvKl3a8zOO4XKtOah8JAhCAQFoCCHlpSTUnn61EKf2foDk1oFQI1Cawxx57+PtU/29t14SQ16Y930ghT0jPPfdc/3BNMMEEke2B5ydT8ujSZDF42SmfvMF0bPzxx49sX7vIooGWJkbaHFxeZ0pZC3kS6GRTZUtUO+mkk6Idd9wxUn11LHhvqOw0bZGgJk8yXbv66qtHYdIYNuK0qLiRBhxN3i3irM+nCXwIVJFGyLvrrrv8dRJJbdlyZEuSoyWWWMIfkyAZUtoy00zObF84b1/tsv3wQhH+vR6GFvHW21HQC1tOHVmky5JAKNt5E/IqiXhqNEJeh1uALzUIJAl5zRDxVFWLmO3FaT1zthzfj78KAGTLxSPbYiDSf96V0o7LaQW6tPlUdtrxK21bgoAmUd4ikvsxN20ZacbItONy2vEyTZk9PS6nqZP6jgQBCEAgDQGEvDSUmpvHtsTxnuTNrQWlQyCZgP4fqzlxOyeEvDbt/UYLecJ64YUX+smhJo16SeiSx0f5MtNzzjknmmiiiUqCkf542B5Bfmlr6B4tway0tHarrbby12kprJLt4+a/a/IWT+HXJS0fC8n2iYos2IS3G+ooIU9iYnlK0xYLruGXj8qWhKqQVCctrw1l6H3ppZfuEIE3jZAne0cddVRkeweWbImp2hAi2NZTZprJme1t5cuqFLVXZaVlqGWDEsEkGKj9FrAkUmRh3Q/6rqV9Smk5+MwN+idJxFNxCHkNgt6iZisJec0S8QLijz/+OFK07/As6vmbd955I0Vzjac043La8TZtvlB+mjFTedO0RRF5bS/S0pip51spTRlpxkjZSjsupxkv05TZ0+NymjqJAwkCEIBAGgIIeWkoNTfPaqutFo033nh+ZVJza0LpEOhM4I8//vBz6yWXXLLzyTY6QrALm8W0Y2pksItyngoW8MMPPzgFdjDhqfx06buCT5iXhY/uVzrYAx8UCVfRVxUtVhuSx6Pilhdfqy0K5mDLw3xwB0WRjSdtMK/AEQp+kRRgI56/2mdb9urMw8PNOuusVeubZZnV6pOWoTb9V5THfv36ed7VbDbjnPrXRFYfrfjaa691a665ZodqbLzxxu6WW24h2EUHKnxJIhACLYRgF8cff7yzfUKdImwrOE0jA1sk1Skc1/ihcU+BaPr27RsOd3pv1risiqQdv9K0xUQ/Z9sEOPP+7tDGtGV0uCjhS9pxOe14mVBM6sNpy8n7uJy6wWSEAAQKQYBgF/nvJtsfzymg4G677eZOPfXU/FeYGrYVAXOecbZnsDv55JOdbaHSVm2PNxYhL06jjT73pJDXRlhpaoEJxEU8RQY2T8dOrUHI64SEA1UIxIW8M88809kS81yIeFWqzCkIQAACEIBAQwkg5DUUb2bGzSvP/+hoe1q7ZZZZJjO7GIJAdwhYIEpn22K5BRdc0D300EPOVux1x1yhr0XIK3T3db3yCHldZ8eVrUcgjYinViPktV7fN7JFQcizpZfO9gB1tj+ms/03m+qJ18j2YhsCEIAABCBQiwBCXi1C+Tgvj/W55prLybvbAkw525/bWRC8fFSOWrQlAQuC6YYMGeJ+//13ZwE13UwzzdSWHEKjEfICiTZ7R8hrsw6nuYkEtHTQNo93H330kdNy2kqeeOFihLxAgvc0BIKQp7yIeGmIkQcCEIAABFqdAEJecXp4xIgRzva0dq+++qpbfvnlnQWNcnPOOaebffbZc7lFTnHIUtM0BLR1ymuvvebvv+uvv97dfPPNboYZZnBa+q1tato9IeS16R2AkNemHU+zOxHYfvvtnUXVrCni6UKEvE74OFCFwNZbb+0uuugivwTg7rvvxhOvCitOQQACEIBAexBAyCtWP//666/uwAMP9Hvl/fXXX77y8szDO69Y/VjE2lrcCgVmLd1z2267rTvppJP4//T/70yEvCLe1RnUGSEvA4iYaAkC+g+KRex0iy++eM32IOTVRESGGIHgkTdy5Eg32WSTxc7wEQIQgAAEINCeBBDyitnvX3zxhXvhhRfcyy+/7F5//XW/5LaYLaHWRSEw5phj+sCO8gDVMu8pppiiKFXvkXoi5PUI5vwVgpCXvz6hRvkngJCX/z7KUw2DkBei1uapbtQFAhCAAAQg0AwCCHnNoE6ZEIBAqxFAyGu1Hk3ZHoS8lKDIBoEYAYS8GAw+1iSAkFcTERkgAAEIQKDNCCDktVmH01wIQKAhBBDyGoI1/0YR8vLfR9QwfwQQ8vLXJ3muEUJennuHukEAAhCAQDMIIOQ1gzplQgACrUYAIa/VejRlexDyUoIiGwRiBBDyYjD4WJMAQl5NRGSAAAQgAIE2I4CQ12YdTnMhAIGGEEDIawjW/BtFyMt/H1HD/BFAyMtfn+S5Rgh5ee4d6gYBCEAAAs0ggJDXDOqUCQEItBoBhLxW69GU7UHISwmKbBCIEUDIi8HgY00CCHk1EZEBAhCAAATajABCXpt1OM2FAAQaQgAhryFY828UIS//fUQN80cAIS9/fZLnGiHk5bl3qBsEIAABCDSDAEJeM6hTJgQg0GoEEPJarUdTtgchLyUoskEgRgAhLwaDjzUJIOTVREQGCEAAAhBoMwIIeW3W4TQXAhBoCAGEvIZgzb9RhLz89xE1zB8BhLz89Umea4SQl+feoW4QgAAEINAMAgh5zaBOmRCAQKsRQMhrtR5N2R6EvJSgyAaBGAGEvBgMPtYkgJBXExEZIAABCECgzQgg5LVZh9NcCECgIQQQ8hqCNf9GEfLy30fUMH8EEPLy1yd5rhFCXp57h7pBAAIQgEAzCCDkNYM6ZUIAAq1GACGv1Xo0ZXsQ8lKCIhsEYgQQ8mIw+FiTAEJeTURkgAAEIACBNiOAkNdmHU5zIQCBhhBAyGsI1vwbRcjLfx9Rw/wRQMjLX5/kuUYIeXnuHeoGAQhAAALNIICQ1wzqlAkBCLQaAYS8VuvRlO1ByEsJimwQiBFAyIvB4GNNAgh5NRGRAQIQgAAE2owAQl6bdTjNhQAEGkIAIa8hWPNvFCEv/31EDfNHACEvf32S5xoh5OW5d6gbBCAAAQg0gwBCXjOoUyYEINBqBBDyWq1HU7YHIS8lKLJBIEYAIS8Gg481CSDk1UREBghAAAIQaDMCCHlt1uE0FwIQaAgBhLyGYM2/UYS8/PcRNcwfAYS8/PVJnmuEkJfn3qFuEIAABCDQDAIIec2gTpkQgECrEUDIa7UeTdkehLyUoMgGgRgBhLwYDD7WJICQVxMRGSAAAQhAoM0IIOS1WYfTXAhAoCEEEPIagjX/RhHy8t9H1DB/BBDy8tcnea4RQl6ee4e6QQACEIBAMwgg5DWDOmVCAAKtRgAhr9V6NGV7EPJSgiIbBGIEEPJiMPhYkwBCXk1EZIAABCAAgTYjgJDXZh1OcyEAgYYQQMhrCNb8G0XIy38fUcP8EUDIy1+f5LlGiy22mPvtt9/cBRdc4Oadd96qVf3oo4/cvffe63r37u023XRT16tXr6r5OQkBCEAAAhAoIgGEvCL2GnWGAATyRgAhL2890kP1QcjrIdAU0+ME1l9/fbfwwgs7vU833XRVy3/zzTfdAw884Pr27etWW221muIJQl5VnJwsIzDhhBO6v//+222//fZu8ODBboYZZijL8b+v3377rbvmmmvcdddd53beeWe31lpr1bwf/3c1nyAAAQhAAALFIICQV4x+opYQgEC+CSDk5bt/GlY7hLyGocVwkwmMNdZYbrTRRnPbbrut22WXXZzu9aT09ddfu9NOO83dcccdbs899/TiXzVPKIS8JJIcr0Qg3EsSigcNGuS22247N+OMM1bK6v7880/3xhtvuPPPP9+NGDHC7bbbboh5FUlxEAIQgAAEikwAIa/IvUfdIQCBvBBAyMtLT/RwPRDyehg4xfUYgSCejD322F44kZiX5Aklb6kPPvjAnX766e7hhx/2Yt4GG2yQ6AmFkNdj3dgSBYV7UY2Zcsop3Wabbea985LEvD/++MP997//dcOHD3fPPfecGzp0KGJeS9wJNAICEIAABAIBhLxAgncIQAACXSeAkNd1doW+EiGv0N1H5asQiIsn4447rtt66629Z16SePLXX3+5999/35199tlO/7ncY4893IYbblhRzEPIqwKeU50IxO9FnZxqqqm8mFfNMy+IedpX7/nnn/di3pprrlnxfuxUIAcgAAEIQAACOSeAkJfzDqJ6EIBAIQgg5BWim7KvJEJe9kyxmA8C5eLJ+OOP77bccks3ZMgQN9NMM1WspMS89957z5177rlezNt9990rinkIeRXxcTCBQPm9qGz1iHlaZvvCCy843Y9rrLFGl8W8gw46yH388cfuwgsvTKhpzx5+9913Ky55/+STT3wd1WYtM5522mndPPPM470S+/fv36mSSXY6ZeQABCAAAQjkhgBCXm66gopAAAIFJoCQV+DO607V21nIe+aZZ9xZZ53l5OWiVx5S0oT0hhtu8MEY5Jnz+++/u7nnntvNP//83stsjDHG6FT1JDudMrbwgUriyQQTTOC22GILH0Rg5plnrth6iXniJ/HkwQcf9OJJuWceQl5FdBxMIFDpXlRWiXmKTKsgGEmeotozT8tsJS5L2JKnaFfFPJXxzjvvuCiKEmraM4c1hukZkmD3+OOPdyj0nnvucZtsson78ssv/fFRRx3V6ZlU0p6X2styxx139N+r2fEZ+AcCEIAABHJLACEvt11DxSAAgQIRQMgrUGdlWdV2FvIuu+wyv/H8oYce6g455JAssdZtK2lC+uuvv3ovMkWxVBpllFH8JDxMxBWVVSKf9t1SSrLjT7bZP0niyUQTTeSXNcozr5aYpz3K7r//fr+scaONNip5QiHktdnN1M3mJt2LMjv11FN7Ma/aMtsg5p1zzjnuxRdf9Hs4rr766qX7MW31zjjjDPfDDz+4/fbbL+0lDcmn4DITTzyxGzBgQCchb5ZZZvFeeHo+5UE46aST+n0Cb7vtNqexWmPfs88+63/IqGanIRXHKAQgAAEIZEYAIS8zlBiCAATamYD955jUhgSmn376aJlllmnDlkeRTYijww8/PHrkkUea3v6vvvpKLjKRTWw71OXKK6/0x81zJzLvsMiEukh5TdiLTMTz52xCX7omyU4pQxt9EM+kl4kI0a677hqZp1MiEdujLLJlfdG+++7rWasvLCiGz2+iXmRBNBKv5QQE4gSS7sNw3MS8aJ999oneeuut+GUdPut+fOWVV6KddtopWmKJJaJ///vfpfuxQ8Yufvntt9+ijz76qObVegbS5KtmKGmc0vMmJhrvVJ/ytNZaa/nzJvD5U0l24td98cUXftyMHwuf1Y5ffvklfE18t+XIke2fGZlnYGKecEJ5TXgNX/27rvvss886HOMLBCAAgXYnoP/Xasy/5JJL2h0F7YcABCDQZQL6lZvUhgTaWcir1d1pJ7bfffdd9O2339YyV/V80oTUlpj5/+SYJ02n60eMGOHPjTnmmNGPP/7ozyfZCRdrgjly5MjwtcP7Tz/9FGkSmialndj+/PPPkSbS5cmWzUXmbVh+ONPvQSRJep9kkknqEvMWWmihKIh5CHmZdlXLG0u6B+PH04p5r776amRLS72Yd8stt9TFTj8USMRWuuqqqyLzTo0uvvjiaNVVV400jqg+E044YXT00Ud3EAnnnXde/yPDscce669RPvMCjmxJcKRxIyTbe8+fLx+vXnrpJX/clrVHFhXalyEbvXv39sfN09CbsGW/vg7jjDNO9M033wSzpXe1/bjjjovuuOOOqnZs24FoqaWWisyrLzJvyMj2x4zOO+88b8c8EqMddtghsmX2vixbuhstuOCCkW21UCpHH55++mn/I5fqEvrJguZEEhH1g0pIYiNh1YLkRNNMM43PO95440WDBw/2gt5uu+1WKktjyEUXXRQu5R0CEIBAWxNAyGvr7qfxEIBARgQQ8jICWTQz7Szk3XjjjX4SqYmhUtqJbch3yimn+MmtLXf1E1JN5son1rZMLLKN2jvdFptvvrkvWxPTahPbQYMG+YnhAQcc0MmGDmgCbHtGebEsyc7VV1/tyzr55JOjySef3NvTRFcim9K9994bzTnnnJHaoQmrJvfyQotPVpUvzcQ2sLElqdEKK6wQjT766N7m7LPPHj311FORLYmLbH8/P7nWRHrbbbf1ni6yn3UKk+9q77Zsz4t5r7/+emLx8oSS517wzFMb1X945CUi40QZgWr3YPycPNF0n9XyzNO4IRFNY44tOe0gupUV3eHrDDPM4J9HHZSAp7IlZElQW2WVVaL111/ff9ZxjRsh6e9EqKe84k488UQ/9umYLTMP2SLbc9Tn0/l4sr09/fF11lkneu211yJbRuy/TzHFFP7502QuJI0PsiuhUKKZPKb1DJananbEMdRXZdjeen6c0w8ZGvt0TuPczjvvHFkAHM9AeTTGKcl7TsKmRMAVV1zRe0sut9xy3o6utf0zS9WJs1F/bLDBBpHtW+rLmHXWWf37kksu6Y/Lnl7iQYIABCDQ7gQQ8tr9DqD9EIBAFgQQ8rKgWEAb7SzkXXrppX6SZfsu+Z5LO7EN+TShm2yyyfzy3L322stP3sYaa6xInnIh6bw8OspTWCKm5b3VJqS2/52voyZ/FpDDLz+wDeLLzfnvSXY06QyTWk1WNbEdOHCgv+b666/3E0udX3zxxb2IMMccc/j8a6+9dqmctBPbOBuJZBK8ZpttNm9P5cozRh5Bmjxb5NhO5ZQKzOBDaHOtd/WRltnWI+ZpObM8+khdJ6AlmlpyKHFFQo08YOWlqaWOEpnl6SXvqe+//z4KXq+2J5pfWi6PTnl6yrtU9+ann34a6bnQUskPP/ww+uCDD7xAbBGII3l5vf32214ce/PNN70oq77W8yJB7OWXX47kMaZn0YJJeJHlueee86KzvLQk7jz55JPRE088EVlghuixxx7z4pKE84ceeiiyPX6iBx54ILK9FKP77rvPC0YWsCG66667ojvvvNN7j9W6B+PnJUIdeOCBvj1JdMVMbdhmm228mKdy0qRKQp7GJzEKST9sqD7yBg4piFUS4EKS0C9PNuUNP2CkEfJ0fTXPYfVjENsCF3m4WYAPL6Cp7SEl2QlCnrzilHQP6X6T15xsyosuvqT2iiuu8MfDuHjYYYf571tttVUoyr/LI1HXx8XLwEbCakgWmMTnU95436g+OiZOJAhAAALtTgAhr93vANoPAQhkQQAhLwuKBbSBkOeiciGv1sQ2iFUS7eKeM/Lw0yRtgQUWKN0JaYQ8ZU6akOrcmWee6T1GZDu8JLYNHTrUCxHKE1IlO0HIU7skZChJGJFoMt1003mbce8biSjBK0beekppJ7aBjSbecWFM3jWquzxTwpJaiS/yAhSjRqTAKs276jBs2DAvACXVRWKT9vDSXmZ6biTkaaIvUVKekxItN9tss8iikPqJvpbfWrRb74kjT6d11103kkeSBFIJuRImJAiuttpqfmnjyiuvHK200kreA0jejMsvv3y07LLL+uV9Sy+9tF8qKI8fCa4SHBZbbLFokUUW8Z5R2i9Ry/b69+/v7z8JIfPNN58XLNSXc801l/e61H0jYVWeQvIW7devnxdULZppJJHHgt/4e0JepFomqOWeEkX69u3rBWB5dIqV2i5BVl5NWoopgVZ9rqWHus/krajnQ15N8k6SZ6a8vuT9pT6XMJ2mX9o1j/pW3qvVkoTPu+++27Pec889q2Utnask5OmejSd5zoq77seQglhV/iNC2MNTwqNSFkKe7EgkvOmmm7znnu7F+H0gzzgJuUqVxjsdD0KeBNp40hJi2dKYKGEvvMRS97HOaZsCCcYSbmU/JC31lfez8sT3JQ1sJASHpL0MlU/PUzwFgS/8zYmf4zMEIACBdiOAkNduPU57IQCBRhAgaq39r7sdE1FrBzmbVPmotbbZro8QaxNbp4i2IZlHjjORxNnE1t1+++0u5DMPDGcTs5DNv5tA4sz7x9lk0JmA4Uz4cCaM+UiR8Ywm5jibqPoIlCayuFrRF81jxv3rX/9ytjeUM48gH51W9vr06eNsUurMe8abr2TnggsucIqIaUKStxHqYd5GzjxqnIl5zgRJZyJLOOVOOukkZ8KWfx1//PHOJrE+kqSivJp44/PZvoCek3mzOZvYOtt8v8TGBCtn3n4le7bczF133XX+vIlepeOKtmuCnn5IKB3L6oOJRXWZMnHNHXXUUc6WASdeZ15iPkrwLrvs4mzy718mTPnooSpPr3q/d+Wa8jK6YqMr1xS53GbW3YTcxHuq/ISJps5EYafnygSp8tP+u3kyOo0Jp556qrNlmj4KrQnCFfPGD5pg66/T8xbGMVu274488shStnfffdeZ4OdMMHPmWeiP6++ExjTzgizl0wfzXHT2w4VT2eaV58zjzVkwDmdLa31k3ZDZPB2decG5MC5UGqdC3krvGlMVnVvPp/0IURrLkuyYAO1MdHR6Xk1QLpkMEXFLByp8EM955pnHj3eKEqwIuSbgO/P8LOU2QdDdeuut/rvYmOenH+NNxPbHbA9RH43YBHdnnpul68zzz0fMDn9zSif4AAEIQKANCRC1tg07nSZDAALZE2iEOojN/BOQN0G7Rq1NWlpbvh+dlp3ZExfJE0QpeJ2Vb+iuc/LUUN6wcXoWHnmyG0/ymNNyLe3dpLL0Ct4glTxUgkee9t6Kp+BNE2xUepfnWEjaJ2733Xf3S/m0TDaeX54uSoFNuYeQ9sJT/uDhF2yG5bXhe5bv8frV+mwT90j7+lULWqKleFo6Ka85ebyVe9tkWXdstRaBWvdfOC/Pxz322MN7fiYR0NJSPYsK5LDooot6zzV5lqVJlTzyjjjiiA6Xlo93Oqm/E/LGLE9adqy6h3EieOSdcMIJHbJqObLyySNVqdI4pePyWJNnq5Y9V0ryKDYB2nt+yosuyY488uQJWp6Cd5+8EBWEotJLy7C1TDrs76m9POUdu/fee0f2o4ZvRxjvZF9s5GkaT1rirfbKgzaeLr/8cn8cj7w4FT5DAALtSgCPvHbtedoNAQhkSYCltVnSLJAthLzOS2trTWyDWKX9lspTWLoVNjOXkFcpKIKWTmqiV02Ae//99310yvL6xMvUpFd2jjnmGH+40sQ2CHkhT7heESZ1rSa3lSa0OhbEyrQT28CmvM5ByJOdeMqDkCcRTwLC559/Hq9ah88S8SRCqn/FXEtlNcEnQSANAT1ntV5pRDwt79aSde3pKBFPe2imFfFUz+4IeebR6PcsjLfXPJd9u8Lzrsiwamf4HvKGfLWEvP33399fH5bqhuvDu0RMLeOWyKb9EyuNd8qbJORpqbrqF8a1YFfver61B6KW/i9pWwAon3kAduB7zTXX+OMS80NCyAskeIcABCBQHwGEvPp4kRsCEIBAJQIIeZWotMExhLyuC3ny0ChPEqa0L1iIsqi94bQ3WHnSnmSaKFYT8jRRlVeJ7OlzpaTokLKz3377+dOVJrZJQp4269e18q6LbyAvQ/IokdefggUopZ3YFk3I06b3aUQ87UUmb0uJeApmon3wKgm0Hhb/QKCMgJ6zaq96RDztjSkRT4Fq6hHxVKXuCHmqf1ygk0dcCEqh4B5Ktnzet1OeaKFu2u8uCGhByNMenbKnaNnxpH3pdFxjnn5oiCcFRpHAp/PykFNKspMk5Kn+ul77mMbHPFsm64/r76H2yAt7eqo+IUnMX2qppXw+tSckhLxAgncIQAAC9RFAyKuPF7khAAEIVCKAkFeJShscQ8jrupCnDf9tj6bSXRImsdqoPqQQAVZLMkPSpFfeLZpQBiEvaUIqzw/lk5Cm4BDxpA3VgyD46KOP+lOV7CQJecobNnjXxvIhaYI7YMAAX27wXEk7sS2SkJdGxNMyZkUfVcRgiXiKZqqkQBYIeeGO4b0WAT3DSa+0Ip6Wm2ppu0Q82y+zJJTVKjt+vrtCnpa1KlLuySefXIpYG49kqx8SJMKprfI61g8MEs3CMtUg5GmM0Y8UyieBXO1RkvinoDOBlQKuKCiMlu7aXp7+uMYs/QihlGQnScjT86y/ebKvMc72AvVez/Ku1bEQYVaBafRdQqPaqki+IUKvjit4TEgIeYEE7xCAAATqI4CQVx8vckMAAhCoRAAhrxKVNjiGkNd1IU8TOnngaT8o7WulyaqWfb366qulO0dee8qnJbbypFGEU0X11DG9gpCXNCFV1MUw8dQEWZFJLbCFn8yHibAFkojkraJUyU6SkKf8YU8r2VYbNGGVUKC6SZAMXjVpJ7ZFEfLqEfEUZVZRacO+h+KGkCcKpLQEwvNe/i4RT+Kc9rxLSvLulYinfSf1bOoHg/BcJl2TdFxCXtjPLSx3jXvZ6Tot6Vc9tQdnSGEMskAW3sNY5xW1eMcddyx5H4e88m6L76GpyMf68ULXaEl6SBZgo2RL42I8WSAO7+0XREFdq4jI2qdUkaPjqZKdJCFP1+kHEQmD4iC7eknIk3dzSBaswkekVhtDHo0ZjzzyiI/0rGPyWlbSjymBabg+7JGnaNPxFPbIK2cez8NnCEAAAu1CACGvXXqadkIAAo0kgJDXSLo5to2Q97/lYmkntkGsskiNJZFNnioS2cr3gPv++++96BM88EYbbbRIG60r8IQmg/KqC6nShFTntHfbeuut58XAMKlUeRZBNjr66KPD5aX3cjvVhDxdpHbHJ94qQxNQi2Rbspl2YpvEMOyRZxHKSjb1QUJo+SS4Q4ZufAmsyt81IbdolNHIkSMTrYeAIhIw5YmnTf3jCSEvToPPtQiU34P6rmeuVmCLuIgnYb07Il6tOlY7r78T4TnV0lP9ABF+PEi6TkEjFDijWtKWARK9wlYE5Xn1w4RETgmZ1cqrZafcrr5rLzy1QwE0tPy3UlL5FnE3sqjdlU5zDAIQgAAEukEAIa8b8LgUAhCAwP8n0EvvNrkgtRkBi7zpzEvD2dLPNmt515tr3iLOPEiceVU427PJ2YTVmbeIM6+7RKM//fSTM2HM9evXz4011liJ+WyS7GzJq7MIkc721uuUzwQ1ZxNfN8ssszjzIul0PhyoZSfki7+bp4r77LPPnAW/cOaJEj9V+myTaWfio89TrfzSBU38YGJnp9ItsIUzryJnHjmJ/WV7YbmHHnrIXXDBBa5Pnz5ul112cf379+9ga+ONN3a33HKLE2cSBGoRKL8X9XybZ60bPHiwM0G+4uUmIvkxw6IpO4v66syj15mg78ptVbw444P6O/Hhhx861YkEAQhAAAIQyIKA/bjrbO9Rp/9X28qHLExiAwIQgEDbEUDIa7su/78GI+TV3/HlQl79FriiJwiUCx4S8SSc2FLZqiKe/mNpG+17wXXIkCHO9sbqVF2EvE5IOFCFQPxeLJqIp2Yh5FXpXE5BAAIQgECXCCDkdQkbF0EAAhDoQAAhrwOO9vmCkFd/XyPk1c+sGVfExZO5557be+KlEfEuuugiZ/sPOol4tly6YtUR8ipi4WACgXAvTjrppM6WajvbWy7RE09er/LytSXxTffES2gOhyEAAQhAAALdJoCQ122EGIAABCDgEPLa9CZAyKu/420fPHf88cf7ZQBaHkfKJ4EgnkjE23nnnb0nnoSUSum3334rLae1DfZ9/iQRT9cj5FWiyLEkAhYEx1mACmd7Rfp7y/aGTMrqvv32W3fNNde4K6+80ovJzVpOm1hBTkAAAhCAAAQyIICQlwFETEAAAm1PACGvTW8BhLw27fg2aLb2HrOAAl5w1Z54SSKeUGh/QAvU4Swiptt+++0TPfECNoS8QIL3NAQsUIWTWKx9Fy3YStVLtAfmvffe6/fI3HTTTZuyJ17VCnISAhCAAAQgkAEBhLwMIGICAhBoewIIeW16CyDktWnHt0GzN9hgA7fwwgv7AAHTTTdd1RZb5Er3wAMPuL59+zqLRlxTPEHIq4qTk2UEdt11V3f66ac7Bb1RABUSBCAAAQhAoN0JIOS1+x1A+yEAgSwIIORlQbGANhDyCthpVLnpBBDymt4FhaoAQl6huovKQgACEIBADxBAyOsByBQBAQi0PAGEvJbv4soNRMirzIWjEKhGACGvGh3OlRNAyCsnwncIQAACEGh3Agh57X4H0H4IQCALAgh5WVAsoA2EvAJ2GlVuOgGEvKZ3QaEqgJBXqO6ishCAAAQg0AMEEPJ6ADJFQAACLU8AIa/lu7hyAxHyKnPhKASqEUDIq0aHc+UEEPLKifAdAhCAAATanQBCXrvfAbQfAhDIggBCXhYUC2gDIa+AnUaVm04AIa/pXVCoCiDkFaq7qCwEIAABCPQAAYS8HoBMERCAQMsTQMhr+S6u3ECEvMpcOAqBagQQ8qrR4Vw5AYS8ciJ8hwAEIACBdieAkNfudwDthwAEsiCAkJcFxQLaQMgrYKdR5aYTQMhrehcUqgIIeYXqLioLAQhAAAI9QAAhrwcgUwQEINDyBBDyWr6LKzcQIa8yF45CoBoBhLxqdDhXTgAhr5wI3yEAAQhAoN0JIOS1+x1A+yEAgSwIIORlQbGANhDyCthpVLnpBBDymt4FhaoAQl6huovKQgACEIBADxBAyOsByBQBAQi0PAGEvJbv4soNRMirzIWjEKhGACGvGh3OlRNAyCsnwncIQAACEGh3Agh57X4H0H4IQCALAgh5WVAsoA2EvAJ2GlVuOgGEvKZ3QaEqgJBXqO6ishCAAAQg0AMEEPJ6ADJFQAACLU8AIa/lu7hyAxHyKnPhKASqEUDIq0aHc+UEEPLKifAdAhCAAATanQBCXrvfAbQfAhDIggBCXhYUC2gDIa+AnUaVm04AIa/pXVCoCiDkFaq7qCwEIAABCPQAAYS8HoBMERCAQMsTQMhr+S6u3ECEvMpcOAqBagQQ8qrR4Vw5AYS8ciJ8hwAEIACBdieAkNfudwDthwAEsiCAkJcFxQLaQMgrYKdR5aYTQMhrehcUqgIIeYXqLioLAQhAAAI9QAAhrwcgUwQEINDyBBDyWr6LKzcQIa8yF45CoBoBhLxqdDhXTgAhr5wI3yEAAQhAoN0JIOS1+x1A+yEAgSwIIORlQbGANhDyCthpVLnpBBDymt4FhaoAQl6huovKQgACEIBADxBAyOsByBQBAQi0PAGEvJbv4soNRMirzIWjEKhGACGvGh3OlRNAyCsnwncIQAACEGh3Agh57X4H0H4IQCALAgh5WVAsoA2EvAJ2GlVuOgGEvKZ3QaEqgJBXqO6ishCAAAQg0AMEEPJ6ADJFQAACLU8AIa/lu7hyAxHyKnPhKASqEUDIq0aHc+UEEPLKifAdAhCAAATanQBCXrvfAbQfAhDIggBCXhYUC2gDIa+AnUaVMyfwyCOPuBEjRrgllljCzTPPPFXtf/nll07CjPK/9tprVfNyEgIiUI+Q9+KLL7q7777bDRw40A0YMKAqwJ9//tlde+217rbbbnPXXXdd1bychAAEIAABCOSJAEJennqDukAAAkUlgJBX1J7rZr0R8roJkMsLT+D+++93xx9/vJt22mnd4Ycf7qaYYorENn3xxRdu+PDh7ogjjnB//PGH+/333xPzcgICgUBaIe+5555zRx11lPvrr7/cGWec4aaeeupgotP7Tz/95C6//HJ3wAEHuF9++cXpOwkCEIAABCBQFAIIeUXpKeoJAQjkmQBCXp57p4F1Q8hrIFxM557Afffd50W8SSaZxO23335uttlmc6OOOmrFen/++edexDvhhBPcN9984/NEUVQxLwchECeQRsh75pln3LHHHut+/PFHd+SRR7r55psv8V784Ycf3BVXXOEOOuggJw9RJe7FOHE+QwACEIBA3gkg5OW9h6gfBCBQBAIIeUXopQbUESGvAVAxWQgC9957r5MoN9lkk7lhw4a52Wef3fXu3bti3T/77DN30UUXuZNOOsl99dVXpTyIJyUUfKhCoJaQ9/TTT7vjjjvOe9YdcsghXsQbbbTRKlr8/vvvvYh36KGHOonLIXEvBhK8QwACEIBAEQgg5BWhl6gjBCCQdwIIeXnvoQbVDyGvQWAxm2sC99xzjxfltIx26NChbs4550wU8T799FMv4p166qlOS2vjCfEkToPPSQSqCXlPPfWUF5S1TFteoQsssIBLEvG+/fZbd+WVV/ql3RKX44l7MU6DzxCAAAQgkHcCCHl57yHqBwEIFIEAQl4ReqkBdUTIqw1Vk2elCSaYoHbmbuR49913nfqjPH3yySfuwgsvdC+88IJ74403/F5uCsiw1lpruf79+5dndz1V304FF+SAAgmccsoprm/fvj4IwRxzzJEonIi9PPFOP/10N3LkyE4tRDzphIQDFQgkCXlPPPGEF5T//PNPt/fee3sRb/TRR69gwfnl3FdddZXfQ0/3ZXlq5r2YNHaV17G735PKueGGG9wDDzzgnn/+eb9v5dxzz+3mn39+t/XWW7sxxhijU7FJdjpl5AAEIAABCDSMAEJew9BiGAIQaCMCCHlt1NnxpiLkxWl0/nz77be7rbbayl166aVuxRVX7JwhgyPyxNl4442dJuePP/54B4vyHNtkk01K+2Bp/zZthK8kr53TTjvN7bjjjqVreqK+pcIK+CGIeFNOOaXbeeed3VxzzZUo4n388cfu4osvdmeeeaaTV16l1EzxpFJ9OJZPApWEPD3rJ598svv777/dHnvs4RZccEGXJOJ9/fXXTiKelt9++OGHFRvZjHux2thVsZJdPJhUzq+//uq23HJLd80113jLo4wyit8rMLBYeOGFnUQ+Pe9KSXb8Sf6BAAQgAIEeJYCQ16O4KQwCEGhVAvYfX1IbEph++umjZZZZpg1bnq7Ju+yyi6IZRHfeeWe6C7qQy/Zc82UMGDCg09X9+vXz54YMGRKZR1hkk/7INsWPDjvssKhXr17+3LPPPlu6rifqWyqsYB/uuuuuaKWVVoq23XZbz9Am9Ykt+OijjyILOBCZAOAZ6x6o9Eo0wAkIxAiE59Iiy/qjjz32WLT++utH6623XvTQQw9FJkjFcnf8aMEsIotgG0033XQV78FwX3a8qme+VRu7sqxBUjm2zNgzmWqqqaIHH3ww0jOtvCbsRSbi+XOrr756qSpJdkoZ+AABCEAAAj1GQOO2/oZdcsklPVYmBUEAAhBoNQL6FZvUhgRaVcj77rvvIvNw63aPhgl4kpAnYU2iT3dS0uTSltGWJqm//fZbpyJsaa0/b5ErS+dq1df2ePOT3dIFsQ9qxy+//BI7UvmjeapF77//fmSegZUzxI4qry0bjB2J/HW2v1eHY43+ov5beeWVo+22286LeJV4hjqYx1N0xBFHRBIHgkiS9B6u4R0C1QiE51JC3qOPPhptsMEG/lVLxNPzasu6I43TSfdgOF6t/Ernshgjk8aueHkqx5b7xw/V/TmpHPNW9lwkdJanESNG+HNjjjlmZJGA/ekkO+FajVX6waRSUt9pPEuT0o6RP//8c6Q+Lk8Sb6uJu+X5+Q4BCECgiAQQ8orYa9QZAhDIGwGEvLz1SA/Vp9WEPHlozDTTTKVJ70QTTRTttddeHQQq228u0vHyyd9LL73kj2+xxRae/mqrrRbZ/kre1rjjjhvNMMMM/vi8884byXvu2GOP9fk1kZbn1vbbbx8FjxtlTFPOww8/HE044YS+DIuY6u2dc845vpx33nnHHx9nnHGib775xh+L//Pqq69GttQuuuOOO/zhpPraXlHRUkstFcmrT158448/fnTeeef5a3744Ydohx12iGz/P1+WLd2NbImfF7viZVlUTe+5qboE4UBMJCLGPdvEZokllojOPvvsaJpppvF5xxtvvGjw4MFe0Nttt91KZS200EKR7T8XL6Yhn+MintpRTcT74IMPvIgX6h7amvTekApjtOUISMizpfDR/fff7wW8jTbayHuQVRNrLCJtZEvn/biTdP/Fj6eFlmaMnGWWWaJpp522k8nNN9/cj1Eae5LGLlsC7PPYPpR+nLTlrpHGNo0Lt9xySweb3SlHhgYNGuTHmAMOOKCD3fBFY6kYSixLqu/VV1/t62vLnKPJJ5/c29OYKZFNyaJbRxYMJ1I7xFt/O/bdd98O457ypRkjA5vhw4dHK6ywQmRLqb1Ni5gdWdCTSN7Vtr+fH6c1Jst7WD+akCAAAQi0IgGEvFbsVdoEAQj0NAGEvJ4mnpPyWknIkyikiZY8MCSq7bPPPtGMM87ojy299NIl4meddZY/duKJJ5aO6YNtlO6Pr7POOv64JnaaVMnmmmuu6e3pRNw7Rl5xsiNhT/lsrzt/rf5JU85rr73mvcR0rUVQjWwvLT/BD0ZC+RIKJZo98sgj0R9//BFOd3hPqm/cs0xlSFDQ5FTeJ5qwqmxNTm3PuMj2m4ok5imPJqZK8p4TU4mAtk+g57Dccsv5PLr2/PPPL9UjzkYTd3keBTF01lln9WUtueSS/rjs6SXujUjylgwinu4HTZTTiHgSMNSuNK9G1BubrUfA9sDzIpGW0mqMsMAMHX5cKG9xEPHiP0rUuh/LbVT6nnaMnGyyySKJ9uUpeAG/+OKLUdLYZftKlp4d2Tn88MP9jykaB8Yaa6xInnIhdacc2bD973xZGkc0Rmt5VpIndlJ9NX4Fthr3NEYOHDjQV/H666/3Y5TOL7744l7As+A4Pv/aa68dmpF6jIyzmXTSSSMJo7PNNpu3p3L1I8vEE0/sx+HQ9/FySgXyAQIQgEALEEDIa4FOpAkQgEDTCRDswv6n3o6pVYJdaDN485hz5mHmbOmaM2HNd6e+L7bYYs687dwVV1zhA0eYt5jbaaednAlwbs899yx1u6LCmkeZMyHP2QTOHw+b1JsgVAp2IWbvvfees2WazjzbfD4T13w5Jn458zpx5h3n0pajutvkzde5PNiFgizI1nPPPVeqp3m4OfOwc7b3kw/EoQAYIVWq79RTT+1sqZczrzhn4qJnZJN0d+655/pjarPKNbHOmzGPHbfppps6m8w682JxNhF3hxxyiC9L0XND0sb75pniA3UhoSOZAABAAElEQVToGqXAxoQzb1/HxMi8/vTRxTmqD8RIdVLdsk6XXXaZu/baa/1G9+bZ4hTpNymYgAknTvkVndY8YFJXRfcQCQK1CGjs0TNoPyj44DQan8LzVn6ted+6G2+80ZnHr3vzzTfLTyd+t/9FJJ7TiXrGSPNMc+aR5seKuFETldxNN93kTMjzgWIqjV0mpvkAFCba+XHXfkzxJnSdrl9ggQWc7fPpj3WnnFAvjR8a90IQIB1XJOrll1/eaRwyoSxk9QzKx9oLLrjAj+UaE01kdCague+//95HuzWPQT8emNee23DDDb0d237Aj9ViYD+IuGWXXTb1GBnYaAy3Hxac7CvZjy0+2JH9yOFsL09ftv2A4o9PMskkFSNm+wv5BwIQgECBCRDsosCdR9UhAIH8EGi6lEgFmkKgVTzy7rvvvk5eEgGolk7ZkxaFJbNpPOXCtWFvK3l2hRS8zso9P7RkTeUceOCBPmvacmrt26SlqzYJ9p575d5i8ozTfkohVapv8MjT0uF4WnXVVX195ZEi77XwktdaWO6rvaVssh498cQTfhP5cL2W+mrJmtob30w+sJHHTkivvPKKz2ciXzjk301I9McPPfTQDsez+mIibaRgIcccc4xvQzW7WsZs0X99fdQmXjDI+h7QMxWC1lS7FzWuyPu23vKr2dS5esbINJ5ysllp7ApeZ/KCLU9aSqtltmFJcXfKidt+++23/TYD2kIgLFcVvz59+kQmopayVqpv8Mhbd911S/n0QR7JsqEgI/KCDuOj3k844QR/btiwYf6atGNkYBO8vkOBCnyisso3fO/bt68/HvLxDgEIQKCVCOCR10q9SVsgAIFmEcAjz/4X3Y6pVTzyzjzzTGeTZHfwwQc7i+jaoSttSZWzPYhKHm9pPeVkpJKHm5iZwOVs36UO5chrTt4m8qCTV17acip5tXQwXPbFJq3OlpS5o446ytlG8s4moO5f//qXz1WpvvLIM3HA2f59Tl4yIckbxAJqhK8V323Zq/dkUz7bb8rZHk7+GnmLhGSCoLv11lv91+CRJ09IebgoyRNJdQgefv6g/SMvpc0228yZkOc9/sLxrN7l8SIvO/HaZpttnEWsdWOPPXZF8+pPecKcdNJJ3juxYqYKB02krHCUQxDoSED3uDyFba81Z6KNsyXnTl5ZlZI8vmwJvTOxyN1zzz2VslQ8Zv95qHg8HKxnjOyOp1zwOrM9SJ0t1w/F+/c11ljDj43yyNNY2Z1yOhiOfRE/CyLibI8+/0zrVDUPwuCRJ+9iE/1Llmw/O+/BXTpQ4YMtNfbekzqVZowMbOQJHvfmlXe36hE8/EJRM888s3vrrbe09Uk4xDsEIACBliGAR17LdCUNgQAEmkmgWQoi5TaXQKt45J166qnec8GWgHYCqr2R7NmK5L2mFDzl5FURT4899pjPF/eWqOThJmY2AY1f6j8HDw7tI6WUtpxKXiK6Xh5r2kNJ9a+UbNmd379JQSfC3m+V6iuPPO1PVZ6Cd5+JaZGCUFR6ydNFG/QHLxdtwG5L1qK99947Ov744z0vefaFJDbaYy+eFA1X/LVnXjxdfvnl/nijPPJUlrwBtfef6njdddeVolfG6xE+y6tGXpWLLLKIr5fqXOsVruUdAtUIDB061Hu56rkxQdnvK6lorknJlnb6wBAas2rdg+F8kq1wvJ4xUp5yJnqHS0vvCtCg8oLHbaWxK3id2Q8ZpevCh+AFHPbF7E45CgIhL1pFmE5KGj9VX3nlKlWqb/DIC3mCLQUr0rUaJyuNjToWAialHSMDm/I6K6iFypKdeAr75MWP8RkCEIBAqxDAI69VepJ2QAACzSRAsItm0m9i2a0i5N12221+ImT7GHWiqQ3LNUkKy6AUsVXfyydT5r3lj6cR8hTBUBFf4ylcH+ymLafS5FJ2999/f1+fsFQ3XpY+K1iFNkeXyBbqUo+QZ3s7efthMhq3r2AYtm+eXwKn4BTiZR6AfnlZyHfNNdf44xImQsqbkKd6vfzyy17M0xLgNGKeluKlFfNCu3mHQDUCei4lcOte3G+//aKVV165ppinZ1pRXsNzqmew2qta+TpXzxip4DpaAlueQvCgNEKeRMvyJGFKgXNCwJ7ulCM++oFC9sL4V16eAhGJmZgrVRprk4Q8RbnVtQpCobE2nvTjhLZbsL1S/eG0YyRCXpwinyEAgXYngJDX7ncA7YcABLIggJCXBcUC2mgVIW/kyJHeg0STT02WQ9JeTAsttJCfkMnbSklijiZo8hDTfkdK2ocuTJjjQt7uu+/u89rSVZ9P/4iZrg+CnY7JIy5EgLXlcDqUuhx55sieLbvz14V/tC+djmuiKu+QeLKN3f1efDovD7mQKtU3ySNP9df1tsStw0TVlsn642qn9sjTZFv5VJ+QbPlapP2odFzcQsqjkKe6aX9AeebZ0r7IAmAkTvyVtx7PPOUnQaAWgSCw2/L2SJ60EunTinl6HsPYpOct6VWrDvWMkSEyq/bVC0njmn7AUPlByKs0dgWxyoI0dNibMoy7FnwomIy6U46M6EcE1UdCmgUGKtnVB3njBuHRljX7c5XqmyTkKW/YK1R7lIYkUS9EKQ8/gqQdIwOb+N8O2cUjL9DlHQIQaCcCCHnt1Nu0FQIQaBQBhLxGkc253VYR8oRZS6M0qZOX2gEHHBDJG2O++ebzx7SkKyw/lVeGxDHl1VIxeWtIzArLR+NCXhC7FKjBIrl64S8Ieb169Yps77Xo5JNPjhZccEFvz/Y6KvV42nI0MZRnieojr7EgGkpklBehjus1zTTTeCFKS3e1AbuOaaIpz5GQKtU3ScizqJQlUVITU9sfzi9V0/JZ2Q4BPrQJvL5LaFRbLVptqb06Ptdcc4Xivb08La0tVcw+BDFvzTXX9GKeRMqkJDFPnnlhwq52VnolXc9xCMQJxIU8HZeYV49nnsS8ZZZZpuI9GO7LeHlJn9OOkfKmk10tfdWy4C233DKyPS9L5Qchr9LYFcQqXS8PPG1hsMcee/jxVWPzq6++Wqped8qRET3TYTzWmK4fbTbZZJNo0UUXLY2pth9hpB8+lCrVN0nIU/6wPYJsqw0a+2RbbZMgGX4ISjtGBjYIeaJLggAE2p0AQl673wG0HwIQyIIAQl4WFAtoo5WEPOG3gAzRRBNNVJpwai87iWshSmLoIk2MtWQqTIItGEMkjxN9VwTBkD788MPINhwv5dNSqjBx3GmnnfzyM10z8cQTexEsLBkL16ct58gjjyzZ0qQ5nhTJUN5+QXxUedoXT/tn2Qbr8axRpfomCXm6UF4sEgYlvgUWEvIkgoZkwSqirbbayrcx5Jl33nkj25DfR4XVMS01U5IHTJKQt/TSSweT/j3skVc+qe2QKeMvEiDUb2nFPHlxLrzwwiU2of3hPePqYa5FCZQLeWpmXMyzQAeRPMCSkkRnLbPVMxTuvfL3pGvLj6cZI7VH30YbbVTywBtttNEi7aVpASF8+fJ2C6l87ApilQX9KY2V+tFDIlv5HnDdKSeU//nnn0frrbeeFx0DE5Wncfvoo48O2Urv5fWtJuTpIm2ZEP9boTLUDxaEomQz7RhZvv1CMBA88mzj93DIv0sILR9PO2TgCwQgAIECE0DIK3DnUXUIQCA3BIhaa/87b8fUKlFry/vugw8+cIpeqMis1dI777zjbNLnxKFaUuRVRWE1jxKf1wQzZ94dPhKsbNgSMWfLzhJNpClHkVNtMu8jOdoS4U62zKvER2A1LxDXr1+/quXF69vJUIUD5q3ooy4qqq15+zmbuHfKpfIVpdU2f3cm9nU6X5QD5sXjLJCIM/HRmZelsyWOpQi75W349ttv3R133OH++c9/uieffLL8tH4A6XSMAxAoJxCiSStydJ8+fUqnFZHUls07RYdW9GlFtE2KZqtrbdLjo53qvTzVey+mGSNVpuqo8SYe8bq87PjYpWjU9mOEM4He2f6efsyyHx6cefeVX1b63pVyKo2RGvf0XGvcrzZGxetbyU6pYrEP9qOHU7RujX/2w03szP8+tsoY+b8W8QkCEIBA4wgQtbZxbLEMAQi0DwGEvPbp6w4tbVUhr0MjM/4iZkHIy9g05nqIQLmYt8oqqziL0lmx9CDmWdRP99RTT3XIU6940uFivrQNgSQhTwCCmDdixAgv5Jl3WaKYZ8vh3QMPPOAsYrR76KGHOvDLy71oHsQdhLwOleQLBCAAAQhA4P8TQMjjVoAABCDQfQIIed1nWEgLCHn1dxtCXv3M8nhFXMyzZYPeM6+WmHfKKae4p59+utScvIgnpQrxIZcEqgl5qvDbb7/thg8f7p577jlne7q5amKePI0l5h177LHO9scstTcv9yJCXqlL+AABCEAAAlUIIORVgcMpCEAAAikJIOSlBNVq2RDy6u/Rrbfe2i+xuv322+u/mCtyRUBinu0Z5pfjbbHFFl7MS1pCqGXP6nML+OGeeeYZ3468iCe5gkplOhGoJeTpAol5tleee/bZZ50FbPCCXnwZbtxoEPNsDzhnEVn9Ke7FOCE+QwACEIBA3gkg5OW9h6gfBCBQBAIIeUXopQbUESGvAVAxWSgCEvMkoFjUYjdkyBC/R2BSA2xzfi/mHXTQQe7LL79033zzTVJWjkOgRCCNkKfM2ktTe+ZpPzYLLOEsYEPJRvkHC+BTWmar/e4kBJIgAAEIQAACRSGAkFeUnqKeEIBAngkg5OW5dxpYN4S8BsLFdGEIWARepz3KllhiCTfPPPNUrbcEvN12280vg3zttdeq5uUkBEQgrZCnvBZZ2d19991u4MCBbsCAATqUmLRn3nXXXeduu+02d+211ybm4wQEIAABCEAgbwQQ8vLWI9QHAhAoIgGEvCL2WgZ1RsjLACIm2o7Axhtv7G655Ran6JckCNQiUI+QV8sW5yEAAQhAAAKtQAAhrxV6kTZAAALNJoCQ1+weaFL5CHlNAk+xhSaAkFfo7uvxyiPk9ThyCoQABCAAgZwTQMjLeQdRPQhAoBAEEPIK0U3ZVxIhL3umWGx9Agh5rd/HWbYQIS9LmtiCAAQgAIFWIICQ1wq9SBsgAIFmE0DIa3YPNKl8hLwmgafYQhNAyCt09/V45RHyehw5BUIAAhCAQM4JIOTlvIOoHgQgUAgCCHmF6KbsK4mQlz1TLLY+AYS81u/jLFuIkJclTWxBAAIQgEArEEDIa4VepA0QgECzCSDkNbsHmlQ+Ql6TwFNsoQkg5BW6+3q88gh5PY6cAiEAAQhAIOcEEPJy3kFUDwIQKAQBhLxCdFP2lUTIy54pFlufAEJe6/dxli1EyMuSJrYgAAEIQKAVCCDktUIv0gYIQKDZBBDymt0DTSofIa9J4Cm20AQQ8grdfT1eeYS8HkdOgRCAAAQgkHMCCHk57yCqBwEIFIIAQl4huin7SiLkZc8Ui61PACGv9fs4yxYi5GVJE1sQgAAEINAKBBDyWqEXaQMEINBsAgh5ze6BJpWPkNck8BRbaAIIeYXuvh6vPEJejyOnQAhAAAIQyDkBhLycdxDVgwAECkEAIa8Q3ZR9JRHysmeKxdYngJDX+n2cZQsR8rKkiS0IQAACEGgFAgh5rdCLtAECEGg2AYS8ZvdAk8pHyGsSeIotNAGEvEJ3X49XHiGvx5FTIAQgAAEI5JwAQl7OO4jqQQAChSCAkFeIbsq+kgh52TPFYusTQMhr/T7OsoUIeVnSxBYEIAABCLQCAYS8VuhF2gABCDSbAEJes3ugSeUj5DUJPMUWmgBCXqG7r8crj5DX48gpEAIQgAAEck4AIS/nHUT1IACBQhBAyCtEN2VfyZlmmslNMcUU7pFHHsneOBYh0KIE1llnHXffffe57777rkVbSLOyJICQlyVNbEEAAhCAQCsQQMhrhV6kDRCAQLMJIOQ1uweaVP6aa67pHnzwQff111+7UUcdtUm1oFgIFIuAPFn79u3rHnvssWJVnNo2hQBCXlOwUygEIAABCOSYAEJejjuHqkEAAoUhgJBXmK7KtqJHH320O+CAA9xLL73k5pxzzmyNYw0CLUhg5MiR3ot16NCh7pRTTmnBFtKkrAkg5GVNFHsQgAAEIFB0Agh5Re9B6g8BCOSBAEJeHnqhCXW4//773bLLLusk6O23335NqAFFQqBYBM455xw3ePBgd/XVV7sNN9ywWJWntk0hgJDXFOwUCgEIQAACOSaAkJfjzqFqEIBAYQgg5BWmq7Kt6J9//un69+/v3n77bffKK6+4aaedNtsCsAaBFiLw4YcfurnmmstNOumk7oUXXnB9+vRpodbRlEYRQMhrFFnsQgACEIBAUQkg5BW156g3BCCQJwIIeXnqjR6uy5NPPukWXXRRt9xyy7mbb77ZjTnmmD1cA4qDQP4J/Pzzz2611VZzDz30kH/pmSFBIA0BhLw0lMgDAQhAAALtRAAhr516m7ZCAAKNIoCQ1yiyBbG75557upNPPtnNMsss7vzzz3eLL754QWpONSHQeAJPPPGE22KLLdwbb7zh95Q88sgjG18oJbQMAYS8lulKGgIBCEAAAhkRQMjLCCRmIACBtiaAkNfW3e9cFEVu+PDhbtiwYe777793K664ohs4cKBbeOGFnSJ09urVq80J0fx2I6BltPJWffTRR91tt93ml9EquMXWW2/dbihobzcJIOR1EyCXQwACEIBAyxFAyGu5LqVBEIBAEwgg5DUBeh6L/Pjjj91ee+3lbr/9di/o5bGO1AkCPUlg7LHH9svO//nPf7rpppuuJ4umrBYhgJDXIh1JMyAAAQhAIDMCCHmZocQQBCDQxgQQ8tq48ys1/e+//3avvvqq90j67LPPKmXhGARamsAkk0ziFlpoIR/confv3i3dVhrXWAIIeY3li3UIQAACECgeAYS84vUZNYYABPJHACEvf31CjSAAAQhAoAUIIOS1QCfSBAhAAAIQyJQAQl6mODEGAQi0KQGEvDbteJoNAQhAAAKNJYCQ11i+WIcABCAAgeIRQMgrXp9RYwhAIH8EEPLy1yfUCAIQgAAEWoAAQl4LdCJNgAAEIACBTAkg5GWKE2MQgECbEkDIa9OOp9kQgAAEINBYAgh5jeWLdQhAAAIQKB4BhLzi9Rk1hgAE8kcAIS9/fUKNIAABCECgBQgg5LVAJ9IECEAAAhDIlABCXqY4MQYBCLQpAYS8Nu14mg0BCEAAAo0lgJDXWL5YhwAEIACB4hFAyCten1FjCEAgfwQQ8vLXJ9QIAhCAAARagABCXgt0Ik2AAAQgAIFMCSDkZYoTYxCAQJsSQMhr046n2RCAAAQg0FgCCHmN5Yt1CEAAAhAoHgGEvOL1GTWGAATyRwAhL399Qo0gAAEIQKAFCCDktUAn0gQIQAACEMiUAEJepjgxBgEItCkBhLw27XiaDQEIQAACjSWAkNdYvliHAAQgAIHiEUDIK16fUWMIQCB/BBDy8tcn1AgCEIAABFqAAEJeC3QiTYAABCAAgUwJIORlihNjEIBAmxJAyGvTjqfZEIAABCDQWAIIeY3li3UIQAACECgeAYS84vUZNYYABPJHACEvf31CjSAAAQhAoAUIIOS1QCfSBAhAAAIQyJQAQl6mODEGAQi0KQGEvDbteJoNAQhAAAKNJTBs2DB34oknus8//9xNOumkjS0M6xCAAAQgAIECELjlllvcGmus4a655hq3wQYbFKDGVBECEIBA/ggg5OWvT6gRBCAAAQi0AIHhw4e7bbfd1j344INuySWXbIEW0QQIQAACEIBA9wgcfPDB7ogjjnBvvvmmm2mmmbpnjKshAAEItCkBhLw27XiaDQEIQAACjSXw5JNPugEDBrjTTz/dDRkypLGFYR0CEIAABCBQAAIrrriie+6557y3eq9evQpQY6oIAQhAIH8EEPLy1yfUCAIQgAAEWoDAjz/+6CaeeGLXv39/9/DDD7tRRhmlBVpFEyAAAQhAAAJdI/DGG2+4eeaZx62wwgru5ptv7poRroIABCAAAYeQx00AAQhAAAIQaBCBQw891B122GF+r7w999yzQaVgFgIQgAAEIJBvAn/99ZcbOHCg98Z76qmnvKCX7xpTOwhAAAL5JYCQl9++oWYQgAAEIFBwAn/88YdbZJFF3CuvvOJuuOEGt/LKKxe8RVQfAhCAAAQgUB8B/S3cY4893BlnnOGOOuoot//++9dngNwQgAAEINCBAEJeBxx8gQAEIAABCGRL4LXXXnNLL7203w9ohx128N55Y489draFYA0CEIAABCCQQwL6IWvQoEHeE2+llVZyt956qxt11FFzWFOqBAEIQKA4BBDyitNX1BQCEIAABApK4IsvvnA77rij98obd9xx3YILLuhfc8wxh+vdu3dBW0W1IQABCEAAAp0J/Pzzz+7ZZ591Cvr0wgsvuNFGG8174g0dOpT9Yjvj4ggEIACBugkg5NWNjAsgAAEIQAACXSNw9dVXuyuvvNI9/fTT7rPPPuuaEa6CAAQgAAEI5JyAItL269fPby8xbNgwN/vss+e8xlQPAhCAQHEIIOQVp6+oKQQgAAEItBCBDz/80L355pvu77//bqFW0RQIQAACEGh3AvLAm3vuud2EE07Y7ihoPwQgAIGGEEDIawhWjEIAAhCAAAQgAAEIQAACEIAABCAAAQhAIFsCCHnZ8sQaBCAAAQhAAAIQgAAEIAABCEAAAhCAAAQaQgAhryFYMQoBCEAAAhCAAAQgAAEIQAACEIAABCAAgWwJIORlyxNrEIAABCAAAQhAAAIQgAAEIAABCEAAAhBoCAGEvIZgxSgEIAABCEAAAhCAAAQgAAEIQAACEIAABLIlgJCXLU+sQQACEIAABCAAAQhAAAIQgAAEIAABCECgIQQQ8hqCFaMQgAAEIAABCEAAAhCAAAQgAAEIQAACEMiWAEJetjyxBgEIQAACEIAABCAAAQhAAAIQgAAEIACBhhBAyGsIVoxCAAIQgAAEIAABCEAAAhCAAAQgAAEIQCBbAgh52fLEGgQgAAEIQAACEIAABCAAAQhAAAIQgAAEGkIAIa8hWDEKAQhAAAIQgAAEIAABCEAAAhCAAAQgAIFsCSDkZcsTaxCAAAQgAAEIQAACEIAABCAAAQhAAAIQaAgBhLyGYMUoBCAAAQhAAAIQgAAEIAABCEAAAhCAAASyJYCQly1PrEEAAhCAAAQgAAEIQAACEIAABCAAAQhAoCEEEPIaghWjEIAABCAAAQhAAAIQgAAEIAABCEAAAhDIlgBCXrY8sQYBCEAAAhCAAAQgAAEIQAACEIAABCAAgYYQQMhrCFaMQgACEIAABCAAAQhAAAIQgAAEIAABCEAgWwIIednyxBoEIAABCEAAAhCAAAQgAAEIQAACEIAABBpCACGvIVgxCgEIQAACEIAABCAAAQhAAAIQgAAEIACBbAkg5GXLE2sQgAAEIAABCEAAAhCAAAQgAAEIQAACEGgIAYS8hmDFKAQgAAEIQAACEIAABCAAAQhAAAIQgAAEsiWAkJctT6xBAAIQgAAEIAABCEAAAhCAAAQgAAEIQKAhBBDyGoIVoxCAAAQgAAEIQAACEIAABCAAAQhAAAIQyJYAQl62PLEGAQhAAAIQgAAEIAABCEAAAhCAAAQgAIGGEEDIawhWjEIAAhCAAAQgAAEIQAACEIAABCAAAQhAIFsCCHnZ8sQaBCAAAQhAAAIQgAAEIAABCEAAAhCAAAQaQgAhryFYMQoBCEAAAhCAAAQgAAEIQAACEIAABCAAgWwJIORlyxNrEIAABCAAAQhAAAIQgAAEIAABCEAAAhBoCAGEvIZgxSgEIAABCEAAAhCAAAQgAAEIQAACEIAABLIlgJCXLU+sQQACEIAABCAAAQhAAAIQgAAEIAABCECgIQQQ8hqCFaMQgAAEIAABCEAAAhCAAAQgAAEIQAACEMiWAEJetjyxBgEIQAACEIAABCAAAQhAAAIQgAAEIACBhhBAyGsIVoxCAAIQgAAEIAABCEAAAhCAAAQgAAEIQCBbAgh52fLEGgQgAAEIQAACEIAABCAAAQhAAAIQgAAEGkIAIa8hWDEKAQhAAAIQgAAEIAABCEAAAhCAAAQgAIFsCSDkZcsTaxCAAAQgAAEIQAACEIAABCAAAQhAAAIQaAgBhLyGYMUoBCAAAQhAAAIQgAAEIAABCEAAAhCAAASyJYCQly1PrEEAAhCAAAQgAAEIQAACEIAABCAAAQhAoCEEEPIaghWjEIAABCAAAQhAAAIQgAAEIAABCEAAAhDIlgBCXrY8sQYBCEAAAhCAAAQgAAEIQAACEIAABCAAgYYQQMhrCFaMQgACEIAABCAAAQhAAAIQgAAEIAABCEAgWwIIednyxBoEIAABCEAAAhCAAAQgAAEIQAACEIAABBpCACGvIVgxCgEIQAACEIAABCAAAQhAAAIQgAAEIACBbAkg5GXLE2sQgAAEIAABCEAAAhCAAAQgAAEIQAACEGgIAYS8hmDFKAQgAAEIQAACEIAABCAAAQhAAAIQgAAEsiWAkJctT6xBAAIQgAAEIAABCEAAAhCAAAQgAAEIQKAhBBDyGoIVoxCAAAQgAAEIQAACEIAABCAAAQhAAAIQyJYAQl62PLEGAQhAAAIQgAAEIAABCEAAAhCAAAQgAIGGEEDIawhWjEIAAhCAAAQgAAEIQAACEIAABCAAAQhAIFsCCHnZ8sQaBCAAAQhAAAIQgAAEIAABCEAAAhCAAAQaQgAhryFYMQoBCEAAAhCAAAQgAAEIQAACEIAABCAAgWwJIORlyxNrEIAABCAAAQhAAAIQgAAEIAABCEAAAhBoCAGEvIZgxSgEIAABCEAAAhCAAAQgAAEIQAACEIAABLIlgJCXLU+sQQACEIAABCAAAQhAAAIQgAAEIAABCECgIQQQ8hqCFaMQgAAEIAABCEAAAhCAAAQgAAEIQAACEMiWAEJetjyxBgEIQAACEIAABCAAAQhAAAIQgAAEIACBhhBAyGsIVoxCAAIQgAAEIAABCEAAAhCAAAQgAAEIQCBbAgh52fLEGgQgAAEIQAACEIAABCAAAQhAAAIQgAAEGkIAIa8hWDEKAQhAAAIQgAAEIAABCEAAAhCAAAQgAIFsCSDkZcsTaxCAAAQgAAEIQAACEIAABCAAAQhAAAIQaAgBhLyGYMUoBCAAAQhAAAIQgAAEIAABCEAAAhCAAASyJYCQly1PrEEAAhCAAAQgAAEIQAACEIAABCAAAQhAoCEEEPIaghWjEIAABCAAAQhAAAIQgAAEIAABCEAAAhDIlgBCXrY8sQYBCEAAAhCAAAQgAAEIQAACEIAABCAAgYYQQMhrCFaMQgACEIAABCAAAQhAAAIQgAAEIAABCEAgWwIIednyxBoEIAABCEAAAhCAAAQgAAEIQAACEIAABBpCACGvIVgxCgEIQAACEIAABCAAAQhAAAIQgAAEIACBbAkg5GXLE2sQgAAEIAABCEAAAhCAAAQgAAEIQAACEGgIAYS8hmDFKAQgAAEIQAACEIAABCAAAQhAAAIQgAAEsiWAkJctT6xBIPcE1lxzTTf//PO77bbbzk0xxRRulFFGyX2dqSAEIAABCEAAAhCAAAQgAAEIQAACziHkcRdAoM0I9OrVy7d4jjnmcJdeeqmba6653GijjdZmFGguBCAAAQhAAAIQgAAEIAABCECgeAQQ8orXZ9QYAt0iEIS8UUcd1enzeeed59Zbbz037rjjdssuF0MAAhCAAAQgAAEIQAACEIAABCDQWAIIeY3li3UI5I5AEPJCxXr37u022GADd+SRR7rpp5/ei3vhHO8QgAAEIAABCEAAAhCAAAQgAAEI5IcAQl5++oKaQKBHCJQLeSpUYt7UU0/tzj33XLfUUku50UcfvUfqQiEQgAAEIAABCEAAAhCAAAQgAAEIpCeAkJeeFTkh0BIEKgl5apjEvD59+rh9993XbbPNNm6yySZrifbSCAhAAAIQgAAEIAABCEAAAhCAQKsQQMhrlZ5soXb89NNP7umnn3aPP/64f+nzzTff7BZaaKEWamXzmpIk5IUajTPOOG7xxRd3hx9+uI9uS1TbQCb5/e+//3YffPCBv2+vu+469/zzz7s33ngj+YKCnsn7s/n222/7MeOxxx7z71oqfuONNxaUNtWGAAQgAAEIQAACEIAABCDQmQBCXmcmiUduuOEGN2zYMDfGGGP4lzyYJHJoEv/bb7+5X3/91e2www5uzz33TLSR9sRTTz3lpplmGte3b9+0l7REPokfs88+u/vrr786tEdiXv/+/Tsc40vXCNQS8mR1zDHHdFNOOaU77LDD3FprreUk7rVi+uKLL9zAgQN907ScWC8913/++af7448/Or3CcUX5HX/88d0555zj3nnnHbfbbru5X375pYRIz+0nn3xS+t4KH/L+bA4aNMhddtllHVCvuuqq7tZbb+1wrF2+6N6WsKkfQBDj26XXaScEIAABCEAAAhCAQDsQQMiro5dfe+019+STT7rXX3/d7yX27bff+qvHHntsN3ToUDfTTDO5WWed1Q0YMKAOqx2zSsAaPHiwO//88920007r3n///Y4ZWvyb2v/vf//bt3vvvff2QoqaLPZiS+o+gTRCnkpRVNtJJpnEbbrppv6e1P3daumHH35w119/vfv666/d8OHD3auvvlpqooT0CSaYwI033ng+AIg87j7++OMOIrPyS/B74okn3L333uvkjac088wzt5xHXt6fTfXFiBEj3MUXX+z7Qv2w4YYbuquvvlof2yo988wzTiLm559/7i688EK31VZbtVX7aSwEIAABCEAAAhCAAARamQBCXhd7d8iQIe7MM8/0V6+wwgrurrvu6qKl/10mQWCzzTZz1157rT+49tprO3kBtmuaY445SsLKRx995Kaaaqp2RZFpu9MKeaFQiVnzzjuv3ztvmWWWcfJGa8Wk507CT0jff/+9G3fcccNX/65nVOL6Jpts4kUjeeIGbyeJzfImVRIviUqtmvL8bEpMVRRmpW233db/KNKq/VCpXY888ogX8XT/ynv8oYceYluCSqA4BgEIQAACEIAABCAAgYISQMjrYscdfPDB7ogjjvBXb7zxxu7KK6/soqX/u0yCwPrrr+9uueUWv6xR9uWRJq+odk1aEqYltUpfffWVm2iiidoVRabtrlfIU+FjjTWWj2q78847ew89eeq1WtKejIsuuqhvlhjJAy2J1dZbb+09R7/88ssSBnnsTTfddP77Yost5iSotGrK87N5++23eyFL7HfZZRd32mmntWo3dGqXvELXXHNN9/PPP3vxTt54El1JEIAABCAAAQhAAAIQgEDrEEDI62JfHnXUUe7AAw/0V2tvpksuuaSLlpyfdGkfsnvuucetscYa7tRTT3X/+Mc/umyvVS6MiwXfffedX+LYKm1rZjuSxKlqdQrXaO83Cc66R1stKUDFfPPN55ulPQG17DYpnXDCCe6qq65yzz33XCnLp59+6vcV1IGll17a3X///aVzrfYhz89mXMjbfffd3cknn9xq+Cu2Rz8C6dmUF+nRRx/tI08Hb9GKF3AQAhCAAAQgAAEIQAACECgkAYS8Lnbbscce6/bbbz9/9TbbbOMuuOCCLlpybsstt/R775100klulVVW6bKdVrswLhYoWmafPn1arYlNaU8Q5bpa+Oqrr+690bp6fV6v0x5rwXtpsskmcyNHjqyrqso/xRRT+GuyWm5fVwV6MHOen824kKfgRMcff3wPkmlOUS+//LJbaqmlvJCnH5nwXm5OP1AqBCAAAQhAAAIQgAAEeoIAQl4XKWtyuM8++/iruyvkhSooyqUiYGpz/VlmmcXvbxTOVXvXEkDtz/Xee+/5pbj9+vVzM8wwQ+KywHJbirap6Iba8F+b9NeKlBtFkd/cX3vWKSCHkpYG//e///WRO7U/mPZmqiepDfKIUgRg1X3iiSf2S8PC0lpFBK5ls6v86qlnK+TtipAnzx5dt84667jtt9/eLbfccq2AokMb4nvcTT755O6zzz7rcL7WFwUW0HVKEuRvu+22xEueffZZf59POOGEiXneeust9/vvv5f23Ytn1JJeLbuvdn08f3c+5/3ZVHRWibCKsjz99NN7z2YFelDad9993THHHFOz+d98843T0mgFMJpxxhn9MvJaF2UxDmZhI17PesfycG1XrhN3/b3SvpH6m6HgMIr6TIIABCAAAQhAAAIQgAAEGkzAJhKkLhAwIS+yrvEvE/K6YOH/LrGJenTGGWdEFpG1ZE92bZIeLb/88tGbb76ZaNuW/kV77LFHZOJBh2t1/fzzzx/95z//iWyCGtmkP7JgEZFNdjvYevHFF6PNN988MoGsw/W2/1l0+umnRzaBL+V/5ZVXoksvvTTaddddo6mnntrnFwMT8CIL/OHrG3jI3sCBAyPbc6x0fdIHW04cmTgUmSDRoQ62V1lk0YBLx+J1idvqDr+4nfhntcsmpdGKK64YmTgTP9USn0M/1fNunmaRiSKR7hmb9OeSg4nR0RJLLBHZsvTIoj7XXUc9H4GJnqmktNJKK0XmjdvptO6VcL15LZbO69594IEHohNPPDGy/TQjE6p9PoumWsqjDxZp1D9j5kUWzTnnnD6PRQzukMei5ka2XDQy71T/3Jv3WYfz4YuJ+tGkk04amSAeLbnkkuFwXe95fDZDA+xHh8j2EY3sR4PIBOYSd40j/fv3L30/6KCDwiUV3215dLTIIouU8of+sx9T/LhkgU06XJfFOJiFjQ6Vsi/1jOXxa+u9TveyRQWObC/ITsw0Xtv+fJGeQxIEIAABCEAAAhCAAAQg0DgCrnGmW9tyFkKeeQBFc889t58QmYdTZB48kUUYjI488siSiGVBBqKnnnqqE0zzHonmmWceP4mVuPbSSy9Ftl9XZMt0O02wwuRUtiySobelMiz6qBcEbElv9MQTT0QWsCNSPUL+ddddt1SuhLlwPLwfeuih0bLLLtvpeDivybDsVkqvv/66FyqVV4KleB533HGRBBDVM9jQuybqlVJ3+FWyp2MWVMNzCeWrXq2WQttqvQeBROLYeeedF3344YcdxN28cZGoHdpkkXa9yFxPHdMIeX/++acXnW1/zE6mk4Q8CemhXvH3O++8s4MNPS/x8/ps3o8d8tiS3w55zAOq0/igOlqwDZ/PlsBGFvm6g41aX/L6bKreapvtzxipfyVSStQ8++yzIwvC0unHEPE77LDDEptr+8h5RrJzwAEHRPfdd180fPjwaLXVViuJg7ZXYnTZZZeVbGQxDmZho1Qh+1DvWB6u7cp1EpnFVT/26LME6muuuSbS34pw7z722GOhCN4hAAEIQAACEIAABCAAgQYQQMjrItTuCnkSRWwpmJ/8yPNLE9R4kjdMEFLkdRI/b4EfIlvK5K+16Jnxy/znTTbZpDSpkmefPE700gRYyaLtls4//PDD/lj4Rx52cXHu+uuv96ds+VRkS6n8hDlM2PQu76ezzjorkueKBAt5GY0//vgl+wsssEAwXXp/4403oiBaSEQsTxIlbXlwyYYt6yzP4kWlrvLrZCx2wPbi8yJBaKMm9q2WQtuqvevek2el7i8JHLbkMPcYgjCjdsljKMmLM6khcSFP96fES4v6GZ1zzjn+2ZHQHJ4tW67ZyUySkKeMtmQ8sqXf/nkJ3C2qbQcbyiNvx7322qt07++2224d8kgkkWAZ92DVMyjv3JAkXqkMebVa9NJwONV7np9NNWDw4MG+bbaXYSSvw3jSGLn//vuXxk0xOPzww+NZSp8POeQQb0c/GlTyHJY4GPpJecRFKYtxMAsboSFdGct1bVeuE4PARM9EeRJ7nZcQTIIABCAAAQhAAAIQgAAEGkcAIa+LbLsr5A0dOrQ0Kao0kVS1ZptttlKeuOAmD5swoYofD02Rp1o4ryWi8SSxQZ54Oi8BsVKSh0W4XqJePGlZVTin5X1amlWe7r333lIeCUJxMUGfgxditSV/EislUKisSkJed/iV17f8+9133x1ZFGEvAuR1GWl5nev5Hvqv2rvtExZJ7JC4peXLRUgSG7Xkdb311oseffTRuqscF/KqsdE5i4TayX41IS9klndjsG375IXDHd4lHoc8Ws5cKWl5przSQj555SpJ6Ovdu3ek/pOwXk/K+7N5+eWXl9r74IMPJjZN2wIELpWEPP04Ec7rHk9K8hQO+ZZZZpkO2bo7DspYd210dSzv6nVnnnlmiYfth9qBh77oBxjx0o9UJAhAAAIQgAAEIAABCECgcQQQ8rrItjtCnrzetJxLkx55PckTp1IaNGhQaeIU3/NLy+3CBFMT+vIkT6RwXnubxZP26QrnLLph/FTps21gXspjAS1Kx/VBy2/D9fKOSUrxPZS0P19I1113Xen6m266KRyu+L7gggv6vOVCXnf5VSysjQ6G/it/Dx6gFigguuSSSyIL9pB4b7YirriQp/2+JIppWbuWh2u/yVv/X3tnAq9FVf//Uyq5ZIBLKuGOW2mkiJi5YYRBBbnggruC5kJakpjgUpi5JCIuuUCKaCSapriklZppLqCoqLiQogZqJS5o2jr/8z7/33c6z9yZ5z4bl+fe+zmv13WeZ+acM+e858zgfJ7vctttyUknnRTWpFm3xhwqEfIQhIw758sr1113XVqnnGvozTffnNbjHsGKl/h7WBMW9Z13PtvX7PcmVniww0K5XCFEgTHOE/Jii+O77rqrsKtY8INv/INEvc9BTlpvH7U+y2ttd8EFF6Rc+bfJwjQYQJ7LiNNYHKqIgAiIgAiIgAiIgAiIgAgsPQIS8mpkW4+Qh/hmL5pYtWEBx0s5QgEvlli03Xrrrck+++yT1ouD6++6667pfl5as4UXKl48OcfIkSNLDg8bNixte8ghhyQ33nhjcssttyQEzee8xO1in4k69OEzxqZ9xNZ6xMgrKhaji/bmlkZd5mFzb80Fq0jIq5df0Zg7y37jn90iACHOYuWJi3FnK7GQVy7ZBXHqEDWypRIhr3///un6f/nll7NdhO+4p9u14TlTrpirqdXnvuc5Uktp5nsTEY0wAcxzv/32Kzu9ckIeP5qsuOKKKV9iYhaV2JWU88YWlPU+BzlnvX3U+iyvtR3zt3XGlviBiP64nD/yyCMl4R+KmGq/CIiACIiACIiACIiACIhA/QQk5NXIsB4hD7EufiEq9xmLPSxRsJCyElvk4QKaLYiA1iduonHJy9BodeMtQh6CBaJhbGExY8aMtO8iiz7OF7ulxVkMyfhp52kt7ppln0SciEu9/OK+OuNn4x9vSZxC8HusMeN4jJ2JT6VCHhmm82I7ViLkxYkOsHjMK7HAM2nSpLwq6T4E10022SS9p3DdrbU0872JVaStV9zqyxWETKubtchDuLNjbOMfKbJ9ch/Eoh/XxUq9z0H6qbePWp/ltbZDBI3/7Yk58pkfAsjKnLXUM2baioAIiIAIiIAIiIAIiIAINIaAhLwaOWKFYC8yRxxxRFW9xC5bWP4gANgfCSUWL16cECOuKDbZrFmzUos7xoD7nYkvuAISF484WbE7rg1wq622SseNi5Wdly0xtd5+++3k/fffL3SpjF8+8wL+23liF0ISYViJk1jkxVmyemwtRmBWyKuXX3yOzvjZ1i1c+SPjJFZgXPvOXCoV8ubMmZMsXLiwBSruIWNL9uW80q9fv7ROEe/YtZZEMq0V7kM7L9uZM2e21iT3eDPfm7EbKmJRuRILoVkhD+Yxq/hHhrw+LZ4nbeJQAPU+BzlXvX3U+iyvtZ3x4VpgiYf7eczSPvMjjooIiIAIiIAIiIAIiIAIiMDSIyAhr0a28cvzoYceWlEvkydPTkhU8cQTT6QvQFi+1eLGiJhlySB4gcLNqWfPnkGY4UUta4lnA8SCz164iPdVbYnd/spZ5MVB/WPRI45P1ZoL4JprrhnGmhXyGsGv2nl3pPp2/RGRjz322OAyiDt2Zy+VCnlFnLCwM7YIHXllm222Sesg/OUVMuVaP5dffnlelXQf9wL3vtVny3XlB4FqSzPfm7h72xyx1C1X4qQMWSGPdhaflP7KxcijrsXlo25sQVnvc5C+6+2j1md5re0Yc1yw1H788cdDRufY0hRWRWs7bq/PIiACIiACIiACIiACIiACtRGQkFcbt+CGaC+WBx10UEW9YCl31FFHhaDpiFPWnvh4tRTcILt06ZKQkALrOmJDFVn5WP9xHKytt9660PLO6me3sbVQ3kuy1d9hhx3S+b355pu2O8Rgs3kXWS1ROY5PhdgZF+JlNYJf3Gdn+rzZZpsFl+mzzz47ef3116teAx2V1ZNPPpmu2dVWW63qaS5atChtP2jQoNz2JGqw9V8UIy++RxH/iwrXjmfKSiutlGCl26dPn7TvIiGxqC/2x/H2mu3e5Bli3HgezJ49u3Aqw4cPT+vmJQuJn03ECS1XVl111dAXlnlxqfc5SF/19hGvk2qe5bW2I7u6ZUeOWdjnww47LOVOchgVERABERABERABERABERCBpUNAQl6NXMeOHZu+tBxwwAGt9vLiiy+G+sQho8TJIHr16pVUaxHFizsx7Lp375689tprrZ7fKpDZ0l6I2U6ZMsUOVbS9+uqr0/blkl1YfDvOgcBhZdq0aWl7jt155512KN3iUhy75lKPTLxxqZdf3Ff2M5YmjCvOtput056/77nnngnWlLhwd7SCqyTWW9n1Usk8CdjPWuMPcazasmDBgrQ91m15Zaeddkrr5LnAkimXuJg2jjz3ePr98MMPk+222y7Uu+qqq8Kp5s6dG4R9azthwoSwv9L/NPu9ufHGG6dcsPjNe2ZiYWdJMeBw6qmntpj+eeedl/ZDsqGiHz/uu+++tF6WZb3PQQZVbx+1Pstrbce/Fdks5jFci02I0NpRn53xfPVZBERABERABERABERABJYVAQl5NZKPg363FrMJUYHg+LxY8vJGIc5W/MJJXKG8lx8yyWJdk33ZNEEAizxeXolrR+FcuOoS1B2LnWw76hATzV72ccvLs/pB5Bk3blyLoP6x2xrHi0ocgH/+/PlpNcYXWyWtsMIKCQH9zb0YV8F99923RMxgrEuWLEn74EO9/Eo6y3wxgYQ4g4g7Ku2DAEICIgLrpZxFWdFsEG/tvqCfaoP2P/3002l7YuHllQMPPDCtg2t8LHIjsCDO2xjYXnjhhS26IR6m3cNZa2AEWmvPvYULfqWl2e9NwhLY3NjCGHdoCjFFid1GwoW4zoknnthi+vxQgFWq1Rs4cGALUZA6u+yyS6jDWiLRQ1zqfQ7SVyP6sHXAXKp5ltfSDjGTNVVkSTpq1KjAa8CAATEqfRYBERABERABERABERABEWgwAQl5NQDlhTt+YVxvvfUSrPIOP/zwkNWPLS/YQ4cODS+bcVBwhDkrxNmLXUTpc8iQIcmYMWOSESNGJLhL8YLGS2e29OjRI30RtRfSoi39xIIBgmEstNEOcW3kyJEJcfMYt81v+vTp4dQIe7zAYc1l59l+++1DfLU8wcPi21F39OjRwWoQKyIKLlrWv/WFaLbGGmuEvtk+8MADCZaKdhy3rQcffDAVLOmnHn60zytYN9o52Z5yyil51bSvCQmQdMauHfeVrbdyQ0WwwVoWV8299947bW/XHmE5dg3P6wuRGRHvmGOOSdt37do1ufbaa4OLeCwCcf+z1uNxIuiZsLTRRhslJohQB8EeC0OznnzqqafCs4ZjxMJDsI8LIl+cUINzHeLdR4vEl7gtn5v53mR8w4YNS9kZQ9ygEZj4zlzjGIPrr79++J5NasGzJH5G7b777iGZBfE877///sCd/sjaHf8Y0ojnID+wNOpZWsuzHI61tDOXXP49O+200xIsFonFOG/evHTt4+od/1vDuVREQAREQAREQAREQAREQAQaS0BCXpU8EQdi8c1eJivZ4q6HaBAXBKvNN9+8xcsp/eHGNH78+JIg69YWkSAWCFs7Py+kcSHO3AknnJC+AMftmR9WKFj6mQiBaBfXiT8jKmZLVqij/tSpU9NqWOn17du3RZ+wsJduEyvNyirbB53Vyi8dSM4HsxjkvLzwq7QPAsSatHWJlVUlhbVmbYq2CMrlSpzBOq8PskHHhdho2QQVtENIfOeddxIsn7L9mIUfrvR27MYbb4y7TT8TOxMBy+rxHEEArLQ0873J8wjX2Nj9mHlyr1rYgiuuuCLMPX5uIJZmC8kr+OEk73mOIIWFX7Y04jkYuwjbNbJtLc/Sap/lNqdq22HtGa8/GzNbLMP59yS71u1c2oqACIiACIiACIiACIiACDSOQMgi4P9HXKUKAt6awfmXP+dfxt2KK67ovNWL825pzlvDpH8+zlr47F88nbcWcV7Ec17cKjyLt/pxPsaV8xYhzr94O2+Z4/zLuPPuty3a+NhQbuLEic6/uDpv+eOOO+445y3snH+ZCnX98nBecHT+hdbdc889YZ9/qXVeJGgxBm+R5J577jnnXdTCuTivFy5Cv/GJvetumKN/gQ7z4Rjz5Tz04V0C4+rOu7qF8TAmxutfGp23nAnc4orM11tDhTq9e/cO84AtxVs6BW4w+Oijj5x3v3VevAz74j74XA2/bNvsd87lE4c4L+g5/9KdPazvTUzgmWeecV6IcoMHD07Xabnhct968cHZuma9st64b7mHWQusc2+9VdgN65L7gLb8cb/TL/toz73B/RcX+vQZP523znLeAtVtueWW6T3HebnfeL5Qjz7ok+/eAipsOSftioq3LA1r2Av4zovjRdXK7m/Ge9MGzDPFi5POW4OF5yTPjm7duoXD9lzyiSoCP1jxjCq6hhynL/8jS3j2+ky1bu2117ZTlWwb8RxkjfCMtjXHCWzM9TxLK32Wl0zIf6m2nbdKDPcY/w6yLvn3in9/4K0iAiIgAiIgAiIgAiIgAiKw9AlIyFv6jBt+Bp/owfmg+G6LLbZw3u3Orb766rnn4OVwxx13dD7OWzjuMwk6HyQ+t652ioAIiIAIiIAIiIAIiIAIiIAIiIAIiIAINDcBCXlVXB+sKJZ1QYzr379/GMa5557rfPy5skPyrrnu9NNPD3UQ9Lw7a9n6Hflg1iqqI89VcxMBERABERABERABERABERABERABEeh4BCTkVXFNffyi4ApXRRNVbSICPjuu84kEmmhEGooIiIAIiIAIiIAIiIAIiIAIiIAIiIAIVE5AQl7lrIIrK7HYlmWx+FmMYeWVVw5xlsqNh7h4Fo+J+p25nH322e7II4/szAg0dxEQAREQAREQAREQAREQAREQAREQgXZMQEJeO7t4BOZfb731QiD9tdZay82ZM8ets846LWZBUPyhQ4e6hx56KAQi99lXC4O9t2isHSIgAiIgAiIgAiIgAiIgAiIgAiIgAiIgAk1HQEJe012S1gc0Y8YMt99++wVLO8S8U0891e22224h6QWZbx999FE3efJk99JLL7k+ffq4G264wW244Yatd6waIiACIiACIiACIiACIiACIiACIiACIiACTUtAQl7TXpryA7v33nvduHHjQvbavJrbbrutO/zww4Mr6XLLLZdXRftEQAREQAREQAREQAREQAREQAREQAREQATaEQEJee3oYuUN9Y033nAvvPCCe+WVV1yXLl2Cm+1GG23kevbsmVdd+0RABERABERABERABERABERABERABERABNopAQl57fTCadgiIAIiIAIiIAIiIAIiIAIiIAIiIAIiIAKdi4CEvM51vTVbERABERABERABERABERABERABERABERCBdkpAQl47vXAatgiIgAiIgAiIgAiIgAiIgAiIgAiIgAiIQOciICGvc11vzVYERKBBBP773/+6V1991c2aNStkhn7iiSdCvMoGdd803XzwwQdhjg899JDjj/necsstbrvttmuaMWoglRHo+jXBYAAAN7FJREFULGu2MhqqJQIiIAIiIAIiIAIiIALtk4CEvPZ53TRqERCBGgn89a9/dTvuuGNoTYIY/pZffnn373//2/3rX/9q8Wf7V1hhBde1a1d32WWXuZdeeskdf/zx7sMPP0xHsc4667hFixal3zvCBxLpfPazn3X/+c9/SqaDmEdmbJVlT+DPf/6zQ0Ref/313VZbbVU4oCuvvLJTrNlCADogAiIgAiIgAiIgAiIgAh2EgIS8DnIhNQ0REIHKCCxZssT98pe/dIsXL3ZTpkxxzz77bNpw3XXXdd26dXOf+tSn3Mc+9rFgcbdw4cISIYv6CH4PP/yw++1vfxus8ehgk0026XAWeQh4t956a8iKfdJJJ4V5M9d58+a5zTffnI8qy5AAQnK/fv3c3Llzg8j8+OOPO7KW55WnnnqqU6zZvLlrnwiIgAiIgAiIgAiIgAh0JAIS8jrS1dRcRKBKAlibYY3WWcuMGTPcvvvum07/vffec6uuumr6nQ+Idq+88oobPny4mzNnjvvHP/7hPv7xj4c6CFpYrFG+8IUvhOPhSwf8z+c+97lU9MQK7DOf+UwHnGXjpzR//nw3YcIEd8IJJ7hNN920oScYOXKkmzx5ctpnnz593B//+MdgZZruzHzoTGs2M3V9FQEREAEREAEREAEREIEOQUBCXoe4jJqECNRGAIFh6tSp7sQTT3T777+/w320MxVivu2www5hyljgYYHGNq8cfvjhwTrtb3/7W3qYGHm4NFK+9KUvuQceeCA91tE+EBMPl1rKW2+95VZbbbWONsWGzweh7Wc/+5kjNh3Wm1/+8pcbdo6f//zn7oADDnA9evRwV199tRszZkwQkkeNGuUmTZpUeJ7OtGYLIeiACIiACIiACIiACIiACLRjAhLy2vHF09BFoF4CP/7xj90pp5wSusHCirhvRx11VHAtrbfv9tCe2GJbb711GOonP/lJh9ttUTnvvPPc9OnTHe6LVl5//fUgpPC9f//+7p577rFDHW4bC3nvvvtup1kj9VxIYtY9/fTToYvZs2c7LOYaUYhdSF89e/Z0v/71r4OYzNrde++93d133+1uvPFGt9dee+WeqjOt2VwA2ikCIiACIiACIiACIiAC7ZyAhLx2fgE1fBGohwDC04gRI9zLL7+cdkN8OCyJcAVEKOjIhXh3uIxSPv3pT7s333yzqulSf+211w5tBg4c6O66666q2renyrGQRybblVdeuT0Nf5mMFbHNhN/nnnvObbbZZg0ZB3HxsBy9/fbb3eqrr572iRs49y5ZhbG8y7qJU7EzrdkUjD6IgAiIgAiIgAiIgAiIQAciICGvA11MTUUEaiGAOykWPFicPfbYY2kXuNkSP2706NGud+/e6f6O9CGOF7bWWmu5N954o6rp/eUvf3G0owwePDgIK0UdwJZEBN27dy+q4oin9s9//jONuxdXxKV3ueWWK9s+rl/PZ9YE1oq4hDJmxKJYyPvoo4/cJz7xibKnIIMv2X0RhhGwWqtftrPMQfp+/vnn3Yorruh69erl1lxzzUyN0q9vv/12ELbeeecdt/HGG1ckUCdJEpJDYKm63nrrhQ6Jj8h5STJBTMTW5oTbNu7bFOIsWj9hR+Y/L774YnBZ3n777cMRzoUrM/EY+/btW+L2zjHuT64T8QpJyLLKKquEBCQrrbRSiONYNLZq1iwDYa5/+tOfQnIYErqQnbm1QmZorj3CIvVJIkN2aBUREAEREAEREAEREAEREIEGEPAvKyoiIAIiEAh4C71k0KBBiX+0lPx95StfSby1WdNR8gJDsvPOOycbbrhhcuWVV1Y9Pm+Rl87TC3KF7b/61a8m3//+91sc96JI2v4b3/hGetwLLMm9996b/OQnP0l87MHEi2Gh3i9+8Yu0Dh+8u2VyzTXXJN/73veSLbfcMtTxcc9K6niRJvnOd76TeAu4hDHecccdJcfty4IFCxIvaCVedEt22WUX213V9je/+U2y5557Jl5sTOfFWvCCVOKFonQf88srXoRMLr744sRntE3r0t4LkAlryItVec0q2uetRpNDDz008cJQSd/eMi3ZbbfdEm/x1qIf7wqdfPGLXyypz3i8uBjm6cW1kjbPPPNMuB7f/va3E2+NGtqde+65iRfOkuOOOy7Mw+4NL5QlO+64Y+KFupI+4i9cB6vP+L2QmHiRK/HurQnnuuqqqxIvlCef//znQz1v1Rma+6zK4Xpb25tvvjnuNvFCZnLMMce0uE5e9Eu8sJn4BBiJF2FL2tiXojVrx23rs9wmBx10UMI8bRxs11hjjeSiiy5KsmuA7z5WX+JjRpbUpw1rZ+jQoQn3q4oIiIAIiIAIiIAIiIAIiEB9BFx9zdVaBESgIxKYO3ducsghhyTe6qfkpRzBAeEJwaYZyne/+910fN26dQuCSzXjqkTI85l9g2Aybty4Fl0XiSLeei4dVyyC+HhmJX0gKMXH+XzkkUeW1PEuvyV1vGVT8uijj5bUYYw+2Uao5y3nkptuuqnkeGtfEMEQ2jg/W8Src845J0Gc9BZeJedHOMsr3roxFaQGDBiQeLfP5P7770/OPPPMVASkr+zY8/qK9/nYb4lPxhIEJQRGRFXEUW8lmviMy+nY7rvvvrhZctZZZ4VjCJtjx45Nfve73yVTpkxJvv71ryfMgbn6uIjJtGnT0nYIc9nrccYZZyQ+SUWL/VaPa/jwww+nffDBJ7YoOY/VtS3n9xacLfpk3/XXX18yL9rEYqF3mQ1iHfthgRjI3BCDveVb2iciIsJhthSt2bge14x7H/H4/PPPD/PzyTUSrqvNwcfgi5uE83MMoY+xIGQzF+pZG59Rt6SNvoiACIiACIiACIiACIiACFRPQEJe9czUQgQ6DQHvthcshrKCE9ZKPqj+MudgYg1CAZZAWSuh1gYYC3nM8Yorrkh8ltHksssuSyZOnBjErOHDhwchwicGadFdOVEEiygsp7AWNCHDZ7Ut6YM63nUxMLY6PuFISR3EDwTL2EqOPhG4rPzgBz8I58By7u9//7vtrmjrEycECzXOj2iTLYi6m266aToHrL6y5bXXXkt89tRQZ/fdd08QFuOCpZ+JZ94ltcXxuG78meuJ8MbYsBTFmi0uWLX5hBLhOPOwcvrpp4d9CIexCGbHf/rTn4bj9Esda+tdQcM5jj322PQ4deB96aWXJljwIdJiWdm1a9e0jo+FZ12H64l46N1o0+P0geiGMDpkyJBkjz32CBZzCOKIixznjz4RahEYEc1NRDVLNu+ummywwQahLgJZdr0zNh/zMe3viCOOSMdlH8qtWeqMHz8+bf+HP/zBmoUtlomxqInlIAV+NgfunWzxCXXC8TyryWxdfRcBERABERABERABERABEShPQEJeeT46KgIi4An4LKUtLIjyhK22hoXFES6vPltn8uCDD1Z9+ljIMyGiaDthwoQW/bcmitAA11/r08fJa9EHO2Ix5+STT86tg2iF1aH1hfsnBaEPyzQf+y2ITLmNC3Yi+plbJxZcRYXrb4JknpDnE6Ok48oTzuh3iy22SOtkBaKi82IFyXwRuN56663calwX6rz//vvhOOKSMULQKypmgUhdXHPjgouo9YFVGm6m2YLVndVBpMwTUONzvPfee9kuwnfEQeuHLVaBNhcsODm/j90Y6tq18rEBc89HJcTiuL/f//73oa39p9ya5ZhZ4SLI5hWs7Kx/RD3KJZdcku7zMQRbNEMMpg2Cr4oIiIAIiIAIiIAIiIAIiEB9BCTk1cdPrUWgQxPAsmrGjBmJD7afvqjzQo6Yg9jR3kss5BHHC1EM109cJRFAbrvttuSkk04Kc8dCL1vKiSJWF5HIhA/Ol1euu+66tA7WdUWFWGnWF9cASzfi72FNWNR3UV/sv+GGG9L+fvWrX5Wrmq6BrJCHlRYWaIyLeGpFsdkOPvjg9FyVxDPEWg3rNPr91re+VTi2OXPmBKs9qxBbjJWL6xgLfswpFuJwIzXORx99tHXdYhvHg8N6NVsqEfIQo+1cCIJPPvlktpvwHfHT6hH3r1wxK0XqZ2M7lluzxHS0c/zoRz/KPQVWgVbHJwIJdS644IJ0H9c5K1qyRhCxsXhUEQEREAEREAEREAEREAERqI+AhLz6+Km1CHRIAogaWNlg5WUv7Wxx9SPIfj1JC5oJWCzklUt2QZw6xIpsKSeKWN3+/funDEl4kFdw1TTOxKcrVxCWrC5bRCgEx1oKIo/11Zrbo4m5WSEPS0HrA+sxLLYQHBkTQhqWa7feemuyzz77pPWy4lLe2BHorF+fUTmvSot9iIhYq1m7Iis+GsbuoNSPrSVjqzNi5BUVi0tIe3PPjetWIuRxr9l4TRiL+7DPWMBavaOOOsp2527NHZz6cRIWKpdbs8OGDUvPQYxMn806ueWWW0KCFa4jFoLsMzdp+vcZjAM7GxtbXIO/9rWvBdf0Rx55pGJX6tzJaKcIiIAIiIAIiIAIiIAIiEAJAQl5JTj0RQQ6NwFikCFcELA+fjEnGyqWYtkYZe2dVqVCHllY8+LHlRNFjE2cQMFcJO2YbWPhaNKkSbY7d/vBBx8km2yySXp9cN2ttRC3za5zXmKEuN9tt9021M0KeYh11kdrWyz2iOE2derUuOvcz8QqtP5aY2IdINxZG7aITEUFa9NY9OMaWMEK1fopskyjbizUWRw76yN7PGulZvWwPLRzIZYWFVyprV6R+7W1ZcxWF5fmuJRbs3kZfq2feIuQh7i96667Bis7BFSStMR14s9YjJKgpIhBPD59FgEREAEREAEREAEREAERKE9AQl55PjoqAp2CACIEAf4tuL69hCMYEbyehAwdsVQq5GEdtnDhwhYIyokiVrlfv36pwPH222/b7pJt7FpLUoXWSmydxbWaOXNma01yj8dJLPJim8WNLMZdVsiLXVSxaoSJ/SH8Ll68OMRYrDbT8WmnnZZyyyYAiccVf4avrV22eeJaXN9izlE3di2OhbxysSBjt2li3WVLLPQViVgIszbmnXbaKdtF+j2OQ3jQQQel+/M+kLXY+iS5SFzKrdnYJRc3W7uObEmkAV/i9xW5T+OSjCUebup2/ngLDxUREAEREAEREAEREAEREIH6CEjIq4+fWotAuyaAOyXudMstt1zJizfZT3GPzGbFbNeTzRl8pUJeTtOwCws7EyoQMPLKNttsk9ZBEMkrsfXZ5Zdfnlcl3ffEE08E10U7L1sEtFqsJeN4cq2552KVybmyQh7jsbFgqYUw1Yhy0UUXpf0WJV7IO4/F62NM5WLk0TbO8BpbS8auzuUs8uJEJnlCb8y3yOIxjpGXTboRzy/m0VqMvDj2YTbGX7k1+81vfjNlTmzIWgux8B5//PGQ+Tm2SOWaFN0DtZ5L7URABERABERABERABESgsxGQkNfZrrjmKwIRgbPOOit9cUeg2WOPPULCh6hKh/5IYgEToVZbbbWq57po0aK0/aBBg3LbYxFl5yiKkRfHqps8eXJuP+x8/fXXk3XXXTdYTs6aNSvp06dP2neRkFjYmT8Qx9vLxlKL28Xx5BDr4kKMN9aOzREBuBEFYdH6RGh++umnK+oWEdraEeetXFl11VVDXSzz4hJbSP7whz+MD5V8js/15ptvlhzjC5mAbSxFQiv7rQ4x94rK3XffndbjGpB0oqjgBm59Yp0Xl3JrNl6HW2+9daHlXdwfn8lUbFmUs8f4fthhh6XjyWbRzauvfSIgAiIgAiIgAiIgAiIgAsUEJOQVs9EREejwBBDycKdF0GmvCSxwnySjZy3WgwTiN8EDDtWWBQsWpO2xvsoruEvaOfJcYMmUS+w4q1OU0RX35u222y7Uu+qqq8Kp5s6dm2Z2pf2ECRPyhlC4b9q0ael5aX/nnXe2qItLbOxCSr0s6zjpQ69evRKylNZbmG/Xrl3T8VUqVJIYw1iSfKPInfm+++5L62W5kZHZ+iiX7MLiBlIXgSxbYi7z5s3LHg7fY2Gtd+/euXXYiWvu2muvnY7rlFNOKaxL7DrGRPKMrEtvuTVLFmSbN9spU6YUniM+QL1yiTpMlEWAzMvuG/elzyIgAiIgAiIgAiIgAiIgAuUJSMgrz0dHRaBDE+ClvshSqD1MHIEAcQDRoZxFWdFcEK5MuKCfrOhR1M72YyVm7YmFl1cOPPDAtM6GG25YIvggnJA0wPpge+GFF7bohsQMe+21V6iXjY8WJzZYYYUVEmLWVVoQ5GKLQdqTWMLcY3Gb3XfffUuERsa4ZMmSklMQQzB2zyYWWp5gQ+ZTBLkica2kU/+FscRsGEv23Mzh0UcfTRNbIDxuttlmabuBAwe2EBapY9ZyrJtszDcyNtt5x40blx1W+j1OOjJ//vx0v31grtYP2Z4ZK8JdbCVHbEKrs9FGG1nT3O0111yT1u3SpUuu67BZ7nEtEYmzpbU1a+uMMZF9Ns9ClLiHcLEEMAihnK/I4nTUqFFh3AMGDMgOR99FQAREQAREQAREQAREQASqJCAhr0pgqi4CItA8BI444ohU2MC9s5KkHIg4WB/Onj072XvvvdP2CBdYOSFe5blJxrNGTEIQQZwxEQbrsWuvvTbBDTUWhhCvll9++bQe40TQM7EJ8caEDvrCgg8LQ8QSylNPPZUccMABoT2x8MjMGhdEvjihBuc6xLuUFokqcVs+4xZJVlGbB1v6sMzFbB944IEESzurg6vkgw8+GBIfWH8khYhdbOlzyJAhyZgxY5IRI0YkuGrSnnlXU84+++z0vLRfZ511kn322ScZO3ZscvjhhwdXY0RYYrJZYWwW0482xNgjmQVx7O6///7AmP1YrsWiIszhtueee6bn3H777ZPHHnssV+SNzzF69OjktddeK1mDZJflPPbXvXv3IIrSJwI6Y46TWMCPNcT6fPfdd2066ZZ1FQvDWBySlAIXcYTEiRMnhv5xGcbaMi6VrlkE2FigZOyIvSNHjkyImzd06NB0vUyfPj2cwlxySXJBkhKsHZkfVoh2j+ASnme1GI9Rn0VABERABERABERABERABFonICGvdUaqIQIi0KQEiMdmIgmWV5UUXHGtTdEW0apcOeecc8r2QYbPuBBzDeum7PkQEkl2gEVT9phZ+CH+2LEbb7wx7jb9TLy09ddfP62HmyMCYKUFEahv375pezvf5ptvnmZ+7dGjRzhuFpDUmTp1askpEPxoY+3jLWMaP358EieVKGlc5gtWigh4cX/2mTiBWdGKrjgPQmIsLlobRCUyrGYLApvVyW6Zf7ZkBVDaxEwYQ5wZl+P0g1hGkpnsOeLvCHZFBbHPhNa4DQLs/vvvn5thuZo1S9xDBEas7OL++QxPrBhJJGKCNVah8TqN22A5SF/Ze6JobtovAiIgAiIgAiIgAiIgAiJQnkCIWu7/p1tFBERABNolgWeeecZ5IcoNHjzYeeGh1Tl490bnRQXn49KF+l5ocN4t1HlRwvlsm+6jjz5y3srNeWurwr6866nz1n+OtvxxXvplH+29u6zzgldJe/r0FljOJ6xwXoRxW265pfNWfKEO533//fedF/vCuemDPvnuLZvClnPSrqh4azB3++23O29l5ryYVlSt7H5vsea8paLzMe6cj9fmvGWW88JNaOMtupyPIxhYMT7G4y2wwr5sp96i0fn4fY7+vIDnvNWh80JjaJutW+l3+MLPi2DOW6uFfjfeeOPQd7k+GKcXNZ23cgttfKZa52PN5TbhGnAeWxtU4rpxXb0lZ7iucUPGYWsAZl4Acz5pSsrM2nvrzTCGbt26OZ/FNdShLn+ciz/WIOuA8/BXxNbO7/9pdwsWLAj9slZ69uwZrjvjySu1rFnG4TNbO5/dOYyP6+hF7nTdZs/jLRrDvcg1Ykxce9aQtxDMVtV3ERABERABERABERABERCBGglIyKsRnJqJgAiIgAiIgAiIgAiIgAiIgAiIgAiIgAiIQFsSkJDXlrR1LhEQAREQAREQAREQAREQAREQAREQAREQARGokYCEvBrBqZkIiIAIiIAIiIAIiIAIiIAIiIAIiIAIiIAItCUBCXltSVvnEgEREAEREAEREAEREAEREAEREAEREAEREIEaCUjIqxGcmomACIiACIiACIiACIiACIiACIiACIiACIhAWxKQkNeWtHUuERABERABERABERABERABERABERABERABEaiRgIS8GsGpmQiIgAiIgAiIgAiIgAiIgAiIgAiIgAiIgAi0JQEJeW1JW+cSAREQAREQAREQAREQAREQAREQAREQAREQgRoJSMirEZyaiYAIiIAIiIAIiIAIiIAIiIAIiIAIiIAIiEBbEpCQ15a0dS4REAEREAEREAEREAEREAEREAEREAEREAERqJGAhLwawamZCIiACIiACIiACIiACIiACIiACIiACIiACLQlAQl5bUlb5xIBERABERABERABERABERABERABERABERCBGglIyKsRnJqJgAiIgAiIgAiIgAiIgAiIgAiIgAiIgAiIQFsSkJDXlrR1LhEQgXZFYMmSJe65555zd955p5sxY4Y7/vjj3ciRI9vVHCoZ7J/+9Cf30EMPuT/+8Y9hu8EGG7ibb765kqZtUqfZx9cmEHSShhHQemoYymXa0X//+1/36quvulmzZrkbbrjBPfHEE+6FF15YpmPSyUVABERABERABESgLQhIyGsLyjqHCDQZgUGDBrl+/fq5ffbZx2222WZuueWWa7IR1jec73znO27mzJmuS5cu4W+FFVYIHf7rX/9y//73vx3b7B8VVl11VbfNNtu4m266yfXq1cvxwh+Xyy+/3B155JHxrnb/+eCDD3bTpk0rmcfXvvY1d9ttt5XsW1Zfmn18bc3l0Ucfdeuuu65bZ5112vrUHeJ8Wk/Nfxl/97vfuQ8//NANHDgwPL/zRnzllVeGH1aoZ4V7YtGiRfZVWxEQAREQAREQARHosAQk5HXYS6uJiUAxgY997GNuxRVXdDvuuKM744wzXO/evd0nP/nJ4gbt7MhTTz3lHnnkEcf2kksucUmShBmsssoq7jOf+Yz71Kc+Feb79ttvu5dfftm999576QwRN6+//np39dVXu7/85S9uwoQJ7s033wzHr7vuOjd8+PC0bkf48Oyzz7o5c+aE+f72t78NU9p3333dL37xi6aYXrOPr60g/ec//3FHH320Q8BYb7313CuvvNJWp+5Q59F6au7Lee2117qDDjooDHLUqFFu0qRJuQPm2f7www87nllY41E22WQTWeTl0tJOERABERABERCBDkfAv+CqiIAIdDIC/kGWeDEv8ZZ4ibfuSbxAlXhLhsS7KlVMwlu0VVx3WVbcYostUPHC33e/+93cofztb39LrrrqqlDnBz/4QUkdL+yl7X/1q1+VHOtIX7zrcDrPESNGNN3Umn18SxPYP//5zyReh3vsscfSPN0y7/vFF19MvGiZPP/880ttLJ15PdUDdWleGx/GIPE/KKXPIZ7bN954Y9nhemE2rf+FL3yhbF0dFAEREAEREAEREIGOQgBLFRUREIFORsCELdt6l9LkW9/6VuLjCyWVCnTnn39+8vnPfz6ZOnVqgtDQrMW7Z6UveqeffnrhML2FU6h30UUXldQ57LDD0va/+c1vSo51pC+33357Ok9vCdN0U2v28S0tYB999FHyjW98I1wbb0WbnHXWWYl3D19ap1vm/SIif/zjHw/z9dZWS208nXU91QN0aV4b7yIb/j3h3yQfizThOcw66Nq1a+JDHBQO257btPvSl75UWE8HREAEREAEREAERKAjEZCQ15GupuYiAhUSMAEv3mKd97nPfS7x7kqJT/LQak8ICtbeu6sm5557bvLuu++22q6tKwwdOjQd509+8pPC03vXxWTNNddMvEtpSR0fEy9t//vf/77kWEf6EgsbPsZg002t2ce3NIB98MEHyVe+8pWw/oYMGZK89NJLS+M0TdXnlltumd5vs2fPXmpj64zrqV6YS/Pa2HP27LPPToeJBfRKK62UbLvttsk//vGPdH/8AUty+3eof//+8SF9FgEREAEREAEREIEOS0BCXoe9tJqYCBQTsBef7BYLCKzzfFKHxMeHK+tq6wOSJxtuuGH6EkVfPvZccuKJJyavvfZa8cnb+MiwYcPSMV566aVVnx1LRePks7pW3b69NIiFje9973tNN+xmH9/SAHbIIYckm2++ecLcO0vxyWbS+w1Xy6VVOuN6qpfl0ro2d9xxR7L88suH8AbZMfLMXX311ZMf/vCH2UPh+xtvvJGuF6yvVURABERABERABESgMxBQsgv/hq4iAp2NAMkuyhWyvH71q18NiSLIBOhfsnKrE4DfxzBy5513nnvsscfSOrQnYcLo0aNDIo30wDL4wDh8PKxw5p/+9KfOC3NVjeKYY45xtKOQMbRv37657b01Ygi0XnScRt5N0vkXU7fzzjvnMvXxp0LA9twTNHjnX//6V0fg/x49ergNNtjAebdhR7Zaysknn+x+/OMft3pGMkR6K7GQPITsx5/4xCdabVNphXrHR1biP//5z27hwoWOJCdeEHPeuqfV0/t4iSH5h7eES+u+/vrrjmvjheuQMTY9UPDB/89DCMRPYhUSU1C8RZHzMd9CNk4fy6sqVrVyrqUd3Lmm8OPeJ0Mu2Z/rKWQWJQP04sWLw/oul3F3hx12cA899FA4HQk9jF8956dtveupmjlUO1auE2uDBERky/aWwWW7WFZru5prw7Puvvvuc97dNWQDZ0ILFixw8+fPd5tuumnJdfWxWUM2cdYZCYheffVV984777iNN97Y9ezZMxzj36y87OokJFprrbUCr8GDBzsv0JZlx8Fq7wsfOiKMnXbdunULCZNau0atDkIVREAEREAEREAERKAeAp1BrdQcRUAESgn4Z0ZqxVD0Geu87t27J1hE/P3vfy/tIOfbPffckwwaNKhFv7gG3nXXXTktKttFfCQvfAXrP5+xs7JGUa04SYAX5KIj//uIyyyWiD577f92/t8nL+Slc/JiZXocq8Of//znwQJx1113TYhfhvVUXEiigbUJ8QT33nvvNJA7AeOtkGDk5ptvTvr06RPOc8ABB+SOg/onnHBCsHokbtTdd99tXVS89UJKctpppyUEhSfZiV17rjPua/b91FNPLeyTeIgXX3xxmKvVZ4trNtc6nlthJwUHGjE+/7KdcM2YUzw+1rMXSZLJkyeXWJriRv7rX/868WJ0gkUPlkErr7xyGOGDDz6Y+EyYJf14YSlch2ycumeeeSa55pprkm9/+9uJFx9CG9zNcQk87rjjAh8bjxc8E58xOvGCVQGJJMSdrIVzLdcHt3KfpTlZf/31S+bKeL0ImuCeXi5OWdEkfGbRxGcgTZivzZ3tGmusEWKgcd5s2WWXXdK6PqN04gWdxItwiRdTs1Vb/d6I9VTLHFodmK/A3A499NDEi5rpfGHDfbnbbrsledaIy2pt23zKXRv+jbjttttCiAWeuZa0gn8/uMcGDBiQztNnSbcu0+306dOTL37xi2kdWy9Yee+5554JsfDyCpbjVpdYkkWllvsCV3aexzw77By2JYnSBRdcUHQ67RcBERABERABERCBpUpArrVLFa86F4HmJGAvI61t7QWGTK7Ev6skq+3cuXMTXAK9VV7Jyw+JMRA6eKGqppBp1sbprSEKYyUV9VmJkDdhwoRwjqw4Q59FQh7ijI3Ltttvv33JMKxfO25bXsit4O5r+22bl5X0zjvvDC/53molGTNmTFXCBvOaOHFiAj/c1IiBh6h57LHHthDkGEM2c6+Ndd68eWlAel7McU+8//77kzPPPDMIPrQlppW3XLQmFW0bNT5vyRPEOsbhLUqDqx4u4LgKk53Z+CJIIBBRiMNl+22LUEq2TMRZ25fdDh8+vCTpBMJcts4ZZ5yRfPnLX26x3+ohUhCTMltq5VxrO/gwJgQ2Pt97773J9ddfn+y1117p2BFkqimsCZ4BiKII2cwT4TsWdOjfCoktvv71r5cIzMaJLQJXJbE76a9R66naOdhcym2ZA+EHEDcRm1mn+++/f4K4hYhsc/bWbCXdLMu1Xcm1eeCBB9Kx2xzY8gNPVqDbfffdS+Zm8VZ5No0dOzbhnp0yZUrJekAYnDZtWkk7vlQi5NVyX/CM/vSnPx3mxJr92c9+Fp51CP7EUmVucuVtcTm0QwREQAREQAREoI0ISMhrI9A6jQg0E4H4RavSz1hx8TKZJ3blzc27NSbetTZYkMXnwFqpGmsye8mjDyyG8qx48s5v+2IhD/GFF0SssrB2QmDAQo1+ebHOK0VCHqImGX5JoGHz44UvWxgv1nsIGlbPu4+l1d58883wgrrTTjulx6l3ySWXpHV4WfXuY8Ey5Kabbkr3V/rh6KOPDn2TzMS7t5U043qecsopJQJKXjwq5uDdcEM/vIhn1wEZfc3Kj7WSPV5y0syXRowP6xnvIhzGh0CUXSdYRzJ/uwZHHHFEGAX1SCrx9NNPlwh3iNjUQcQgo+bjjz8eBBdrz3bmzJnpTFgLWI4hjsZ1iCOJWItFEWMgmQpCodXBEjMutXKutR2Zqm0sl112WTyU8Jm1wfE8C7EWlf9vx/jx49M+//CHP5RUw0IxFjd/+ctfBr6IOFg72ljYInJhZUWijzxxu6Tj6Esj1lO1c4hOX/iRtYZYydywXma9xAWrzq222ioc57pYWZZrm7Vf6bXhmcgaj5NimMUh96Z3lQ1zw0rTCpnE4cEPAHkWqvzgYGuCOjEX+mhNyKv1vsASj/PyA0D2xyf+HeR5vN9++9k0tBUBERABERABERCBNiUgIa9NcetkItAcBOzFqJot1iJY2CBeFGUQzJsdlnw+dlH6MsY5ffy1vKq5+7Cc+v73vx9cU3F1rLbEQl65+WIdlVeKhDyri8WJ9VvOtSu2CPPxo6x5ydYyN9IfFii8MFJ87Lpwjlpcua699tp0fFkrn/jkF110UVovT8jDrdfmmffCTV+4m1mdrIATnyv+3KjxYfHJubGiK3IFz1oNZbMQmxBIP7HYYONFrMON2uaIZWS24KJqxxFvcc3MFsRBq4P4GY+3Vs61tkMwtrH4OG3ZoSZY2HIcQaSSgrBi1rhZyytrj7WfnRNRLy6WpZfjea7ucd28z41YT/XOIW9c7Bs3blyYN0LuW2+9lVvNrHjff//99HizrO1Kr81hhx2WXl+uI1avFMR9MstizUxBxLV1gKBXVOLz4nYcl9aEvFrvC0vkxL8feYUfC+zHgLzj2icCIiACIiACIiACS5OAhLylSVd9i0CTErCXp1q2uHbi/tRa4aXNJ5lIfPKH9GWN82HphNjRViUW8ohfhosfrp+IgohwU6dODZZauJ3mldaEPFxLjWPRSx/9Wqw15l9UsPyIeWG9g+Ug/Y8cObKoWdn9ZoWGlVy5EmfxzAp5CLdY5TAOLBeLXKwPPvjglEWl8QwbMT5EQ7sGuPGVK2bxRH0E4rj4IPxpP1hK5pWrrroqrTNixIgWVXAftbFgGVZUsAK1elivUmrlXGs7zok4bOPg+mXFM/omNiQiZiUltlD90Y9+lNsECzM7p08IUlInFm2yYympWPClEeup3jnkDY17m2cn8yYTdlGZM2dOsNqz4820tiu9NrF4FrtP25xsG1tmloujGgt+PD9j4buckFfPfWFWs1gB5rmVY9lsP7TYfLQVAREQAREQAREQgbYiICGvrUjrPCLQRATsJbrWbZ4lkk2PlyysfMyNys7BCxGiWD3JEOwc1WxjIa8o2QWuj7y45ZXWhDysumyOxAYsKiTCoJ4lUiiqR1IBCxRv/RJ/LeveVdQ+3s+1IAkF/bTmBlZOyMPlz8bC+LGoIkEHwe15AcfC7NZbb01i1lmRLB6XfW7U+LDwtPEdddRR1n3uFvdqq5u1oDSLQqzkigouxNaevrIltjYjRl5R8dk8037MXbBWzrW2Y2yIdDYftqw9LEDPOeec5JFHHqnKRZr+hg0blvbH/UCswVtuuSUkfWGdkFiEfeaGzTljC9VKxSLOlS2NWk/1ziE7Lr4j0Bln4qxVWpppbVd6bU466aR0rkWCPj8GxDEoiywU4RS7f8MwTjpUTsir577g2WDXiy0CMf8W4BpfJPJXek1VTwREQAREQAREQATqJSAhr16Cai8C7ZBA/IJS6Wdca/nDdS2O8WbTJ94TwgUB8+M+CQxO8oRsPChrt7S3sbhUJOTxckbW2rzSmpAXu0mWs7QxkWi11VbLO03JviuuuKKEYaVuqiWd+C9YH9q1wEqmXEGUs7pZizzEOjvW2haLPV56sXRsrTRqfFha2rhOPvnksqfFSszqck3i8tnPfjYcwzW0qGDJae3z3G+xQrXjRRZp9B2LIpYRtlbOtbZjHAgqsUu3jd22uJyTjKFS67hsYgPrJ7tFyCOZAK7KsbVfzKXSczIPSqPWU71z+P+jKf0vyRKMwaRJk0oPlvnWTGu70mtjcRWZLz8Q5BWEO+PBNhZzs/Wx7o5FP8RyK+WEvHrui1mzZiVrr712yRjj8RIHsJZ4pTZubUVABERABERABESgHgIS8uqhp7Yi0E4JxC8klX7mxYWA/1i9xK6ViBAE+MfiLu4LV1KC5xMsfVmWSoQ8ArQjAuSV1oQ8ssnavI8//vi8LsI+c61FvGit8FJrrl30TTbcapJHWP+xmydiTLkSW5JlhbzYtY0g77w82x8C7eLFi0NW42qtBhs1vtiVL09ci+fNy7ddr6y7sQl5RYlP6Cd2pSYWWLbEQl65WJDE+rJxkAiDUivnWtvFY+daYIm3yiqrpOOy8bFFxKmkxK7LuKjaOmHLfcaPAMR/i58hcb+VikVxG/vcqPVU7xxsPPGWpDrGs9xzIm7D52Za25VeG8uCzHzJQJtXWAfGg62J2Xl12WdxAqlrMffYz7qyfrIWtvXeF8SFJMP3Zpttlp7DzsWWH7bKxR1lfCoiIAIiIAIiIAIisDQISMhbGlTVpwg0OYH4ZaTcZ+IRcRxXKWICxWISWSxxQTPXTetnhx12CG6X2ayhywpJJUJeubFhZWdzw0ojW3ApteOIfkXFMnKSxbG1ghhlfdo2K6611gfH4/ha2267bdkmcdKD7LmeeOKJdDxYUpHltRGlUeOLE3W0FiPvhhtuSOeSjWFn7s/lLPLi5CZ5cQux7rRrVs4ib+edd07rLVy4MOCslXOt7fKuIdZxCPYTJ05McOm2ubBFNGmtfPOb30zb8NyotsRx00h0U01p1Hqqdw55Y47XaFESkNbaLeu1Xem1icVHhO+iYnE3WVtYz5UrFvuQum+88UZalc+2RhGi49LI+4K1j4s4iTqIp2rn5EcsFREQAREQAREQARFoawIS8tqauM4nAk1AwF5Cym0R8XhhweUSS5qsBc1ZZ52VvsxQd4899sgNCr6sp8u4bJ7VuLTZuGO3Q2KGZQvWIdZ/UYy8JUuWpJk8e/bsme2i5Lu5fmJBF1uPYf2RF3S9pHHmC7GcbGwIcLNnz87U+N/XOHYcrtBxwQrTRF36Iz5eI0qjxnf33XeXzJNkCkXl/PPPT+tmXePMapK5FpX4XFkhkDbXXXdd2n9WEI37RPC2a2Mxt2rlXGs7xkMGYtw3i0qcgTSb5TevDbERbV5bb711i+dGXpt43y677JK2r9Ydv1Hrqd45xPOxz7HrOj9+PP3003ao7DZeb9zDy3JtV3ptELdsDRBTsqjE90DRs9PaEvqAPrHMi8uiRYvScw0aNCg+FKzHa31uIUYWZUnHetB+wCILr4oIiIAIiIAIiIAItDUBCXltTVznE4EmIGAvWUVbRCPcqLDMKXKNRcjDnRYxY2knsODFCWubWqz8eLmzeRLAv9py6KGHpu0ZQ7bgOmb951m9MeahQ4emdbJZOuP+LAkA1ie4H1JigY1Mp3nxCeM+sp/jpCNYgZHJMVuwhrEXU+Zy6qmnZqskcXKGXr165fbTolEFOxoxPmKpxfGsiNFVVIjJxhy5DtkYbBtssEF6nYrax4IMIm+2kJHZ1kO5ZBesFauHGGGlVs61tpsyZUpgYefPbm2+iEiWXTdbJ/4eJwNhfvRfTYnnMW/evGqahrqNWE/1ziFv0DxHY3f5rPVYXhv2NdParvTaxD9+lBP9Sfph9wBJdIqebbivWr0JEyaUoMJS3I5hMZgt8ZireW6tu+66SVGiDs5h92+eVW52DPouAiIgAiIgAiIgAo0mICGv0UTVnwi0AwL24pPdYr1AjCxesObPn19WOOMFqlqLmVrQICQgIjDWbAykSvrr169f+qJ34oknVtKkpM7ee++dticeXrbAKeZ47rnnptx4MT388MNLjnfv3j3bRfiOtR0vs8RnI9uiFYLCxyIVYhwWfpWW2KqPccLj2WefDc3ffffdhLhiJDSI55DHiaybsdiH0Jsn7JD8A5Gi6KU8O+5Gje+aa65J59ClS5dcVz2zbsJ1Ns+6kcQsxiF2I4/HHFvcHXjggfGh8Dl2UR43blyL47bDrP84H2vISq2ca22HMAKPl19+2YZQsh01alRgMmDAgJL95b7stddeKUey4E6ePLlFdeIqwgcLybiwduwa4KqOEI7QmbWejNvEnxu1nuqZQzye+DMWwTY3tvvuu2+Le5n5PvrooyXJH5plbVd6bbAmtnky9qJCTM04/tzAgQNb/EBAHbME5PmftQzHstHOxbMtW2q9L3gmIkhmz0f//NtnmcXzftzJjkHfRUAEREAEREAERKDRBCTkNZqo+hOBdkDAXnziLSINL1VkGcSVtlnKEUcckb6oITQWWQjG4yVuEjH8CHYeZzvcaKONEqxtnn/++ZJ4f3Fb+0wCAkREXGGNE6IeSTGyIpVZeVk9MveSEdXcwcikSpILO37xxRcn9I91HIIG4gMCH8fz4qrNnDkzbUsdgvFfeumlNtRWt8QytHPbluy5CDh8x60tzqqJ5R/fswHoSd4Qu6rxsjtkyJBkzJgxyYgRIxJcKemPdVRNacT4eOFGWLP5IYqSbOHJJ58MQhkx3xBJuSbTpk1Lh8c1wCUTATKeG3wRKnFbjUss1GHBRwww7heuI2LYnnvumY6BJCWPPfZYC8s/+otFw9GjRycE1re1XSvnWtqZGykCPgkZsH5CoMcazhK9YJ0UWw3GPPI+wy0WKrkmJBbBeom4eViomng8ffr0ki64V+wasuW+4LrBstLSiPVUzxzKjfPss88umR8xM4njOXbs2CD6w5ofLrCGtrKs17aNo9y1IbYiltk8My0eKNcP8Q+xi2dynjiO+2p8LxA/kHAFxI3k3tppp50CL56x8XOXHzMQ8WyNci4sHsmq/sILL5QIcNXeFyQbsh+PiBPJGuXfE+Lk8W+KWX2OHz/e0GgrAiIgAiIgAiIgAm1KQEJem+LWyUSgOQjEL8p85iX+4IMPTogBl+d6uSxHjWuWjReLjUoKopK1KdrywleumLCW156A53HBss2sRuL6BHMnGQbFhIv4OBZ+F154YTpWxA5eiPMK7q7WFgGOJByVFoQArCwRRKwPtrysnnnmmaGbK664IhyzF1iOb7jhhi1O8cADDySWFCLui8+4q/JyGwejb9FBzo5Gjo/ripCaHRvu4lgKWWIJG0Yc4zDbhu+XX365VQ1bLNiy9eCE0JTdb9979OhR0gdf8tbD1KlT03q1cq62HcJx0VrHspFYYbUI+wigtDWx2FiwRTDFugqXbq59XFg7cYZS6sMvz/ozbhd/btR6qnUO8VjyPnPPI+DFTOxznz59SoTmuP2yWts2hnLXBuHR5lC0LQrBQL/8IBAL6dYHwiZWw9lCmASrk7fNrtlq7gvabrrppiErbV7f/JByxx13ZIek7yIgAiIgAiIgAiLQZgQ+xpn8/6ioiIAIdCICXqxx/PkXJ+ctxZy3BnFeJHM+hlDY32wovKup8+6HbvDgwc4LA60Oz1tUOJ9Z1XkhItSnDfP1FiHOC5WO4941yvkYf4V9eXHOeUEg7cNbLIZ2tKU/L8S0aOstu5y3wOIHEudfBJ233AiMqUh/tOOPPvjzlihhnPYYZoxeVG3Rr+24/vrrnbcoc969Nozf9le6Ze5PPfWU89ZWzlvdud69ezuf0CQ0h423CAv98xl+3q0tjDGvf+Y6d+5c54Ux5wU8560dQ59wqrU0anzw9O5vYa7w9laVzouP4Vpmx8Z18PEIw1pgvTB+rjtjgYcXucI+a+eF1sCG6+DdIEMdu5f47sXScI2pb0zhyH0WF9YD5+OPc3nRyHkryXS9WN1aOVfbzlsUhnvMC2Zh/FxTb1UX1oONpZYtc/fWTM67cweOrBOeM956qrA7uHlrq3D9WJ/eKiqwKWxQcKBR66mWORQMKd3NWvHil4M3awHePC/gU64si7UdP+uKrg33BWuI9c+aZst9BDv+mK8X2MtNLdxXPJ+84Bd4+FihzocVyG3D84n70+4h7nO7H7mnud+4L7OlmvuCuS7wzxH+7aFP/s1g7fLszOs7ey59FwEREAEREAEREIGlRUBC3tIiq35FoIkJ8BLCi1bfvn2dd4t0PiB4ECyaeMgamgiIgAiIgAiIgAiIgAiIgAiIgAh0egIS8jr9EhCAzkigf//+zsczcz6WVBDzvNthZ8SgOYuACIiACIiACIiACIiACIiACIhAuyIgIa9dXS4NVgREQAREQAREQAREQAREQAREQAREQAREoLMSkJDXWa+85i0CIiACIiACIiACIiACIiACIiACIiACItCuCEjIa1eXS4MVAREQAREQAREQAREQAREQAREQAREQARHorAQk5HXWK695i4AIiIAIiIAIiIAIiIAIiIAIiIAIiIAItCsCEvLa1eXSYEVABERABERABERABERABERABERABERABDorAQl5nfXKa94iIAIiIAIiIAIiIAIiIAIiIAIiIAIiIALtioCEvHZ1uTRYERABERABERABERABERABERABERABERCBzkpAQl5nvfKatwiIgAiIgAiIgAiIgAiIgAiIgAiIgAiIQLsiICGvXV0uDVYEREAEREAEREAEREAEREAEREAEREAERKCzEvh/eiMWaF5mhFgAAAAASUVORK5CYII=;" vertex="1" parent="1">
          <mxGeometry x="490" y="67.55" width="369.66" height="196.22" as="geometry" />
        </mxCell>
        <mxCell id="BGHJ9ARHNfo6qZJL71BD-11" value="receptionMessageMoniteur" style="rounded=0;whiteSpace=wrap;html=1;points=[[0,0,0,0,0],[0,0.25,0,0,0],[0,0.5,0,0,0],[0,0.75,0,0,0],[0,1,0,0,0],[0.05,0,0,0,0],[0.05,1,0,0,0],[0.1,0,0,0,0],[0.1,1,0,0,0],[0.14,0,0,0,0],[0.14,1,0,0,0],[0.19,0,0,0,0],[0.19,1,0,0,0],[0.24,0,0,0,0],[0.24,1,0,0,0],[0.29,0,0,0,0],[0.29,1,0,0,0],[0.33,0,0,0,0],[0.33,1,0,0,0],[0.38,0,0,0,0],[0.38,1,0,0,0],[0.43,0,0,0,0],[0.43,1,0,0,0],[0.48,0,0,0,0],[0.48,1,0,0,0],[0.52,0,0,0,0],[0.52,1,0,0,0],[0.57,0,0,0,0],[0.57,1,0,0,0],[0.62,0,0,0,0],[0.62,1,0,0,0],[0.67,0,0,0,0],[0.67,1,0,0,0],[0.71,0,0,0,0],[0.71,1,0,0,0],[0.76,0,0,0,0],[0.76,1,0,0,0],[0.81,0,0,0,0],[0.81,1,0,0,0],[0.86,0,0,0,0],[0.86,1,0,0,0],[0.9,0,0,0,0],[0.9,1,0,0,0],[0.95,0,0,0,0],[0.95,1,0,0,0],[1,0,0,0,0],[1,0.25,0,0,0],[1,0.5,0,0,0],[1,0.75,0,0,0],[1,1,0,0,0]];" vertex="1" parent="1">
          <mxGeometry x="380" y="310" width="160" height="30" as="geometry" />
        </mxCell>
        <mxCell id="BGHJ9ARHNfo6qZJL71BD-13" value="resetSuperviseur" style="rounded=0;whiteSpace=wrap;html=1;points=[[0,0,0,0,0],[0,0.25,0,0,0],[0,0.5,0,0,0],[0,0.75,0,0,0],[0,1,0,0,0],[0.05,0,0,0,0],[0.05,1,0,0,0],[0.1,0,0,0,0],[0.1,1,0,0,0],[0.14,0,0,0,0],[0.14,1,0,0,0],[0.19,0,0,0,0],[0.19,1,0,0,0],[0.24,0,0,0,0],[0.24,1,0,0,0],[0.29,0,0,0,0],[0.29,1,0,0,0],[0.33,0,0,0,0],[0.33,1,0,0,0],[0.38,0,0,0,0],[0.38,1,0,0,0],[0.43,0,0,0,0],[0.43,1,0,0,0],[0.48,0,0,0,0],[0.48,1,0,0,0],[0.52,0,0,0,0],[0.52,1,0,0,0],[0.57,0,0,0,0],[0.57,1,0,0,0],[0.62,0,0,0,0],[0.62,1,0,0,0],[0.67,0,0,0,0],[0.67,1,0,0,0],[0.71,0,0,0,0],[0.71,1,0,0,0],[0.76,0,0,0,0],[0.76,1,0,0,0],[0.81,0,0,0,0],[0.81,1,0,0,0],[0.86,0,0,0,0],[0.86,1,0,0,0],[0.9,0,0,0,0],[0.9,1,0,0,0],[0.95,0,0,0,0],[0.95,1,0,0,0],[1,0,0,0,0],[1,0.25,0,0,0],[1,0.5,0,0,0],[1,0.75,0,0,0],[1,1,0,0,0]];" vertex="1" parent="1">
          <mxGeometry x="390" y="455" width="110" height="30" as="geometry" />
        </mxCell>
        <mxCell id="BGHJ9ARHNfo6qZJL71BD-14" style="edgeStyle=orthogonalEdgeStyle;rounded=0;orthogonalLoop=1;jettySize=auto;html=1;exitX=0.19;exitY=1;exitDx=0;exitDy=0;exitPerimeter=0;entryX=0.14;entryY=0;entryDx=0;entryDy=0;entryPerimeter=0;" edge="1" parent="1" source="BGHJ9ARHNfo6qZJL71BD-11" target="BGHJ9ARHNfo6qZJL71BD-13">
          <mxGeometry relative="1" as="geometry" />
        </mxCell>
        <mxCell id="BGHJ9ARHNfo6qZJL71BD-15" value="erreur_moniteur" style="edgeLabel;html=1;align=center;verticalAlign=middle;resizable=0;points=[];" vertex="1" connectable="0" parent="BGHJ9ARHNfo6qZJL71BD-14">
          <mxGeometry x="0.1092" y="1" relative="1" as="geometry">
            <mxPoint as="offset" />
          </mxGeometry>
        </mxCell>
        <mxCell id="BGHJ9ARHNfo6qZJL71BD-16" value="rechercheArene" style="rounded=0;whiteSpace=wrap;html=1;points=[[0,0,0,0,0],[0,0.25,0,0,0],[0,0.5,0,0,0],[0,0.75,0,0,0],[0,1,0,0,0],[0.05,0,0,0,0],[0.05,1,0,0,0],[0.1,0,0,0,0],[0.1,1,0,0,0],[0.14,0,0,0,0],[0.14,1,0,0,0],[0.19,0,0,0,0],[0.19,1,0,0,0],[0.24,0,0,0,0],[0.24,1,0,0,0],[0.29,0,0,0,0],[0.29,1,0,0,0],[0.33,0,0,0,0],[0.33,1,0,0,0],[0.38,0,0,0,0],[0.38,1,0,0,0],[0.43,0,0,0,0],[0.43,1,0,0,0],[0.48,0,0,0,0],[0.48,1,0,0,0],[0.52,0,0,0,0],[0.52,1,0,0,0],[0.57,0,0,0,0],[0.57,1,0,0,0],[0.62,0,0,0,0],[0.62,1,0,0,0],[0.67,0,0,0,0],[0.67,1,0,0,0],[0.71,0,0,0,0],[0.71,1,0,0,0],[0.76,0,0,0,0],[0.76,1,0,0,0],[0.81,0,0,0,0],[0.81,1,0,0,0],[0.86,0,0,0,0],[0.86,1,0,0,0],[0.9,0,0,0,0],[0.9,1,0,0,0],[0.95,0,0,0,0],[0.95,1,0,0,0],[1,0,0,0,0],[1,0.25,0,0,0],[1,0.5,0,0,0],[1,0.75,0,0,0],[1,1,0,0,0]];" vertex="1" parent="1">
          <mxGeometry x="520" y="455" width="110" height="30" as="geometry" />
        </mxCell>
        <mxCell id="BGHJ9ARHNfo6qZJL71BD-17" style="edgeStyle=orthogonalEdgeStyle;rounded=0;orthogonalLoop=1;jettySize=auto;html=1;exitX=0.29;exitY=1;exitDx=0;exitDy=0;exitPerimeter=0;entryX=0.29;entryY=0;entryDx=0;entryDy=0;entryPerimeter=0;" edge="1" parent="1" source="BGHJ9ARHNfo6qZJL71BD-11" target="BGHJ9ARHNfo6qZJL71BD-16">
          <mxGeometry relative="1" as="geometry">
            <Array as="points">
              <mxPoint x="426" y="380" />
              <mxPoint x="552" y="380" />
            </Array>
          </mxGeometry>
        </mxCell>
        <mxCell id="BGHJ9ARHNfo6qZJL71BD-18" value="rch_arene" style="edgeLabel;html=1;align=center;verticalAlign=middle;resizable=0;points=[];" vertex="1" connectable="0" parent="BGHJ9ARHNfo6qZJL71BD-17">
          <mxGeometry x="0.2296" y="1" relative="1" as="geometry">
            <mxPoint as="offset" />
          </mxGeometry>
        </mxCell>
        <mxCell id="BGHJ9ARHNfo6qZJL71BD-19" value="actualiserPositionRobot" style="rounded=0;whiteSpace=wrap;html=1;points=[[0,0,0,0,0],[0,0.25,0,0,0],[0,0.5,0,0,0],[0,0.75,0,0,0],[0,1,0,0,0],[0.05,0,0,0,0],[0.05,1,0,0,0],[0.1,0,0,0,0],[0.1,1,0,0,0],[0.14,0,0,0,0],[0.14,1,0,0,0],[0.19,0,0,0,0],[0.19,1,0,0,0],[0.24,0,0,0,0],[0.24,1,0,0,0],[0.29,0,0,0,0],[0.29,1,0,0,0],[0.33,0,0,0,0],[0.33,1,0,0,0],[0.38,0,0,0,0],[0.38,1,0,0,0],[0.43,0,0,0,0],[0.43,1,0,0,0],[0.48,0,0,0,0],[0.48,1,0,0,0],[0.52,0,0,0,0],[0.52,1,0,0,0],[0.57,0,0,0,0],[0.57,1,0,0,0],[0.62,0,0,0,0],[0.62,1,0,0,0],[0.67,0,0,0,0],[0.67,1,0,0,0],[0.71,0,0,0,0],[0.71,1,0,0,0],[0.76,0,0,0,0],[0.76,1,0,0,0],[0.81,0,0,0,0],[0.81,1,0,0,0],[0.86,0,0,0,0],[0.86,1,0,0,0],[0.9,0,0,0,0],[0.9,1,0,0,0],[0.95,0,0,0,0],[0.95,1,0,0,0],[1,0,0,0,0],[1,0.25,0,0,0],[1,0.5,0,0,0],[1,0.75,0,0,0],[1,1,0,0,0]];" vertex="1" parent="1">
          <mxGeometry x="650" y="455" width="140" height="30" as="geometry" />
        </mxCell>
        <mxCell id="BGHJ9ARHNfo6qZJL71BD-20" style="edgeStyle=orthogonalEdgeStyle;rounded=0;orthogonalLoop=1;jettySize=auto;html=1;exitX=0.38;exitY=1;exitDx=0;exitDy=0;exitPerimeter=0;entryX=0.24;entryY=0;entryDx=0;entryDy=0;entryPerimeter=0;" edge="1" parent="1" source="BGHJ9ARHNfo6qZJL71BD-11" target="BGHJ9ARHNfo6qZJL71BD-19">
          <mxGeometry relative="1" as="geometry">
            <Array as="points">
              <mxPoint x="441" y="360" />
              <mxPoint x="684" y="360" />
            </Array>
          </mxGeometry>
        </mxCell>
        <mxCell id="BGHJ9ARHNfo6qZJL71BD-21" value="act_pos_robot" style="edgeLabel;html=1;align=center;verticalAlign=middle;resizable=0;points=[];" vertex="1" connectable="0" parent="BGHJ9ARHNfo6qZJL71BD-20">
          <mxGeometry x="-0.0342" relative="1" as="geometry">
            <mxPoint as="offset" />
          </mxGeometry>
        </mxCell>
      </root>
    </mxGraphModel>
  </diagram>
</mxfile>
